<svg width="18" height="17" viewBox="0 0 18 17" fill="none" xmlns="http://www.w3.org/2000/svg">
<path d="M5.06418 6.71248C4.44199 6.71248 3.93932 7.22511 3.93932 7.85963C3.93932 8.49414 4.44199 9.00677 5.06418 9.00677C5.68636 9.00677 6.18903 8.49414 6.18903 7.85963C6.18903 7.22511 5.68636 6.71248 5.06418 6.71248ZM9.00117 6.71248C8.37898 6.71248 7.87631 7.22511 7.87631 7.85963C7.87631 8.49414 8.37898 9.00677 9.00117 9.00677C9.62335 9.00677 10.126 8.49414 10.126 7.85963C10.126 7.22511 9.62335 6.71248 9.00117 6.71248ZM12.9382 6.71248C12.316 6.71248 11.8133 7.22511 11.8133 7.85963C11.8133 8.49414 12.316 9.00677 12.9382 9.00677C13.5603 9.00677 14.063 8.49414 14.063 7.85963C14.063 7.22511 13.5603 6.71248 12.9382 6.71248ZM9.00117 0.403198C4.03072 0.403198 0.00233296 3.74067 0.00233296 7.85963C0.00233296 9.566 0.701852 11.129 1.86186 12.3873C1.3381 13.7997 0.248395 14.997 0.230819 15.0113C-0.00118221 15.2623 -0.0644553 15.6279 0.0691212 15.9434C0.202698 16.2589 0.508517 16.4632 0.845974 16.4632C3.0078 16.4632 4.71266 15.5419 5.73557 14.8034C6.75146 15.1296 7.84819 15.3161 9.00117 15.3161C13.9716 15.3161 18 11.9786 18 7.85963C18 3.74067 13.9716 0.403198 9.00117 0.403198ZM9.00117 13.5953C8.06262 13.5953 7.13461 13.4484 6.24527 13.1616L5.44733 12.9035L4.76187 13.3982C4.2592 13.7602 3.57023 14.1653 2.74065 14.4378C2.99726 14.004 3.24683 13.5165 3.44017 12.9967L3.81278 11.9893L3.08865 11.2078C2.45241 10.516 1.68961 9.37242 1.68961 7.85963C1.68961 4.69781 4.96927 2.12391 9.00117 2.12391C13.0331 2.12391 16.3127 4.69781 16.3127 7.85963C16.3127 11.0214 13.0331 13.5953 9.00117 13.5953Z" fill="#9B6826"/>
</svg>
