<svg width="16" height="16" viewBox="0 0 16 16" fill="none" xmlns="http://www.w3.org/2000/svg">
<path d="M15.3017 8.8476C15.5276 9.1684 15.6997 9.51655 15.8199 9.89804C15.9395 10.2782 16 10.6717 16 11.0792C16 11.6628 15.8824 12.211 15.6498 12.7245C15.4166 13.2368 15.0957 13.6883 14.6864 14.0804C14.2771 14.4686 13.8007 14.7734 13.2532 14.9948C12.7056 15.2162 12.1296 15.325 11.5169 15.325C10.6445 15.325 9.86179 15.1182 9.16744 14.7054C8.97475 14.732 8.78073 14.7514 8.58472 14.7661C8.38804 14.7794 8.19336 14.7847 7.99867 14.7847C6.9794 14.7847 6.02259 14.6013 5.12757 14.2358C4.23455 13.8684 3.45249 13.3695 2.77874 12.7339C2.10698 12.101 1.57741 11.3546 1.19601 10.5003C0.811296 9.64594 0.619269 8.73289 0.619269 7.76249C0.619269 7.57441 0.628571 7.39567 0.648505 7.23027C0.666445 7.06487 0.69103 6.89613 0.716279 6.72739C0.237874 6.06112 0 5.34549 0 4.57784C0 4.00693 0.117608 3.46738 0.350831 2.95983C0.583389 2.45296 0.902326 2.01211 1.31163 1.63795C1.72093 1.26313 2.2 0.968342 2.74419 0.752253C3.2897 0.536163 3.86844 0.430786 4.48106 0.430786C4.92226 0.430786 5.33621 0.482808 5.72957 0.588852C6.12292 0.696229 6.49103 0.845625 6.83056 1.04104C7.02259 1.01369 7.21927 0.994353 7.41329 0.979013C7.60997 0.967008 7.80664 0.959672 7.99867 0.959672C9.02126 0.959672 9.98139 1.13841 10.8791 1.49389C11.7748 1.84671 12.5588 2.33557 13.2326 2.95583C13.9063 3.57876 14.4372 4.29972 14.8226 5.12006C15.2066 5.94173 15.3987 6.82343 15.3987 7.76249C15.3993 8.10863 15.3674 8.47078 15.3017 8.8476ZM11.5169 10.9832C11.8319 10.567 11.9874 10.0781 11.9874 9.51655C11.9874 9.07436 11.8997 8.70288 11.7269 8.40142C11.5468 8.1013 11.293 7.84986 10.9654 7.64911C10.6645 7.45436 10.2731 7.28162 9.79402 7.12689C9.31229 7.00551 8.80133 6.88679 8.26113 6.76541L7.6691 6.63002C7.5103 6.59601 7.38405 6.56733 7.28904 6.54132C7.18339 6.51531 7.08571 6.48663 6.99269 6.45261C6.90498 6.42127 6.81196 6.38458 6.71894 6.34457C6.53821 6.26854 6.38671 6.16516 6.26645 6.04378C6.17342 5.93907 6.12691 5.79834 6.12691 5.6236C6.12691 5.36816 6.27841 5.14007 6.5794 4.93799C6.92027 4.74924 7.33688 4.65854 7.83189 4.66454C8.40399 4.66454 8.80598 4.74924 9.03256 4.91931C9.30631 5.12073 9.52093 5.36883 9.67442 5.66162C9.80797 5.87637 9.94352 6.03644 10.0837 6.14182C10.2173 6.24453 10.4027 6.29988 10.6359 6.30722C10.8983 6.30722 11.1156 6.21985 11.2983 6.04378C11.4771 5.87971 11.5628 5.69497 11.5581 5.48688C11.5581 5.24611 11.4904 5.00935 11.3575 4.78125C11.2259 4.56716 11.0047 4.33907 10.6997 4.09697C10.5455 3.99293 10.3761 3.89755 10.1934 3.81019C10.01 3.72215 9.80399 3.64478 9.58007 3.57942C9.34552 3.5154 9.099 3.46604 8.8392 3.4327C8.57874 3.40002 8.29435 3.38468 7.9794 3.38468C7.18605 3.38468 6.51694 3.48205 5.97209 3.6768C5.38671 3.87955 4.94352 4.15833 4.64319 4.51981C4.34286 4.86396 4.19269 5.27746 4.19269 5.76033C4.19269 6.26854 4.33821 6.68204 4.62525 7.00084C4.91429 7.34565 5.30565 7.60642 5.80066 7.78316C6.2711 7.97191 6.87243 8.13731 7.60997 8.28004C7.88571 8.3454 8.12691 8.40075 8.3402 8.44277C8.55017 8.48412 8.74086 8.53147 8.90764 8.58283C9.22193 8.66886 9.47708 8.81292 9.67176 9.01767C9.87973 9.19508 9.98405 9.42318 9.98405 9.70463C9.98405 10.0935 9.79402 10.4083 9.4186 10.6483C9.06379 10.8945 8.58405 11.0158 7.98007 11.0072C7.49635 11.0072 7.14618 10.9511 6.92425 10.8378C6.64851 10.7117 6.44518 10.5516 6.31163 10.3609C6.14219 10.1435 6.00664 9.90204 5.89767 9.64127C5.80266 9.39383 5.67442 9.20709 5.50698 9.08103C5.35083 8.95365 5.16811 8.89029 4.95349 8.89029C4.67973 8.89029 4.45382 8.96699 4.27508 9.11772C4.09635 9.28912 4.01063 9.48987 4.01462 9.7153C4.01462 10.1081 4.15947 10.501 4.44651 10.8945C4.73156 11.2993 5.09767 11.6154 5.54352 11.8428C6.19668 12.1817 7.01728 12.3531 8.00332 12.3597C8.80797 12.3597 9.52492 12.2397 10.1488 12.0002C10.7615 11.7275 11.2186 11.3893 11.5169 10.9832Z" fill="#EEEDED"/>
</svg>
