<svg width="16" height="13" viewBox="0 0 16 13" fill="none" xmlns="http://www.w3.org/2000/svg">
<path d="M14.3554 3.88664C14.3655 4.01837 14.3655 4.15014 14.3655 4.28187C14.3655 8.29998 11.066 12.9298 5.03555 12.9298C3.17767 12.9298 1.45179 12.431 0 11.5653C0.26397 11.5936 0.517752 11.603 0.791878 11.603C2.32485 11.603 3.73605 11.1231 4.86296 10.3044C3.42133 10.2761 2.2132 9.401 1.79694 8.19649C2.00001 8.2247 2.20304 8.24353 2.41626 8.24353C2.71067 8.24353 3.00511 8.20588 3.2792 8.14004C1.77666 7.85771 0.649721 6.6344 0.649721 5.15701V5.11938C1.08625 5.34523 1.59391 5.48638 2.13195 5.50518C1.24869 4.95938 0.670034 4.02779 0.670034 2.97384C0.670034 2.40924 0.832441 1.89169 1.11672 1.44C2.73095 3.28438 5.15736 4.48886 7.87816 4.62063C7.82741 4.39478 7.79694 4.15955 7.79694 3.92429C7.79694 2.24927 9.25888 0.884811 11.0761 0.884811C12.0203 0.884811 12.8731 1.25181 13.4721 1.84465C14.2132 1.71291 14.9238 1.45882 15.5533 1.11066C15.3096 1.81643 14.7919 2.40927 14.1117 2.78565C14.7716 2.71981 15.4112 2.55039 16 2.31516C15.5534 2.91739 14.995 3.45374 14.3554 3.88664Z" fill="#EEEDED"/>
</svg>
