<svg width="16" height="17" viewBox="0 0 16 17" fill="none" xmlns="http://www.w3.org/2000/svg">
<path d="M14.1957 1.95105C13.7772 1.5841 12.0835 0.414251 8.30731 0.39857C8.30731 0.39857 3.85562 0.144528 1.68744 2.03886C0.481428 3.18676 0.0563589 4.87096 0.0102274 6.95661C-0.0359041 9.04226 -0.0919209 12.9501 3.8655 14.0102H3.8688L3.8655 15.6285C3.8655 15.6285 3.83914 16.284 4.29387 16.4157C4.84086 16.5788 5.16378 16.0802 5.6877 15.5438C5.97437 15.249 6.36979 14.8162 6.66964 14.4869C9.37822 14.7033 11.4574 14.2078 11.6947 14.1356C12.2417 13.9663 15.3358 13.5899 15.8366 9.68207C16.3573 5.64877 15.5862 3.10208 14.1957 1.95105ZM10.0735 6.85311C10.0867 7.12284 9.6616 7.14165 9.64842 6.87193C9.61217 6.18194 9.27277 5.84635 8.57421 5.80872C8.29083 5.79304 8.31719 5.38845 8.59728 5.40413C9.51661 5.45118 10.0274 5.95299 10.0735 6.85311ZM10.7424 7.20752C10.7753 5.87772 9.90214 4.83646 8.2447 4.72042C7.96462 4.7016 7.99427 4.29701 8.27436 4.31583C10.1855 4.44756 11.2037 5.69895 11.1675 7.21693C11.1642 7.48665 10.7358 7.4741 10.7424 7.20752ZM12.2911 7.62778C12.2944 7.89751 11.866 7.90064 11.866 7.63092C11.8463 5.07482 10.057 3.68229 7.88553 3.66661C7.60545 3.66348 7.60545 3.26203 7.88553 3.26203C10.314 3.27771 12.268 4.8741 12.2911 7.62778ZM11.9187 10.7045V10.7108C11.5629 11.3067 10.8973 11.9653 10.2119 11.7552L10.2053 11.7458C9.51002 11.5607 7.87235 10.7578 6.83769 9.97375C6.30388 9.5723 5.81621 9.09872 5.44057 8.64395C5.10117 8.23936 4.75848 7.75951 4.42567 7.18243C3.72381 5.97494 3.56894 5.4355 3.56894 5.4355C3.34817 4.78314 4.03685 4.14961 4.66621 3.81088H4.6728C4.97595 3.66034 5.26592 3.71052 5.46033 3.9332C5.46033 3.9332 5.86893 4.39738 6.04357 4.62633C6.20832 4.8396 6.4291 5.18146 6.54443 5.37277C6.74543 5.71463 6.62021 6.06276 6.42251 6.20703L6.02709 6.50812C5.82609 6.6618 5.85245 6.9472 5.85245 6.9472C5.85245 6.9472 6.43898 9.05794 8.63023 9.59112C8.63023 9.59112 8.93008 9.61621 9.09154 9.42489L9.40788 9.04854C9.55945 8.86036 9.92521 8.74118 10.2844 8.93249C10.7688 9.19281 11.3849 9.59739 11.7935 9.96434C12.0242 10.1431 12.0769 10.416 11.9187 10.7045Z" fill="#EEEDED"/>
</svg>
