<svg width="16" height="17" viewBox="0 0 16 17" fill="none" xmlns="http://www.w3.org/2000/svg">
<path d="M13.6036 2.97586C12.1071 1.47024 10.1143 0.642151 7.99643 0.642151C3.625 0.642151 0.0678571 4.21263 0.0678571 8.60044C0.0678571 10.0021 0.432143 11.3715 1.125 12.5796L0 16.7021L4.20357 15.5944C5.36071 16.2289 6.66429 16.5623 7.99286 16.5623H7.99643C12.3643 16.5623 16 12.9918 16 8.60402C16 6.47823 15.1 4.48149 13.6036 2.97586ZM7.99643 15.2216C6.81071 15.2216 5.65 14.9025 4.63929 14.3003L4.4 14.1569L1.90714 14.8129L2.57143 12.3717L2.41429 12.1207C1.75357 11.0668 1.40714 9.85154 1.40714 8.60044C1.40714 4.95468 4.36429 1.98646 8 1.98646C9.76071 1.98646 11.4143 2.67474 12.6571 3.92584C13.9 5.17694 14.6643 6.83671 14.6607 8.60402C14.6607 12.2534 11.6286 15.2216 7.99643 15.2216ZM11.6107 10.2674C11.4143 10.167 10.4393 9.68664 10.2571 9.62211C10.075 9.554 9.94286 9.52174 9.81071 9.72248C9.67857 9.92323 9.3 10.3678 9.18214 10.504C9.06786 10.6366 8.95 10.6545 8.75357 10.5542C7.58929 9.96984 6.825 9.51098 6.05714 8.18818C5.85357 7.83687 6.26071 7.86197 6.63929 7.10199C6.70357 6.96935 6.67143 6.85463 6.62143 6.75426C6.57143 6.65388 6.175 5.67523 6.01071 5.27732C5.85 4.89016 5.68571 4.94393 5.56429 4.93676C5.45 4.92959 5.31786 4.92959 5.18571 4.92959C5.05357 4.92959 4.83929 4.97978 4.65714 5.17694C4.475 5.37769 3.96429 5.85806 3.96429 6.83671C3.96429 7.81536 4.675 8.76175 4.77143 8.89439C4.87143 9.02703 6.16786 11.0345 8.15714 11.8985C9.41429 12.4434 9.90714 12.49 10.5357 12.3968C10.9179 12.3394 11.7071 11.9164 11.8714 11.4504C12.0357 10.9843 12.0357 10.5864 11.9857 10.504C11.9393 10.4144 11.8071 10.3642 11.6107 10.2674Z" fill="#EEEDED"/>
</svg>
