<svg width="27" height="12" viewBox="0 0 27 12" fill="none" xmlns="http://www.w3.org/2000/svg">
<path d="M19.396 0.299792C15.2306 3.04078 11.2788 5.94969 7.55199 9.00043C6.10032 7.99166 4.61986 7.00588 3.11244 6.04044C4.47795 4.88152 5.87765 3.73507 7.30534 2.61384C7.98696 3.06762 8.66345 3.52697 9.3328 3.98916C8.40698 4.70331 7.49508 5.42736 6.59631 6.15681C7.13218 6.51734 7.66326 6.88106 8.19225 7.24592C9.59986 6.12751 11.0374 5.02778 12.5068 3.94945C10.783 2.7073 9.01935 1.49087 7.2146 0.309739C4.71835 2.24514 2.31298 4.23867 -0.000817196 6.28555C2.62932 7.89236 5.17665 9.56673 7.64012 11.3027C11.3103 8.2551 15.2029 5.34752 19.3098 2.60307C20.7413 3.724 22.1402 4.86394 23.5096 6.02237C22.003 6.9872 20.5231 7.97902 19.0738 8.98862C18.4531 8.48204 17.825 7.98067 17.1915 7.48338C18.1268 6.81947 19.0734 6.16362 20.032 5.52033C19.5278 5.11381 19.0186 4.70897 18.5063 4.30855C17.0064 5.32566 15.5367 6.36683 14.0941 7.42871C15.7669 8.68855 17.3986 9.97979 18.988 11.2949C21.4484 9.55277 23.9931 7.8746 26.6198 6.26544C24.3041 4.22082 21.8976 2.22891 19.396 0.299792Z" fill="#9B6826" fill-opacity="0.5"/>
</svg>
