<svg width="27" height="85" viewBox="0 0 27 85" fill="none" xmlns="http://www.w3.org/2000/svg">
<path d="M7.45217 64.6795C10.2504 69.0055 13.22 73.1098 16.3344 76.9803C15.3046 78.4879 14.2982 80.0255 13.3127 81.5911C12.1295 80.1729 10.9592 78.7192 9.81452 77.2365C10.2778 76.5286 10.7467 75.826 11.2185 75.1308C11.9476 76.0923 12.6868 77.0394 13.4315 77.9728C13.7995 77.4163 14.1708 76.8647 14.5433 76.3153C13.4015 74.8535 12.2789 73.3605 11.178 71.8344C9.90993 73.6247 8.66811 75.4563 7.46232 77.3307C9.43812 79.9232 11.4733 82.4213 13.5629 84.8244C15.2032 82.0928 16.9126 79.4472 18.6847 76.8888C15.5735 73.0771 12.6053 69.0343 9.80352 64.7691C10.9479 63.2824 12.1116 61.8295 13.2942 60.4073C14.2792 61.972 15.2917 63.509 16.3224 65.0142C15.8052 65.6588 15.2934 66.3111 14.7857 66.9691C14.1079 65.9977 13.4384 65.0146 12.7817 64.019C12.3667 64.5426 11.9534 65.0715 11.5446 65.6035C12.5829 67.1613 13.6459 68.6877 14.7299 70.1859C16.016 68.4486 17.3342 66.7539 18.6768 65.1032C16.8983 62.548 15.1851 59.9052 13.5423 57.1771C11.455 59.5822 9.42156 62.0815 7.45217 64.6795Z" fill="#9B6826" fill-opacity="0.25"/>
<path d="M7.45217 36.2884C10.2504 40.6144 13.22 44.7187 16.3344 48.5892C15.3046 50.0968 14.2982 51.6344 13.3127 53.1999C12.1295 51.7818 10.9592 50.3281 9.81452 48.8453C10.2778 48.1374 10.7467 47.4349 11.2185 46.7397C11.9476 47.7012 12.6868 48.6483 13.4315 49.5817C13.7995 49.0252 14.1708 48.4736 14.5433 47.9242C13.4015 46.4623 12.2789 44.9694 11.178 43.4433C9.90993 45.2336 8.66811 47.0652 7.46232 48.9396C9.43812 51.5321 11.4733 54.0302 13.5629 56.4333C15.2032 53.7017 16.9126 51.0561 18.6847 48.4977C15.5735 44.6859 12.6053 40.6432 9.80352 36.3779C10.9479 34.8913 12.1116 33.4384 13.2942 32.0162C14.2792 33.5809 15.2917 35.1179 16.3224 36.6231C15.8052 37.2677 15.2934 37.92 14.7857 38.578C14.1079 37.6066 13.4384 36.6235 12.7817 35.6278C12.3667 36.1515 11.9534 36.6804 11.5446 37.2124C12.5829 38.7701 13.6459 40.2966 14.7299 41.7948C16.016 40.0575 17.3342 38.3628 18.6768 36.7121C16.8983 34.1568 15.1851 31.5141 13.5423 28.786C11.455 31.1911 9.42156 33.6904 7.45217 36.2884Z" fill="#9B6826" fill-opacity="0.25"/>
<path d="M7.45217 7.89726C10.2504 12.2233 13.22 16.3276 16.3344 20.1981C15.3046 21.7057 14.2982 23.2433 13.3127 24.8088C12.1295 23.3907 10.9592 21.937 9.81452 20.4542C10.2778 19.7463 10.7467 19.0437 11.2185 18.3486C11.9476 19.3101 12.6868 20.2572 13.4315 21.1906C13.7995 20.6341 14.1708 20.0825 14.5433 19.5331C13.4015 18.0712 12.2789 16.5783 11.178 15.0522C9.90993 16.8425 8.66811 18.6741 7.46232 20.5485C9.43812 23.141 11.4733 25.6391 13.5629 28.0422C15.2032 25.3106 16.9126 22.665 18.6847 20.1065C15.5735 16.2948 12.6053 12.2521 9.80352 7.98683C10.9479 6.50015 12.1116 5.04725 13.2942 3.62506C14.2792 5.18981 15.2917 6.72674 16.3224 8.23197C15.8052 8.87655 15.2934 9.5289 14.7857 10.1868C14.1079 9.21549 13.4384 8.23239 12.7817 7.23673C12.3667 7.76038 11.9534 8.28927 11.5446 8.82132C12.5829 10.379 13.6459 11.9055 14.7299 13.4037C16.016 11.6664 17.3342 9.97169 18.6768 8.321C16.8983 5.76573 15.1851 3.12294 13.5423 0.394891C11.455 2.79996 9.42156 5.29924 7.45217 7.89726Z" fill="#9B6826" fill-opacity="0.25"/>
</svg>
