<svg width="50" height="51" viewBox="0 0 50 51" fill="none" xmlns="http://www.w3.org/2000/svg">
<path d="M25.0002 46.6929C36.7994 46.6929 46.3646 37.0918 46.3646 25.2483C46.3646 13.4048 36.7994 3.80371 25.0002 3.80371C13.2009 3.80371 3.63574 13.4048 3.63574 25.2483C3.63574 37.0918 13.2009 46.6929 25.0002 46.6929Z" fill="#FEFEFE" stroke="black" stroke-width="1.41108" stroke-miterlimit="22.9256"/>
<path d="M24.9999 45.4561C36.1186 45.4561 45.1321 36.4088 45.1321 25.2484C45.1321 14.088 36.1186 5.04077 24.9999 5.04077C13.8812 5.04077 4.86768 14.088 4.86768 25.2484C4.86768 36.4088 13.8812 45.4561 24.9999 45.4561Z" fill="url(#paint0_linear)" stroke="#919191" stroke-width="0.199938" stroke-miterlimit="22.9256"/>
<path d="M25.0002 41.6724C34.0372 41.6724 41.3632 34.319 41.3632 25.2482C41.3632 16.1773 34.0372 8.82397 25.0002 8.82397C15.9632 8.82397 8.63721 16.1773 8.63721 25.2482C8.63721 34.319 15.9632 41.6724 25.0002 41.6724Z" fill="#FEFEFE"/>
<path fill-rule="evenodd" clip-rule="evenodd" d="M25.0001 8.7688C29.5336 8.7688 33.6382 10.6134 36.6093 13.5955C39.5803 16.5777 41.418 20.6976 41.418 25.2482C41.418 29.7986 39.5803 33.9187 36.6093 36.9008C33.6382 39.883 29.5337 41.7275 25.0001 41.7275C20.4667 41.7275 16.362 39.883 13.391 36.9008C10.42 33.9187 8.58228 29.7986 8.58228 25.2482C8.58228 20.6976 10.42 16.5777 13.391 13.5955C16.362 10.6134 20.4667 8.7688 25.0001 8.7688ZM36.5318 13.6732C33.5806 10.711 29.5035 8.87875 25.0001 8.87875C20.4968 8.87875 16.4196 10.711 13.4685 13.6732C10.5174 16.6353 8.69198 20.7278 8.69198 25.248C8.69198 29.7682 10.5174 33.8607 13.4685 36.8229C16.4196 39.785 20.4968 41.6173 25.0001 41.6173C29.5035 41.6173 33.5806 39.785 36.5318 36.8229C39.4829 33.8607 41.3083 29.7682 41.3083 25.248C41.3083 20.7278 39.4829 16.6353 36.5318 13.6732Z" fill="#919191"/>
<path d="M25.0001 40.8723C33.5968 40.8723 40.5658 33.8771 40.5658 25.2482C40.5658 16.6192 33.5968 9.62402 25.0001 9.62402C16.4033 9.62402 9.43433 16.6192 9.43433 25.2482C9.43433 33.8771 16.4033 40.8723 25.0001 40.8723Z" fill="black" stroke="black" stroke-width="0.199938" stroke-miterlimit="22.9256"/>
<path fill-rule="evenodd" clip-rule="evenodd" d="M7.99487 35.0884L25.0001 4.80884L41.9709 34.8525L7.99487 35.0884Z" fill="#FEFEFE" stroke="black" stroke-width="1.05816" stroke-miterlimit="22.9256"/>
<path fill-rule="evenodd" clip-rule="evenodd" d="M9.58691 33.8665L25.0001 6.5L40.4095 33.8601L9.58691 33.8665Z" fill="#FEFEFE" stroke="black" stroke-width="0.52923" stroke-miterlimit="22.9256"/>
<path fill-rule="evenodd" clip-rule="evenodd" d="M23.5952 43.6365L24.9999 23.2322L26.4048 43.6365H23.5952Z" fill="black"/>
<path fill-rule="evenodd" clip-rule="evenodd" d="M28.9044 43.3059L25 23.2322L31.6183 42.576L28.9044 43.3059Z" fill="black"/>
<path fill-rule="evenodd" clip-rule="evenodd" d="M33.9475 41.6077L25 23.2322L36.3805 40.1975L33.9475 41.6077Z" fill="black"/>
<path fill-rule="evenodd" clip-rule="evenodd" d="M38.3809 38.6572L25 23.2322L40.3674 36.6632L38.3809 38.6572Z" fill="black"/>
<path fill-rule="evenodd" clip-rule="evenodd" d="M41.9022 34.6558L25 23.2322L43.307 32.2134L41.9022 34.6558Z" fill="black"/>
<path fill-rule="evenodd" clip-rule="evenodd" d="M44.2717 29.8752L25 23.2322L44.9989 27.1513L44.2717 29.8752Z" fill="black"/>
<path fill-rule="evenodd" clip-rule="evenodd" d="M45.328 24.6421L25 23.2321L45.328 21.822V24.6421Z" fill="black"/>
<path fill-rule="evenodd" clip-rule="evenodd" d="M44.9989 19.3133L25 23.2322L44.2717 16.5894L44.9989 19.3133Z" fill="black"/>
<path fill-rule="evenodd" clip-rule="evenodd" d="M43.307 14.2512L25 23.2324L41.9022 11.8091L43.307 14.2512Z" fill="black"/>
<path fill-rule="evenodd" clip-rule="evenodd" d="M40.3674 9.80135L25 23.2322L38.3809 7.80737L40.3674 9.80135Z" fill="black"/>
<path fill-rule="evenodd" clip-rule="evenodd" d="M36.3806 6.26658L25 23.2324L33.9475 4.85645L36.3806 6.26658Z" fill="black"/>
<path fill-rule="evenodd" clip-rule="evenodd" d="M31.6183 3.88714L25 23.2314L28.9045 3.15723L31.6183 3.88714Z" fill="black"/>
<path fill-rule="evenodd" clip-rule="evenodd" d="M26.405 2.82812L25.0002 23.2324L23.5955 2.82812H26.405Z" fill="black"/>
<path fill-rule="evenodd" clip-rule="evenodd" d="M21.0958 3.15723L25.0001 23.2314L18.3821 3.88714L21.0958 3.15723Z" fill="black"/>
<path fill-rule="evenodd" clip-rule="evenodd" d="M16.0528 4.85645L25.0001 23.2324L13.6196 6.26658L16.0528 4.85645Z" fill="black"/>
<path fill-rule="evenodd" clip-rule="evenodd" d="M11.6191 7.80737L24.9998 23.2322L9.63257 9.80135L11.6191 7.80737Z" fill="black"/>
<path fill-rule="evenodd" clip-rule="evenodd" d="M8.09795 11.8088L24.9999 23.2322L6.69312 14.2511L8.09795 11.8088Z" fill="black"/>
<path fill-rule="evenodd" clip-rule="evenodd" d="M5.72865 16.5894L25.0002 23.2322L5.00146 19.3132L5.72865 16.5894Z" fill="black"/>
<path fill-rule="evenodd" clip-rule="evenodd" d="M4.67212 21.822L25 23.2321L4.67212 24.6421V21.822Z" fill="black"/>
<path fill-rule="evenodd" clip-rule="evenodd" d="M5.00146 27.1513L25.0002 23.2322L5.72865 29.8752L5.00146 27.1513Z" fill="black"/>
<path fill-rule="evenodd" clip-rule="evenodd" d="M6.69312 32.2134L24.9999 23.2322L8.09779 34.6558L6.69312 32.2134Z" fill="black"/>
<path fill-rule="evenodd" clip-rule="evenodd" d="M9.63257 36.6632L24.9998 23.2322L11.6191 38.6572L9.63257 36.6632Z" fill="black"/>
<path fill-rule="evenodd" clip-rule="evenodd" d="M13.6196 40.1975L25.0001 23.2322L16.0528 41.6077L13.6196 40.1975Z" fill="black"/>
<path fill-rule="evenodd" clip-rule="evenodd" d="M18.3818 42.576L24.9999 23.2322L21.0956 43.3059L18.3818 42.576Z" fill="black"/>
<path fill-rule="evenodd" clip-rule="evenodd" d="M23.5952 43.6365L24.9999 23.2322L26.4048 43.6365H23.5952Z" fill="black"/>
<path fill-rule="evenodd" clip-rule="evenodd" d="M28.9044 43.3059L25 23.2322L31.6183 42.576L28.9044 43.3059Z" fill="black"/>
<path fill-rule="evenodd" clip-rule="evenodd" d="M10.4971 33.3186L25.0001 7.76221L39.5031 33.3186H10.4971Z" stroke="black" stroke-width="0.264615" stroke-miterlimit="22.9256"/>
<path fill-rule="evenodd" clip-rule="evenodd" d="M19.7223 21.1519C22.0642 20.2841 20.3917 20.7335 22.5422 19.3542C23.9322 18.4627 27.1831 18.7354 28.7009 19.7679C30.4993 20.9909 30.5661 21.0632 31.7232 22.8337C31.729 22.8426 33.9028 24.0102 32.4993 24.7104C32.4172 24.7513 31.797 25.496 30.4959 26.102C28.8334 26.8761 27.0941 27.7471 25.2299 27.7011C21.861 27.6181 23.5647 27.6651 20.7359 26.4036C20.1515 26.1429 18.0573 25.6037 17.9541 24.6945C17.9529 24.6854 16.4889 23.5689 17.624 22.8483C17.6688 22.3315 19.2159 21.3398 19.7223 21.152V21.1519Z" fill="black"/>
<path fill-rule="evenodd" clip-rule="evenodd" d="M25.8399 28.1375C22.7817 28.8148 19.3886 25.7623 18.6145 26.0629L20.2849 26.869C21.0469 27.3265 20.9569 27.3642 21.8208 27.813C25.1027 29.5179 29.2394 27.9806 31.9312 25.7464C31.9397 25.7392 32.9561 24.7909 32.4892 25.0491C32.0278 25.3043 31.7977 25.7253 31.2323 25.8653C31.5681 25.4474 31.8862 25.4342 32.0441 25.0131C31.8994 25.0183 31.7897 24.9668 31.691 25.0317C31.091 25.4269 30.7051 26.1089 28.8061 26.6668C27.5797 27.027 25.7618 27.1726 24.3914 27.0573C21.9763 26.8537 20.3493 25.6843 18.9289 25.2229C18.1553 24.9716 17.6958 25.2111 16.9637 24.7267C16.7679 22.9845 18.7416 22.467 20.1607 21.7118C23.9791 19.6797 25.5 18.9126 29.5305 21.2183C30.4638 21.7522 32.1702 23.7748 33.259 23.7623C33.5769 22.3187 32.2988 21.8967 30.9407 20.9424C30.0391 20.3089 28.83 19.3632 27.6483 18.961C23.4417 17.5296 21.0993 19.8105 18.3571 21.8711L16.9565 23.0579C14.1993 25.8801 17.8694 25.1665 19.8414 26.1661C21.7823 27.1498 22.8749 28.015 25.2203 28.0046C25.9055 28.0016 25.6652 27.9551 25.8401 28.1373L25.8399 28.1375Z" stroke="black" stroke-width="1.36501" stroke-miterlimit="22.9256"/>
<path fill-rule="evenodd" clip-rule="evenodd" d="M25.8399 28.1375C22.7817 28.8148 19.3886 25.7623 18.6145 26.0629L20.2849 26.869C21.0469 27.3265 20.9569 27.3642 21.8208 27.813C25.1027 29.5179 29.2394 27.9806 31.9312 25.7464C31.9397 25.7392 32.9561 24.7909 32.4892 25.0491C32.0278 25.3043 31.7977 25.7253 31.2323 25.8653C31.5681 25.4474 31.8862 25.4342 32.0441 25.0131C31.8994 25.0183 31.7897 24.9668 31.691 25.0317C31.091 25.4269 30.7051 26.1089 28.8061 26.6668C27.5797 27.027 25.7618 27.1726 24.3914 27.0573C21.9763 26.8537 20.3493 25.6843 18.9289 25.2229C18.1553 24.9716 17.6958 25.2111 16.9637 24.7267C16.7679 22.9845 18.7416 22.467 20.1607 21.7118C23.9791 19.6797 25.5 18.9126 29.5305 21.2183C30.4639 21.7522 32.1702 23.7748 33.259 23.7623C33.5769 22.3187 32.2988 21.8967 30.9407 20.9424C30.0391 20.3089 28.83 19.3632 27.6483 18.961C23.4417 17.5296 21.0993 19.8105 18.3571 21.8711L16.9565 23.0579C14.1993 25.8801 17.8694 25.1665 19.8414 26.1661C21.7823 27.1498 22.8749 28.015 25.2203 28.0046C25.9055 28.0016 25.6652 27.9551 25.8401 28.1373L25.8399 28.1375Z" fill="url(#paint1_radial)"/>
<path fill-rule="evenodd" clip-rule="evenodd" d="M21.6129 21.4798C20.0235 22.3577 21.0082 24.5839 21.2699 24.7085C20.2112 24.3691 20.329 22.6994 20.4272 22.0884C19.8646 22.6641 20.0555 23.8337 20.2547 24.4368C19.7427 24.1677 19.6343 22.9039 19.8259 22.4563C19.344 22.6944 19.4532 23.5365 19.4837 24.0134C19.1295 23.7943 19.1419 23.5519 19.0597 23.2531C18.9597 23.5398 19.0362 23.5516 19.0262 23.8802C19.0162 24.2044 18.9443 24.3996 18.8896 24.6109C19.1599 24.8651 21.461 25.887 21.9967 26.0813C23.1442 26.4972 24.7063 26.6095 26.0477 26.6309C27.8732 26.6602 30.5792 25.9934 31.8455 24.4137C31.9415 24.2115 31.9554 24.1454 31.9378 23.6661C31.809 23.7592 31.8648 24.1555 31.3156 24.4215C31.4583 24.1079 31.6066 23.7218 31.3179 23.2683C31.232 23.8399 31.1802 24.2797 30.7014 24.5156C30.8674 24.1696 31.2315 23.3268 30.6978 22.7044C30.5574 23.4001 30.4255 24.4219 29.7986 24.5857C30.1896 23.9442 30.519 22.8235 29.7388 21.8337C29.8711 22.7863 29.5904 24.4256 28.9423 24.8144C29.1391 24.2253 30.1206 22.4156 28.7825 21.2329C30.6947 27.8182 20.1453 28.0615 21.6131 21.4798H21.6129Z" fill="#FAFAFA"/>
<path fill-rule="evenodd" clip-rule="evenodd" d="M18.2607 21.1506C18.2863 21.4132 18.3377 21.3756 18.5989 21.2598C19.8827 20.691 21.3782 18.6609 23.9249 18.2593C26.1649 17.9062 27.8807 18.2045 30.2009 19.9234C30.7622 20.3392 31.1666 20.8167 31.5078 20.7329C31.6575 20.6207 31.7083 20.5529 31.6669 20.4175C31.197 18.8799 25.9584 16.8953 23.8715 17.2281C21.0735 17.6723 19.6199 20.131 18.5505 20.7888C18.3415 20.9174 18.2361 20.8977 18.2609 21.1505L18.2607 21.1506Z" stroke="black" stroke-width="1.36501" stroke-miterlimit="22.9256"/>
<path fill-rule="evenodd" clip-rule="evenodd" d="M17.292 24.2998C17.4829 24.5249 17.7402 24.6075 18.0686 24.6373C18.3576 24.6638 18.4473 24.612 18.5874 24.2823C18.7535 23.891 18.7963 23.6854 18.7259 22.9263C18.0851 23.0596 17.3844 23.6776 17.2922 24.2998H17.292Z" stroke="black" stroke-width="1.36501" stroke-miterlimit="22.9256"/>
<path fill-rule="evenodd" clip-rule="evenodd" d="M17.292 24.2998C17.4829 24.5249 17.7402 24.6075 18.0686 24.6373C18.3576 24.6638 18.4473 24.612 18.5874 24.2823C18.7535 23.891 18.7963 23.6854 18.7259 22.9263C18.0851 23.0596 17.3844 23.6776 17.2922 24.2998H17.292Z" fill="#FAFAFA"/>
<path fill-rule="evenodd" clip-rule="evenodd" d="M28.6257 22.4002C28.555 24.3292 27.0406 25.8704 25.1824 25.8704C23.2792 25.8704 21.7363 24.2537 21.7363 22.2594C21.7363 22.0578 21.7523 21.8602 21.7826 21.6675C22.3617 21.6065 22.9672 21.574 23.5905 21.574C25.5287 21.574 27.2948 21.8868 28.6256 22.4002H28.6257Z" stroke="black" stroke-width="1.36501" stroke-miterlimit="22.9256"/>
<path fill-rule="evenodd" clip-rule="evenodd" d="M28.6257 22.4002C28.555 24.3292 27.0406 25.8704 25.1824 25.8704C23.2792 25.8704 21.7363 24.2537 21.7363 22.2594C21.7363 22.0578 21.7523 21.8602 21.7826 21.6675C22.3617 21.6065 22.9672 21.574 23.5905 21.574C25.5287 21.574 27.2948 21.8868 28.6256 22.4002H28.6257Z" fill="url(#paint2_radial)"/>
<path fill-rule="evenodd" clip-rule="evenodd" d="M25.3082 21.6953V22.3388C25.3082 22.417 25.2445 22.4812 25.1663 22.4812C25.0883 22.4812 25.0244 22.4172 25.0244 22.3388V21.6694C25.1196 21.6772 25.2142 21.686 25.3081 21.6953H25.3082Z" fill="#2B2A29"/>
<path fill-rule="evenodd" clip-rule="evenodd" d="M25.0983 21.6758L25.2668 22.3066C25.287 22.3823 25.2419 22.4607 25.1665 22.481C25.0911 22.5013 25.0129 22.456 24.9927 22.3803L24.7983 21.6526C24.899 21.6596 24.999 21.6672 25.0983 21.6758Z" fill="#2B2A29"/>
<path fill-rule="evenodd" clip-rule="evenodd" d="M24.8562 21.6568L25.2186 22.2868C25.2576 22.3546 25.2343 22.4421 25.1667 22.4813C25.0991 22.5204 25.0118 22.497 24.9728 22.4292L24.5164 21.636C24.6304 21.6418 24.7437 21.6488 24.856 21.6569L24.8562 21.6568Z" fill="#2B2A29"/>
<path fill-rule="evenodd" clip-rule="evenodd" d="M24.5253 21.6362L25.1667 22.28C25.2219 22.3354 25.2219 22.426 25.1667 22.4814C25.1116 22.5368 25.0213 22.5368 24.9661 22.4814L24.1074 21.6196C24.2479 21.6235 24.3871 21.629 24.5253 21.6364V21.6362Z" fill="#2B2A29"/>
<path fill-rule="evenodd" clip-rule="evenodd" d="M23.9569 21.6161L25.1143 22.287C25.182 22.3262 25.2053 22.4137 25.1663 22.4816C25.1273 22.5495 25.0401 22.5729 24.9724 22.5338L23.3867 21.6147C23.4654 21.6135 23.5443 21.613 23.6236 21.613C23.7353 21.613 23.8464 21.6142 23.9569 21.6163V21.6161Z" fill="#2B2A29"/>
<path fill-rule="evenodd" clip-rule="evenodd" d="M22.4541 21.7518C22.4743 21.6761 22.5524 21.6308 22.6278 21.6511L25.0662 22.3069C25.1416 22.3272 25.1868 22.4057 25.1666 22.4814C25.1463 22.5571 25.0682 22.6024 24.9928 22.5821L22.5544 21.9262C22.479 21.9059 22.4338 21.8275 22.4541 21.7518Z" fill="black"/>
<path fill-rule="evenodd" clip-rule="evenodd" d="M22.3584 22.4816C22.3584 22.4033 22.4222 22.3391 22.5001 22.3391H25.0245C25.1025 22.3391 25.1664 22.4031 25.1664 22.4816C25.1664 22.5599 25.1026 22.624 25.0245 22.624H22.5001C22.4222 22.624 22.3584 22.56 22.3584 22.4816Z" fill="black"/>
<path fill-rule="evenodd" clip-rule="evenodd" d="M22.4541 23.211C22.4338 23.1353 22.479 23.0568 22.5544 23.0365L24.9928 22.3806C25.0682 22.3603 25.1463 22.4056 25.1666 22.4813C25.1868 22.557 25.1416 22.6355 25.0662 22.6556L22.6278 23.3116C22.5524 23.3319 22.4743 23.2865 22.4541 23.2108V23.211Z" fill="black"/>
<path fill-rule="evenodd" clip-rule="evenodd" d="M22.7347 23.8907C22.6957 23.8228 22.719 23.7353 22.7867 23.6962L24.9729 22.4294C25.0406 22.3902 25.1278 22.4136 25.1668 22.4815C25.2058 22.5494 25.1825 22.6368 25.1148 22.6759L22.9286 23.9427C22.8609 23.9818 22.7739 23.9585 22.7349 23.8906L22.7347 23.8907Z" fill="black"/>
<path fill-rule="evenodd" clip-rule="evenodd" d="M23.181 24.4746C23.1259 24.4192 23.1259 24.3286 23.181 24.2732L24.966 22.4817C25.0212 22.4263 25.1114 22.4263 25.1666 22.4817C25.2218 22.5371 25.2218 22.6277 25.1666 22.6831L23.3817 24.4746C23.3265 24.53 23.2362 24.53 23.181 24.4746Z" fill="black"/>
<path fill-rule="evenodd" clip-rule="evenodd" d="M23.7625 24.9227C23.6949 24.8835 23.6716 24.796 23.7105 24.7282L24.9726 22.5335C25.0116 22.4657 25.0988 22.4422 25.1665 22.4813C25.2341 22.5205 25.2574 22.608 25.2184 22.6758L23.9563 24.8705C23.9173 24.9384 23.8301 24.9618 23.7625 24.9227Z" fill="black"/>
<path fill-rule="evenodd" clip-rule="evenodd" d="M24.4396 25.2041C24.3642 25.1838 24.3191 25.1054 24.3393 25.0297L24.9927 22.5821C25.0129 22.5064 25.0911 22.4611 25.1665 22.4814C25.2419 22.5017 25.287 22.5802 25.2668 22.6559L24.6134 25.1034C24.5932 25.1791 24.515 25.2244 24.4398 25.2041H24.4396Z" fill="black"/>
<path fill-rule="evenodd" clip-rule="evenodd" d="M25.1663 25.3C25.0883 25.3 25.0244 25.2361 25.0244 25.1576V22.6236C25.0244 22.5454 25.0882 22.4812 25.1663 22.4812C25.2443 22.4812 25.3082 22.5452 25.3082 22.6236V25.1576C25.3082 25.2359 25.2445 25.3 25.1663 25.3Z" fill="black"/>
<path fill-rule="evenodd" clip-rule="evenodd" d="M25.8931 25.2041C25.8176 25.2244 25.7395 25.1791 25.7193 25.1034L25.0659 22.6559C25.0456 22.5802 25.0908 22.5017 25.1662 22.4814C25.2416 22.4611 25.3198 22.5064 25.3398 22.5821L25.9932 25.0297C26.0134 25.1054 25.9683 25.1838 25.8929 25.2041H25.8931Z" fill="black"/>
<path fill-rule="evenodd" clip-rule="evenodd" d="M26.5706 24.9227C26.5029 24.9618 26.4157 24.9384 26.3767 24.8705L25.1146 22.6758C25.0756 22.6079 25.0989 22.5205 25.1665 22.4814C25.2342 22.4422 25.3212 22.4656 25.3602 22.5335L26.6223 24.7282C26.6613 24.796 26.638 24.8835 26.5704 24.9227H26.5706Z" fill="black"/>
<path fill-rule="evenodd" clip-rule="evenodd" d="M27.1519 24.4746C27.0967 24.53 27.0064 24.53 26.9512 24.4746L25.1664 22.6831C25.1112 22.6277 25.1112 22.5371 25.1664 22.4817C25.2216 22.4263 25.3118 22.4263 25.367 22.4817L27.1519 24.2732C27.207 24.3286 27.207 24.4192 27.1519 24.4746Z" fill="black"/>
<path fill-rule="evenodd" clip-rule="evenodd" d="M27.5984 23.8908C27.5594 23.9587 27.4722 23.9821 27.4047 23.9429L25.2185 22.6762C25.1509 22.637 25.1276 22.5495 25.1666 22.4817C25.2056 22.4139 25.2928 22.3905 25.3603 22.4296L27.5465 23.6964C27.6141 23.7355 27.6374 23.8231 27.5984 23.891V23.8908Z" fill="black"/>
<path fill-rule="evenodd" clip-rule="evenodd" d="M27.8788 23.2111C27.8586 23.2868 27.7805 23.3321 27.7051 23.3118L25.2668 22.6558C25.1914 22.6355 25.1462 22.5571 25.1665 22.4815C25.1867 22.4058 25.2648 22.3605 25.3402 22.3808L27.7785 23.0368C27.8539 23.0571 27.8991 23.1355 27.8788 23.2111Z" fill="black"/>
<path fill-rule="evenodd" clip-rule="evenodd" d="M27.9745 22.4816C27.9745 22.5599 27.9107 22.624 27.8326 22.624H25.3082C25.2302 22.624 25.1663 22.56 25.1663 22.4816C25.1663 22.4033 25.23 22.3391 25.3082 22.3391H27.8326C27.9106 22.3391 27.9745 22.4031 27.9745 22.4816Z" fill="black"/>
<path fill-rule="evenodd" clip-rule="evenodd" d="M27.3442 22.0431L25.3402 22.5823C25.2648 22.6026 25.1867 22.5573 25.1665 22.4816C25.1462 22.4059 25.1914 22.3274 25.2668 22.3071L26.7472 21.9089C26.9515 21.9499 27.1507 21.9947 27.3442 22.0431Z" fill="#2B2A29"/>
<path fill-rule="evenodd" clip-rule="evenodd" d="M26.5148 21.8648L25.3603 22.5338C25.2927 22.5729 25.2056 22.5495 25.1666 22.4816C25.1276 22.4138 25.1509 22.3262 25.2185 22.2871L26.074 21.7913C26.2232 21.8137 26.3701 21.8382 26.5148 21.8645V21.8648Z" fill="#2B2A29"/>
<path fill-rule="evenodd" clip-rule="evenodd" d="M26.0571 21.7881L25.367 22.4809C25.3118 22.5363 25.2216 22.5363 25.1664 22.4809C25.1112 22.4255 25.1112 22.3349 25.1664 22.2795L25.7042 21.7395C25.8232 21.7544 25.9408 21.7705 26.0571 21.7879V21.7881Z" fill="#2B2A29"/>
<path fill-rule="evenodd" clip-rule="evenodd" d="M25.7531 21.7459L25.3602 22.4289C25.3212 22.4968 25.234 22.5202 25.1665 22.481C25.0989 22.4419 25.0756 22.3543 25.1146 22.2864L25.4464 21.7095C25.5495 21.7207 25.6518 21.7327 25.7531 21.7457V21.7459Z" fill="#2B2A29"/>
<path fill-rule="evenodd" clip-rule="evenodd" d="M25.5168 21.7175L25.3398 22.3805C25.3196 22.4562 25.2414 22.5015 25.1662 22.4812C25.0908 22.4609 25.0456 22.3825 25.0659 22.3068L25.2311 21.6877C25.327 21.6968 25.4223 21.7068 25.5168 21.7175Z" fill="#2B2A29"/>
<path fill-rule="evenodd" clip-rule="evenodd" d="M25.3082 21.6953V22.3388C25.3082 22.417 25.2445 22.4812 25.1663 22.4812C25.0883 22.4812 25.0244 22.4172 25.0244 22.3388V21.6694C25.1196 21.6772 25.2142 21.686 25.3081 21.6953H25.3082Z" fill="#2B2A29"/>
<path fill-rule="evenodd" clip-rule="evenodd" d="M25.0983 21.6758L25.2668 22.3066C25.287 22.3823 25.2419 22.4607 25.1665 22.481C25.0911 22.5013 25.0129 22.456 24.9927 22.3803L24.7983 21.6526C24.899 21.6596 24.999 21.6672 25.0983 21.6758Z" fill="#2B2A29"/>
<path fill-rule="evenodd" clip-rule="evenodd" d="M26.9023 21.8362C26.9875 22.0522 27.0341 22.2875 27.0341 22.5338C27.0341 23.5829 26.1866 24.4333 25.1417 24.4333C24.0965 24.4333 23.2493 23.5829 23.2493 22.5338C23.2493 22.1568 23.3588 21.8055 23.5475 21.51H23.5531C24.754 21.51 25.8902 21.6273 26.9023 21.8363V21.8362Z" stroke="black" stroke-width="1.36501" stroke-miterlimit="22.9256"/>
<path fill-rule="evenodd" clip-rule="evenodd" d="M26.9023 21.8362C26.9875 22.0522 27.0341 22.2875 27.0341 22.5338C27.0341 23.5829 26.1866 24.4333 25.1417 24.4333C24.0965 24.4333 23.2493 23.5829 23.2493 22.5338C23.2493 22.1568 23.3588 21.8055 23.5475 21.51H23.5531C24.754 21.51 25.8902 21.6273 26.9023 21.8363V21.8362Z" fill="black"/>
<path fill-rule="evenodd" clip-rule="evenodd" d="M26.8296 20.9275C27.2747 20.9275 27.6357 21.2897 27.6357 21.7367C27.6357 22.1837 27.2749 22.5459 26.8296 22.5459C26.3843 22.5459 26.0234 22.1837 26.0234 21.7367C26.0234 21.2899 26.3843 20.9275 26.8296 20.9275Z" stroke="black" stroke-width="1.36501" stroke-miterlimit="22.9256"/>
<path fill-rule="evenodd" clip-rule="evenodd" d="M26.8296 20.9275C27.2747 20.9275 27.6357 21.2897 27.6357 21.7367C27.6357 22.1837 27.2749 22.5459 26.8296 22.5459C26.3843 22.5459 26.0234 22.1837 26.0234 21.7367C26.0234 21.2899 26.3843 20.9275 26.8296 20.9275Z" fill="#FEFEFE"/>
<path d="M10.6157 16.619L10.3246 17.1313L8.09155 15.8529L8.81938 14.5721L9.29786 14.8461L8.86113 15.6145L10.6157 16.619ZM10.9702 14.5182L11.6584 15.059L11.2961 15.5235L9.27197 13.933C9.34139 13.844 9.41663 13.7456 9.4977 13.6376C9.58022 13.5276 9.66452 13.4176 9.75061 13.3074C9.97391 13.021 10.2006 12.862 10.4304 12.8303C10.655 12.7977 10.8655 12.8584 11.0621 13.0131C11.2511 13.1615 11.3585 13.3567 11.3843 13.5986C11.4082 13.839 11.3318 14.0723 11.1553 14.2988C11.0768 14.3995 11.015 14.4725 10.97 14.5183L10.9702 14.5182ZM10.2207 13.6015C10.2192 13.6034 10.2129 13.6125 10.2017 13.6288C10.1906 13.645 10.1728 13.67 10.148 13.7037C10.1233 13.7373 10.0966 13.7725 10.0679 13.8092L10.5307 14.1727C10.6037 14.099 10.6635 14.0322 10.7105 13.9723C10.7724 13.8929 10.8025 13.8113 10.8011 13.7275C10.7996 13.6437 10.7574 13.5692 10.6746 13.504C10.5184 13.3814 10.3671 13.4139 10.2208 13.6015H10.2207ZM12.0231 10.8526L12.4483 10.4401L13.1907 12.4574C13.2702 12.6708 13.3008 12.8555 13.2826 13.0116C13.2645 13.1677 13.1946 13.3046 13.0731 13.4225C13.0219 13.4721 12.9611 13.5149 12.8904 13.551C12.8197 13.5872 12.7609 13.6073 12.714 13.6117L12.5147 13.1077C12.5894 13.0935 12.647 13.0667 12.6875 13.0274C12.7561 12.9608 12.7781 12.8916 12.7533 12.8199L12.7236 12.7412L10.6501 12.1844L11.1281 11.7207L12.5211 12.1225L12.0232 10.8523L12.0231 10.8526ZM16.2321 10.8787L15.7506 11.2167L14.5928 9.55537L13.8556 10.073L15.0134 11.7344L14.5318 12.0725L13.0584 9.95816L14.7587 8.7644L16.2321 10.8787ZM18.6782 9.64697L18.1426 9.88979L17.3112 8.04213L16.4912 8.4139L17.3226 10.2616L16.787 10.5044L15.7289 8.15274L17.62 7.2955L18.6781 9.64713L18.6782 9.64697ZM19.5405 9.31873L18.9727 9.48439L19.2813 6.70723L19.7857 6.56008L21.5295 8.73841L20.9264 8.91431L20.5711 8.4537L19.5942 8.73874L19.5404 9.31873H19.5405ZM20.2059 7.98447L19.7279 7.36388L19.6523 8.14608L20.2059 7.98447ZM29.7141 9.09605L29.1505 8.92893L29.8792 6.45435L30.4427 6.62147L30.1253 7.6996L31.2492 6.86071L31.9254 7.0613L30.663 7.92828L31.2707 9.55781L30.5558 9.34569L30.0607 7.91886L29.7141 9.09605ZM31.8903 8.42089C32.0664 8.08339 32.3246 7.8612 32.6649 7.75449C33.0086 7.64665 33.3594 7.68676 33.7173 7.87484C34.073 8.06178 34.3063 8.32181 34.4173 8.65461C34.5327 8.98983 34.4971 9.33594 34.3108 9.6931C34.1314 10.0371 33.8688 10.2596 33.523 10.3608C33.1795 10.4631 32.833 10.4225 32.4838 10.239C32.1303 10.0532 31.8958 9.79266 31.7806 9.45743C31.6675 9.12334 31.7041 8.77788 31.8903 8.42073V8.42089ZM32.4434 8.71161C32.3424 8.90538 32.3206 9.10336 32.378 9.30557C32.4345 9.50453 32.555 9.65233 32.7393 9.7493C32.9476 9.85876 33.1426 9.87939 33.3246 9.8115C33.5089 9.73906 33.6532 9.60279 33.7578 9.40253C33.8657 9.19578 33.8896 8.99601 33.8298 8.8037C33.7688 8.60799 33.6461 8.46165 33.4618 8.36485C33.2709 8.26448 33.0803 8.24613 32.8895 8.30947C32.6989 8.37297 32.5502 8.50697 32.4434 8.71178V8.71161ZM34.6104 11.4214L34.1476 11.0577L35.7322 9.02605L36.1977 9.39182L36.1545 10.7389L37.4123 10.3462L37.8489 10.6894L36.2642 12.7212L35.8016 12.3575L36.8113 11.0631L35.6294 11.4123L35.5629 11.36L35.6133 10.1355L34.6105 11.4214H34.6104ZM38.1231 14.741L37.7348 14.2984L39.2506 12.9585L38.656 12.2807L37.1403 13.6207L36.7519 13.1781L38.681 11.4727L40.0526 13.0356L38.1234 14.741H38.1231ZM38.6752 15.4833L38.3534 14.9855L41.0916 14.4807L41.3775 14.9229L39.8027 17.2273L39.4608 16.6985L39.7977 16.2242L39.244 15.3676L38.6752 15.4833ZM40.1399 15.7378L40.594 15.0993L39.826 15.2523L40.1399 15.7378ZM40.8092 19.4659L40.5674 18.9283L41.5113 18.5005L41.1259 17.6437L40.182 18.0715L39.9401 17.5339L42.283 16.4721L42.5249 17.0097L41.6278 17.4162L42.0132 18.2729L42.9103 17.8664L43.1521 18.404L40.8092 19.4659ZM42.9637 21.3528L41.1511 20.5999L41.0356 20.097L43.5404 19.5167L43.6726 20.0913L42.116 20.4519L43.9286 21.2047L44.0443 21.7076L41.5394 22.2879L41.4072 21.7132L42.9639 21.3527L42.9637 21.3528ZM43.3678 24.4779L41.6886 23.4597L41.6498 22.9452L44.2132 22.7501L44.2577 23.3382L42.6647 23.4595L44.3438 24.4777L44.3826 24.9924L41.8192 25.1875L41.7747 24.5994L43.3678 24.4781V24.4779ZM44.9029 23.1042L44.9445 23.6556C44.8762 23.6608 44.8297 23.6816 44.8056 23.718C44.7813 23.7543 44.7723 23.8141 44.7786 23.8974C44.7846 23.9759 44.8016 24.03 44.8296 24.0598C44.8576 24.0897 44.9071 24.1021 44.9778 24.0967L45.0195 24.6481C44.8441 24.6665 44.6972 24.6073 44.5789 24.4709C44.4608 24.3369 44.393 24.1562 44.3758 23.9281C44.3576 23.6855 44.3962 23.4911 44.492 23.3444C44.5878 23.1979 44.7247 23.1178 44.903 23.1042H44.9029Z" fill="black"/>
<path d="M48.9124 28.283C48.5586 27.6122 48.1764 26.9719 47.7704 26.3638C47.9403 26.1557 48.1071 25.943 48.2712 25.7258C48.426 25.9495 48.5783 26.1775 48.727 26.4098C48.6503 26.5077 48.5731 26.6047 48.495 26.701C48.4006 26.5507 48.3048 26.4023 48.2078 26.2555C48.1469 26.3325 48.0856 26.4086 48.0238 26.4845C48.172 26.7137 48.3171 26.9472 48.4589 27.1853C48.6676 26.9388 48.8718 26.6859 49.0726 26.4265C48.8166 26.0209 48.5506 25.628 48.276 25.2483C48.0011 25.6279 47.7175 25.9945 47.4252 26.3472C47.8317 26.9464 48.2142 27.5779 48.5694 28.2398C48.3832 28.4431 48.1943 28.6416 48.0032 28.8352C47.8788 28.5929 47.7508 28.3546 47.6192 28.1204C47.7031 28.0324 47.7861 27.9434 47.8691 27.8532C47.9555 28.0044 48.0408 28.1573 48.1246 28.3117C48.1916 28.2401 48.2587 28.168 48.3257 28.0952C48.1934 27.8532 48.0579 27.6154 47.9184 27.382C47.7074 27.6205 47.4935 27.8522 47.2759 28.0775C47.5035 28.475 47.7202 28.8849 47.9259 29.3064C48.2621 28.9801 48.5909 28.6387 48.9121 28.283H48.9124Z" fill="#9B6826"/>
<path d="M48.0273 32.4061C47.7955 31.6833 47.5303 30.9859 47.2355 30.3165C47.4386 30.1413 47.6402 29.961 47.8387 29.7755C47.953 30.0227 48.0633 30.2738 48.1697 30.5286C48.0769 30.6116 47.9844 30.6938 47.8907 30.7749C47.8237 30.6105 47.7548 30.4476 47.6847 30.2861C47.6114 30.3513 47.5378 30.4158 47.464 30.4796C47.5703 30.7312 47.6732 30.9865 47.7711 31.2456C48.0192 31.0391 48.2645 30.8257 48.5067 30.6051C48.3248 30.1606 48.1307 29.7276 47.9255 29.3059C47.5897 29.6322 47.2468 29.9437 46.8981 30.24C47.195 30.9006 47.462 31.5894 47.6968 32.3035C47.4779 32.4711 47.2577 32.6335 47.0358 32.7904C46.9556 32.53 46.8708 32.2729 46.7821 32.0192C46.8797 31.9473 46.9771 31.8742 47.0746 31.7999C47.1334 31.964 47.1907 32.1293 47.2463 32.2961C47.3248 32.2375 47.4038 32.1782 47.4819 32.1181C47.3937 31.8568 47.3015 31.5989 47.2049 31.3447C46.956 31.5427 46.7049 31.7333 46.4517 31.9169C46.6065 32.3481 46.7486 32.7898 46.8776 33.241C47.2654 32.9787 47.6489 32.7004 48.0271 32.4063L48.0273 32.4061Z" fill="#9B6826"/>
<path d="M46.4381 36.3111C46.3351 35.5589 46.1958 34.8258 46.0224 34.1149C46.2531 33.9781 46.4826 33.8358 46.7107 33.6882C46.78 33.9516 46.8454 34.2182 46.9054 34.4878C46.7994 34.5534 46.6936 34.6179 46.5876 34.6812C46.5505 34.5074 46.5112 34.3351 46.4703 34.1639C46.3864 34.2152 46.3029 34.2656 46.2191 34.3155C46.2801 34.5818 46.3366 34.8513 46.3877 35.1237C46.668 34.964 46.9468 34.797 47.224 34.6223C47.1225 34.1529 47.0068 33.6923 46.878 33.2412C46.4905 33.5035 46.0987 33.7501 45.7037 33.9805C45.8808 34.683 46.0241 35.4082 46.1309 36.1524C45.8861 36.2791 45.6408 36.4001 45.395 36.5161C45.3613 36.2455 45.323 35.9777 45.2793 35.7123C45.3884 35.6587 45.4969 35.6038 45.6054 35.5479C45.635 35.7197 45.6628 35.8926 45.6884 36.0663C45.7762 36.0225 45.8641 35.9778 45.9515 35.9325C45.9104 35.6596 45.8641 35.3895 45.8133 35.1222C45.534 35.2736 45.2537 35.4173 44.9722 35.5534C45.0494 36.0053 45.1125 36.4651 45.161 36.9319C45.5882 36.7414 46.0144 36.5346 46.4381 36.3114V36.3111Z" fill="#9B6826"/>
<path d="M44.1955 39.877C44.2246 39.1186 44.2144 38.3723 44.1668 37.642C44.4175 37.5475 44.6686 37.4475 44.9188 37.3422C44.9413 37.6138 44.9589 37.8876 44.9717 38.1634C44.8561 38.2095 44.7404 38.2544 44.6252 38.2982C44.6186 38.1208 44.6099 37.9441 44.5992 37.7684C44.5079 37.8043 44.417 37.8394 44.3256 37.8738C44.3393 38.1468 44.348 38.4221 44.3516 38.699C44.6552 38.5907 44.9587 38.4751 45.262 38.3515C45.2435 37.8717 45.2095 37.3979 45.161 36.9312C44.7338 37.1217 44.3053 37.2958 43.8764 37.454C43.9285 38.1767 43.9438 38.9157 43.9205 39.6672C43.6579 39.7494 43.3953 39.8259 43.1333 39.897C43.1466 39.6248 43.155 39.3542 43.1581 39.0854C43.2746 39.0513 43.3911 39.0164 43.5081 38.9802C43.5076 39.1545 43.5045 39.3295 43.4997 39.5053C43.5937 39.4773 43.688 39.4488 43.7822 39.4192C43.7888 39.1434 43.7901 38.8694 43.7861 38.5972C43.4846 38.6974 43.1838 38.7902 42.8832 38.8753C42.8809 39.3339 42.8637 39.7976 42.8311 40.2659C43.2846 40.1525 43.7401 40.0231 44.1955 39.8772V39.877Z" fill="#9B6826"/>
<path d="M41.3726 42.9999C41.5315 42.2578 41.6497 41.5211 41.7292 40.7934C41.9921 40.7439 42.2565 40.689 42.5212 40.6286C42.4965 40.9 42.4669 41.1728 42.4316 41.4467C42.3097 41.472 42.1884 41.4964 42.067 41.5194C42.0913 41.3435 42.1133 41.168 42.1327 40.993C42.0369 41.0125 41.9408 41.0314 41.8455 41.0495C41.812 41.3208 41.7732 41.5933 41.729 41.8669C42.0463 41.8131 42.3654 41.7517 42.6853 41.6827C42.7497 41.2069 42.7978 40.7345 42.8309 40.2664C42.3769 40.3797 41.925 40.4767 41.4753 40.5581C41.402 41.2792 41.2899 42.0096 41.1378 42.7459C40.8646 42.7811 40.5928 42.8112 40.3227 42.8359C40.3828 42.57 40.4375 42.3049 40.4868 42.0405C40.6074 42.0273 40.7282 42.0129 40.8496 41.9976C40.8187 42.1691 40.786 42.3411 40.7507 42.5135C40.8481 42.5022 40.9457 42.4904 41.0438 42.4777C41.0976 42.2071 41.1462 41.9375 41.1894 41.6689C40.8752 41.7153 40.5629 41.7545 40.2522 41.7863C40.171 42.2375 40.0744 42.6913 39.9614 43.1467C40.4279 43.1139 40.8988 43.0652 41.3726 43.0005V42.9999Z" fill="#9B6826"/>
<path d="M38.0545 45.5859C38.3392 44.8826 38.5824 44.1774 38.7857 43.4744C39.0535 43.4712 39.3231 43.4629 39.5942 43.4494C39.5231 43.7125 39.4472 43.9761 39.3652 44.2398C39.2412 44.2437 39.1171 44.2464 38.9942 44.2482C39.048 44.079 39.0997 43.9099 39.149 43.741C39.0514 43.7436 38.9535 43.7455 38.8565 43.7468C38.7767 44.0081 38.6914 44.27 38.601 44.5316C38.9231 44.5336 39.2474 44.5284 39.5744 44.5159C39.72 44.0583 39.8488 43.6014 39.9618 43.146C39.4953 43.1788 39.0333 43.1962 38.5762 43.1983C38.3803 43.8959 38.1442 44.596 37.867 45.2945C37.5921 45.282 37.3194 45.2643 37.0489 45.2416C37.1539 44.9903 37.2532 44.7387 37.3476 44.487C37.4684 44.4949 37.5903 44.5018 37.7121 44.5074C37.6526 44.6712 37.5903 44.8347 37.5264 44.9984C37.6243 45.0045 37.7223 45.0095 37.8207 45.014C37.9209 44.7571 38.0149 44.4996 38.1036 44.2425C37.7862 44.2339 37.4717 44.2182 37.1602 44.1954C37.0028 44.6258 36.8293 45.0559 36.6396 45.4849C37.1045 45.5336 37.5769 45.5676 38.0547 45.5859H38.0545Z" fill="#9B6826"/>
<path d="M34.3386 47.5554C34.741 46.9124 35.1028 46.2603 35.4243 45.6036C35.6886 45.6473 35.9556 45.686 36.225 45.7197C36.1098 45.9666 35.989 46.2127 35.8627 46.4583C35.7399 46.4406 35.6174 46.4217 35.4955 46.4019C35.5781 46.2448 35.6581 46.0873 35.7361 45.9294C35.6394 45.915 35.5428 45.8999 35.4467 45.8841C35.323 46.1277 35.1941 46.3706 35.0595 46.6124C35.3761 46.6705 35.6968 46.7222 36.0209 46.7665C36.2433 46.3413 36.4494 45.9138 36.639 45.4847C36.1742 45.436 35.7161 45.3726 35.2658 45.2952C34.9522 45.9478 34.5985 46.5962 34.2045 47.2356C33.9359 47.1752 33.6702 47.1101 33.4079 47.0404C33.5548 46.8112 33.6967 46.5811 33.8331 46.3496C33.9509 46.3785 34.0693 46.4065 34.1884 46.4336C34.1012 46.5843 34.0119 46.7347 33.9202 46.8845C34.0156 46.9074 34.1114 46.9294 34.2077 46.9514C34.3506 46.7155 34.4879 46.4787 34.6197 46.2409C34.3088 46.177 34.0019 46.1065 33.699 46.0296C33.4694 46.4258 33.2237 46.8192 32.9624 47.2082C33.4117 47.3375 33.8708 47.4534 34.3383 47.5553L34.3386 47.5554Z" fill="#9B6826"/>
<path d="M30.3372 48.8436C30.8455 48.2812 31.3154 47.7028 31.7463 47.1125C31.9989 47.2018 32.2548 47.2866 32.5144 47.3671C32.3581 47.59 32.1963 47.8112 32.0293 48.0307C31.9113 47.9916 31.794 47.9518 31.6775 47.9109C31.7861 47.7706 31.8924 47.6296 31.9966 47.4878C31.9037 47.4566 31.8116 47.4248 31.7197 47.3925C31.5557 47.6106 31.3862 47.8272 31.2115 48.0416C31.5133 48.1545 31.8201 48.2615 32.1317 48.3622C32.4246 47.9825 32.7019 47.5976 32.9633 47.2086C32.5137 47.0792 32.0739 46.9364 31.6442 46.781C31.2218 47.3686 30.7605 47.9448 30.261 48.5051C30.0071 48.3986 29.7571 48.2878 29.5107 48.1732C29.6955 47.9734 29.8752 47.7717 30.0498 47.5677C30.1607 47.6168 30.2725 47.6652 30.3851 47.7127C30.273 47.8459 30.1587 47.9781 30.0424 48.1095C30.1325 48.1488 30.2228 48.1876 30.3139 48.2259C30.4956 48.0189 30.6722 47.8099 30.8434 47.5989C30.5485 47.4813 30.2584 47.358 29.9738 47.2293C29.6786 47.5791 29.3683 47.9232 29.0432 48.2604C29.4631 48.4666 29.8948 48.6614 30.3375 48.8438L30.3372 48.8436Z" fill="#9B6826"/>
<path d="M26.1736 49.4109C26.7709 48.9453 27.3341 48.458 27.8611 47.9522C28.0945 48.0843 28.3318 48.2129 28.5733 48.3378C28.3804 48.5298 28.1827 48.7194 27.9802 48.9062C27.8708 48.8471 27.7624 48.7873 27.6547 48.7265C27.7859 48.6075 27.9153 48.4871 28.0425 48.3659C27.9566 48.3188 27.8712 48.2714 27.7864 48.2233C27.5869 48.4093 27.3825 48.5929 27.1731 48.7736C27.4508 48.9375 27.7341 49.0966 28.0233 49.2502C28.3776 48.9276 28.7176 48.5974 29.0428 48.26C28.6229 48.0539 28.2145 47.8361 27.8186 47.6077C27.3003 48.1124 26.7458 48.599 26.1573 49.0641C25.9259 48.915 25.6985 48.7621 25.4759 48.6065C25.6922 48.4419 25.9042 48.2743 26.1115 48.1038C26.2123 48.1717 26.3139 48.2387 26.4167 48.3052C26.2832 48.4168 26.1477 48.5272 26.0103 48.6364C26.0922 48.6908 26.1746 48.7447 26.2576 48.7982C26.4722 48.626 26.6822 48.4509 26.8875 48.2732C26.6175 48.1059 26.3531 47.9338 26.0948 47.7573C25.7434 48.0505 25.3783 48.3354 25 48.6114C25.3782 48.8872 25.7696 49.1541 26.1738 49.4109H26.1736Z" fill="#9B6826"/>
<path d="M21.9772 49.2503C22.6455 48.8948 23.2832 48.5116 23.889 48.1041C24.0963 48.2746 24.3083 48.442 24.5245 48.6067C24.3018 48.7624 24.0746 48.9151 23.8431 49.0642C23.7455 48.987 23.6489 48.9094 23.5533 48.8311C23.7028 48.7365 23.8508 48.6403 23.997 48.5429C23.9203 48.4817 23.8444 48.4201 23.769 48.3583C23.5405 48.5073 23.3078 48.6528 23.0707 48.7949C23.3162 49.0043 23.5683 49.2095 23.8266 49.4109C24.2308 49.1541 24.6222 48.8873 25.0004 48.6116C24.6222 48.3357 24.257 48.0508 23.9057 47.7577C23.3088 48.1655 22.6796 48.5497 22.0201 48.9063C21.8176 48.7194 21.6197 48.5299 21.427 48.338C21.6685 48.2132 21.9058 48.0848 22.1392 47.9524C22.2269 48.0365 22.3157 48.1202 22.4054 48.2033C22.2549 48.2902 22.1026 48.3756 21.9486 48.4596C22.0199 48.5271 22.0919 48.5947 22.1646 48.6616C22.4055 48.5289 22.6423 48.3927 22.8749 48.2527C22.6374 48.0413 22.4065 47.8264 22.1822 47.6082C21.7861 47.8365 21.3777 48.0541 20.9578 48.2603C21.2828 48.5976 21.623 48.9279 21.9774 49.2503H21.9772Z" fill="#9B6826"/>
<path d="M17.8688 48.362C18.5888 48.1292 19.2837 47.8633 19.9505 47.5675C20.1249 47.7714 20.3047 47.9732 20.4894 48.173C20.2432 48.2878 19.993 48.3986 19.7391 48.505C19.6565 48.4121 19.5746 48.3187 19.4938 48.225C19.6578 48.1577 19.82 48.0889 19.9807 48.0182C19.9158 47.9447 19.8518 47.8709 19.7882 47.7967C19.5375 47.9036 19.283 48.0065 19.0251 48.1048C19.2306 48.3538 19.4434 48.6 19.6631 48.8433C20.1058 48.6609 20.5373 48.4662 20.9574 48.2599C20.6323 47.9227 20.322 47.5788 20.0268 47.2288C19.3686 47.5265 18.6825 47.7949 17.9711 48.0304C17.8041 47.8108 17.6423 47.5895 17.486 47.3668C17.7453 47.2863 18.0015 47.2013 18.2541 47.1122C18.3257 47.2102 18.3986 47.308 18.4723 47.4056C18.3091 47.4647 18.1444 47.5222 17.9782 47.5779C18.0366 47.6569 18.0957 47.7358 18.1555 47.8146C18.4159 47.7261 18.6728 47.6333 18.9261 47.5364C18.7288 47.2867 18.5389 47.0348 18.3562 46.7805C17.9264 46.9359 17.4866 47.0787 17.0371 47.208C17.2984 47.5971 17.5758 47.982 17.8686 48.3617L17.8688 48.362Z" fill="#9B6826"/>
<path d="M13.9788 46.7669C14.7281 46.6637 15.4587 46.5239 16.1668 46.3499C16.3031 46.5814 16.445 46.8115 16.5919 47.0407C16.3294 47.1104 16.0639 47.1755 15.7953 47.2359C15.7301 47.13 15.6657 47.0237 15.6027 46.9171C15.7755 46.8797 15.9474 46.8404 16.1179 46.799C16.067 46.7152 16.0166 46.6314 15.967 46.5473C15.7014 46.6085 15.4332 46.665 15.1618 46.7167C15.3207 46.9978 15.4872 47.2778 15.6613 47.5559C16.1289 47.4541 16.5878 47.3381 17.0374 47.2088C16.776 46.8197 16.5306 46.4264 16.3008 46.0303C15.601 46.2078 14.8785 46.3516 14.137 46.4588C14.011 46.2132 13.8903 45.9671 13.7749 45.7202C14.0443 45.6863 14.3112 45.6476 14.5756 45.6041C14.6291 45.7132 14.6838 45.8225 14.7393 45.9315C14.5683 45.9613 14.3961 45.9889 14.2228 46.0145C14.2667 46.1026 14.311 46.1908 14.3561 46.2786C14.628 46.2374 14.8971 46.1909 15.1634 46.1399C15.0126 45.8594 14.8694 45.5779 14.7336 45.2957C14.2835 45.3733 13.8256 45.4368 13.3604 45.4854C13.5502 45.9142 13.7563 46.342 13.9785 46.7672L13.9788 46.7669Z" fill="#9B6826"/>
<path d="M10.4258 44.5157C11.1815 44.5446 11.925 44.5342 12.6527 44.4866C12.7467 44.7384 12.8464 44.9901 12.9514 45.2414C12.6808 45.2641 12.408 45.2817 12.1332 45.2943C12.0873 45.1784 12.0425 45.0626 11.9986 44.9466C12.1756 44.9401 12.3515 44.9313 12.5268 44.9204C12.491 44.829 12.4561 44.7374 12.4216 44.646C12.1496 44.6599 11.8755 44.6687 11.5994 44.6721C11.7072 44.9768 11.8226 45.2815 11.9457 45.5857C12.4237 45.5672 12.8957 45.5332 13.3606 45.4847C13.1708 45.0559 12.9973 44.6257 12.84 44.1953C12.12 44.2477 11.3837 44.2632 10.635 44.2394C10.5531 43.9757 10.4768 43.7123 10.4061 43.4491C10.6773 43.4628 10.9468 43.4711 11.2146 43.4743C11.2485 43.5913 11.2834 43.7082 11.3195 43.8253C11.1457 43.8246 10.9714 43.8219 10.7963 43.8168C10.8242 43.9112 10.8527 44.0059 10.8821 44.1004C11.1569 44.1071 11.4298 44.1084 11.701 44.1045C11.601 43.8022 11.5086 43.5 11.4239 43.198C10.9671 43.1959 10.5051 43.1787 10.0386 43.1458C10.1514 43.6012 10.2805 44.058 10.4258 44.5156V44.5157Z" fill="#9B6826"/>
<path d="M7.31506 41.6823C8.05454 41.8417 8.78867 41.9606 9.51358 42.04C9.56293 42.3042 9.61763 42.5694 9.67782 42.8351C9.40743 42.8106 9.13559 42.7806 8.86278 42.7453C8.83754 42.6232 8.81327 42.5012 8.79029 42.3796C8.96553 42.4038 9.14029 42.4257 9.31472 42.4454C9.2953 42.349 9.27653 42.2529 9.25857 42.1569C8.98818 42.1235 8.71683 42.0845 8.44434 42.04C8.4979 42.3586 8.55906 42.6787 8.62783 42.9997C9.10177 43.0643 9.57248 43.113 10.0388 43.146C9.92587 42.6906 9.82911 42.2368 9.74821 41.7855C9.02993 41.7121 8.30211 41.5997 7.56878 41.4467C7.53351 41.1727 7.50373 40.9 7.47914 40.6286C7.74386 40.689 8.0081 40.7439 8.27136 40.7935C8.28463 40.9146 8.29887 41.0359 8.31424 41.1574C8.14337 41.1267 7.97201 41.0938 7.80033 41.0585C7.81166 41.1563 7.82347 41.2544 7.83609 41.3525C8.10551 41.4067 8.37427 41.4553 8.64191 41.4985C8.59563 41.1833 8.55663 40.8696 8.52492 40.5578C8.07525 40.4766 7.62315 40.3795 7.16943 40.2661C7.20244 40.7342 7.25066 41.2066 7.31506 41.6825V41.6823Z" fill="#9B6826"/>
<path d="M4.73828 38.3514C5.43908 38.637 6.14166 38.8814 6.84181 39.0852C6.84504 39.3542 6.8533 39.6246 6.86673 39.897C6.60476 39.8259 6.34214 39.7494 6.07952 39.6672C6.07564 39.5426 6.07273 39.4182 6.07111 39.2944C6.23971 39.3487 6.408 39.4007 6.57644 39.4502C6.57385 39.3519 6.57191 39.2542 6.57078 39.1562C6.31026 39.0763 6.04959 38.991 5.78891 38.8999C5.78697 39.2233 5.79199 39.5491 5.80461 39.8772C6.26043 40.0231 6.7156 40.1525 7.16931 40.2659C7.1363 39.7976 7.11931 39.3337 7.11705 38.8752C6.42207 38.6782 5.72467 38.4414 5.02873 38.1632C5.04135 37.8872 5.05883 37.6134 5.08148 37.3418C5.3318 37.4474 5.5826 37.5473 5.83325 37.642C5.82532 37.7633 5.81852 37.8854 5.8127 38.0078C5.64976 37.9478 5.48665 37.8858 5.32371 37.8211C5.31788 37.9194 5.31271 38.0181 5.30818 38.1167C5.56432 38.2169 5.82063 38.3116 6.07677 38.4006C6.08535 38.0821 6.10104 37.7664 6.1237 37.4536C5.6949 37.2957 5.26643 37.1216 4.83909 36.9309C4.79055 37.3977 4.75689 37.8715 4.73828 38.3513V38.3514Z" fill="#9B6826"/>
<path d="M2.77612 34.6223C3.41673 35.0263 4.06624 35.3894 4.7206 35.7121C4.67707 35.9773 4.63856 36.2453 4.6049 36.5157C4.35911 36.4001 4.11381 36.2789 3.86931 36.1522C3.88711 36.0288 3.90572 35.9059 3.92546 35.7836C4.08209 35.8662 4.23889 35.9468 4.39617 36.0249C4.41057 35.9278 4.42578 35.831 4.44147 35.7344C4.19876 35.6103 3.95685 35.4808 3.71576 35.3457C3.65783 35.6635 3.60653 35.9854 3.5622 36.3109C3.98582 36.5341 4.41186 36.7408 4.8392 36.9312C4.88775 36.4644 4.95085 36.0048 5.0282 35.5529C4.37788 35.238 3.7321 34.883 3.09489 34.4875C3.15508 34.2179 3.21997 33.9514 3.28939 33.6878C3.5177 33.8355 3.74715 33.9777 3.97773 34.1146C3.94892 34.2329 3.92093 34.3519 3.89407 34.4713C3.74391 34.3838 3.59407 34.2941 3.44488 34.2022C3.42207 34.298 3.3999 34.394 3.37822 34.4906C3.61317 34.634 3.84893 34.7719 4.08598 34.9041C4.14973 34.5921 4.21979 34.284 4.29633 33.98C3.90167 33.7496 3.50977 33.5032 3.12224 33.2407C2.99343 33.6919 2.8779 34.1525 2.77645 34.6217L2.77612 34.6223Z" fill="#9B6826"/>
<path d="M1.49316 30.6053C2.05353 31.1153 2.62975 31.587 3.21795 32.0197C3.12895 32.2732 3.04433 32.5301 2.96406 32.7905C2.74222 32.6336 2.52166 32.4712 2.30289 32.3036C2.34172 32.1852 2.38169 32.0674 2.42231 31.9503C2.56212 32.0593 2.70257 32.1662 2.84384 32.2708C2.87507 32.1775 2.90662 32.085 2.93898 31.9927C2.72167 31.8282 2.5058 31.658 2.29221 31.4826C2.17975 31.7855 2.07327 32.0936 1.97278 32.4061C2.35111 32.7002 2.73461 32.9784 3.12232 33.2407C3.25112 32.7897 3.39336 32.3481 3.54822 31.9169C2.96277 31.4928 2.38865 31.0299 1.83039 30.5287C1.93654 30.2738 2.0469 30.0227 2.1613 29.7755C2.36017 29.961 2.56131 30.1415 2.76455 30.3167C2.71552 30.428 2.6673 30.5402 2.61988 30.6531C2.4872 30.5407 2.35548 30.4259 2.22457 30.3091C2.18541 30.3994 2.14674 30.4902 2.10871 30.5815C2.31502 30.764 2.52328 30.9412 2.73348 31.113C2.85063 30.8171 2.97329 30.5259 3.10161 30.2402C2.75306 29.944 2.41033 29.6324 2.07424 29.3062C1.8689 29.7276 1.67472 30.161 1.49316 30.6053Z" fill="#9B6826"/>
<path d="M0.927734 26.4264C1.39133 27.0259 1.87694 27.5913 2.38083 28.1203C2.24927 28.3545 2.12112 28.5928 1.99684 28.8351C1.80558 28.6417 1.61674 28.4432 1.43065 28.2399C1.48955 28.1301 1.54926 28.0212 1.60962 27.9131C1.72823 28.0449 1.84814 28.1747 1.96885 28.3024C2.01578 28.2161 2.06303 28.1304 2.11076 28.0451C1.92548 27.8448 1.74247 27.6397 1.56253 27.4297C1.39926 27.7082 1.24068 27.9928 1.08761 28.2829C1.40897 28.6386 1.7381 28.9798 2.07403 29.3062C2.27937 28.8847 2.49637 28.4747 2.72388 28.0773C2.22112 27.557 1.73616 27.0004 1.27305 26.4097C1.42175 26.1773 1.57386 25.9494 1.72904 25.7257C1.89312 25.9429 2.05995 26.1557 2.22986 26.3637C2.16238 26.4649 2.09555 26.5671 2.02937 26.6699C1.9182 26.5359 1.80817 26.3999 1.69943 26.2622C1.64522 26.3442 1.5915 26.4269 1.53826 26.5102C1.70978 26.7258 1.88422 26.9367 2.06141 27.1427C2.22792 26.8715 2.39944 26.6062 2.57517 26.347C2.28326 25.9942 1.99927 25.6278 1.72435 25.248C1.44959 25.6276 1.18373 26.0205 0.927896 26.4263L0.927734 26.4264Z" fill="#9B6826"/>
<path d="M1.08777 22.2135C1.44182 22.8844 1.82386 23.5246 2.22986 24.1328C2.06011 24.3408 1.89312 24.5536 1.72904 24.7708C1.57386 24.5473 1.42175 24.3191 1.27305 24.0868C1.34991 23.9888 1.42726 23.8919 1.50525 23.7957C1.59959 23.946 1.69538 24.0944 1.79263 24.2411C1.85364 24.1641 1.9148 24.0879 1.97646 24.0122C1.82807 23.7829 1.68292 23.5493 1.5415 23.3112C1.33292 23.5578 1.12838 23.8107 0.927734 24.0701C1.18356 24.4758 1.44926 24.8685 1.72419 25.2483C1.99911 24.8687 2.28293 24.5021 2.57501 24.1493C2.16869 23.5501 1.78584 22.9186 1.43065 22.2567C1.6169 22.0534 1.80558 21.8549 1.99684 21.6615C2.12112 21.9038 2.24927 22.1421 2.38083 22.3763C2.29701 22.4643 2.21368 22.5533 2.13099 22.6435C2.04442 22.4924 1.9593 22.3396 1.87564 22.1851C1.80833 22.2567 1.74118 22.3289 1.67435 22.4016C1.80655 22.6436 1.94231 22.8813 2.0818 23.1148C2.29232 22.8764 2.5064 22.6445 2.72388 22.4195C2.49637 22.0219 2.27953 21.6119 2.07403 21.1904C1.7381 21.5167 1.40897 21.8582 1.08761 22.2137L1.08777 22.2135Z" fill="#9B6826"/>
<path d="M1.97246 18.0904C2.2045 18.8132 2.4694 19.5105 2.76422 20.1799C2.56114 20.355 2.36001 20.5355 2.16098 20.721C2.04657 20.4738 1.93621 20.2227 1.83006 19.9678C1.92262 19.8847 2.01567 19.8026 2.10919 19.7214C2.17619 19.886 2.2448 20.0487 2.31519 20.2102C2.38849 20.1452 2.46195 20.0807 2.5359 20.0169C2.42943 19.7651 2.327 19.5098 2.22894 19.2508C1.98088 19.457 1.73556 19.6704 1.49316 19.8912C1.67488 20.3355 1.8689 20.7687 2.0744 21.1902C2.41033 20.8639 2.75322 20.5524 3.10177 20.2563C2.805 19.5956 2.53768 18.9069 2.30305 18.1928C2.52182 18.0251 2.74222 17.8629 2.96423 17.7058C3.04449 17.9662 3.12912 18.2231 3.21795 18.4768C3.12022 18.5488 3.02264 18.6219 2.92555 18.6961C2.86649 18.5322 2.80921 18.3667 2.75387 18.1999C2.67506 18.2585 2.59642 18.3178 2.5181 18.3779C2.60613 18.6393 2.69853 18.8972 2.79529 19.1514C3.04384 18.9534 3.29498 18.7627 3.54822 18.5792C3.39336 18.1478 3.25129 17.7063 3.12232 17.2551C2.73461 17.5176 2.35111 17.7958 1.97278 18.09L1.97246 18.0904Z" fill="#9B6826"/>
<path d="M3.56202 14.1857C3.66477 14.9379 3.80408 15.671 3.97754 16.382C3.74697 16.5189 3.51752 16.6612 3.28921 16.8088C3.2198 16.5454 3.15491 16.2788 3.09472 16.009C3.20038 15.9434 3.3062 15.8791 3.41235 15.8158C3.44956 15.9894 3.48872 16.1619 3.52998 16.3331C3.61348 16.2819 3.69713 16.2314 3.78095 16.1812C3.71994 15.915 3.66347 15.6454 3.61218 15.3732C3.33209 15.5327 3.0533 15.6998 2.77612 15.8746C2.87758 16.344 2.99294 16.8046 3.1219 17.2556C3.50943 16.9933 3.90133 16.7468 4.29598 16.5163C4.11912 15.8136 3.97592 15.0886 3.86913 14.3444C4.11378 14.2179 4.35908 14.0967 4.60487 13.9809C4.63869 14.2513 4.6772 14.5193 4.72056 14.7847C4.61166 14.8385 4.50293 14.8931 4.39436 14.9491C4.36475 14.7772 4.33724 14.6044 4.31167 14.4305C4.22397 14.4747 4.13611 14.5192 4.04841 14.5645C4.08967 14.8372 4.13579 15.1074 4.18676 15.3746C4.46604 15.2234 4.74645 15.0797 5.02783 14.9434C4.95049 14.4915 4.88738 14.0319 4.83884 13.5649C4.41167 13.7555 3.98563 13.9622 3.56186 14.1854L3.56202 14.1857Z" fill="#9B6826"/>
<path d="M5.80446 10.6196C5.77566 11.3781 5.78602 12.1245 5.83327 12.8548C5.58262 12.9492 5.33181 13.0492 5.08149 13.1546C5.05883 12.8831 5.04119 12.6095 5.02873 12.3335C5.14411 12.2874 5.25964 12.2423 5.37501 12.1984C5.38165 12.3761 5.39039 12.5523 5.40123 12.7285C5.49233 12.6921 5.58359 12.6572 5.67469 12.6226C5.66077 12.3498 5.65204 12.0747 5.64848 11.7975C5.34508 11.9055 5.04152 12.0216 4.73828 12.1452C4.75673 12.6247 4.79055 13.0986 4.83909 13.5652C5.26627 13.3745 5.69492 13.2006 6.12372 13.0429C6.07145 12.3201 6.05608 11.581 6.07954 10.8294C6.34233 10.7474 6.60479 10.6707 6.86692 10.5996C6.85349 10.8719 6.84508 11.1425 6.842 11.4113C6.7255 11.4454 6.60899 11.4805 6.49233 11.5167C6.49298 11.3423 6.49573 11.1674 6.50058 10.9915C6.40657 11.0194 6.31239 11.0482 6.21822 11.0774C6.21158 11.3533 6.21029 11.6274 6.21417 11.8993C6.51547 11.7993 6.8166 11.7062 7.11709 11.6211C7.11935 11.1626 7.1365 10.699 7.16919 10.231C6.71547 10.3443 6.26029 10.4736 5.80446 10.6194V10.6196Z" fill="#9B6826"/>
<path d="M8.62767 7.49691C8.46877 8.23928 8.35049 8.97579 8.2712 9.70354C8.00794 9.75307 7.7437 9.80797 7.47898 9.86822C7.50357 9.59668 7.53335 9.32383 7.56862 9.05018C7.69014 9.025 7.8115 9.00064 7.93286 8.97758C7.90891 9.15347 7.88706 9.32919 7.86732 9.50378C7.96328 9.48429 8.05907 9.46578 8.15486 9.44759C8.18835 9.17653 8.22719 8.90368 8.27136 8.63052C7.95389 8.6846 7.63496 8.74566 7.31506 8.81485C7.25066 9.29054 7.20228 9.76266 7.16943 10.2307C7.62315 10.1178 8.07525 10.0207 8.52492 9.93919C8.59806 9.21827 8.71019 8.48792 8.86262 7.75173C9.13559 7.71633 9.40727 7.68612 9.67766 7.66176C9.61746 7.92746 9.56277 8.19283 9.51326 8.45674C9.39271 8.47006 9.27184 8.48419 9.1508 8.49962C9.18155 8.32828 9.21423 8.15596 9.24934 7.98414C9.15177 7.99518 9.0542 8.0072 8.95647 8.01954C8.90259 8.29011 8.85404 8.55987 8.81084 8.82865C9.12491 8.7822 9.43753 8.74323 9.74821 8.71123C9.82911 8.2599 9.92587 7.80598 10.0388 7.35059C9.57248 7.38339 9.10177 7.43211 8.62783 7.49675L8.62767 7.49691Z" fill="#9B6826"/>
<path d="M11.9454 4.91089C11.6609 5.61416 11.4175 6.31939 11.2145 7.02234C10.9465 7.02542 10.6769 7.03387 10.4057 7.04719C10.4766 6.78456 10.5528 6.52046 10.6347 6.25702C10.7588 6.25312 10.8828 6.25036 11.0061 6.24857C10.9518 6.41781 10.9002 6.58705 10.8507 6.75581C10.9486 6.75321 11.0462 6.75142 11.1436 6.74996C11.2232 6.48863 11.3082 6.22697 11.3989 5.96515C11.0769 5.96336 10.7522 5.96824 10.4253 5.98107C10.28 6.4386 10.151 6.89533 10.0381 7.35059C10.5046 7.31778 10.9666 7.30056 11.4234 7.29829C11.6196 6.6007 11.8557 5.90083 12.1326 5.20227C12.4077 5.21477 12.6803 5.23248 12.9509 5.25505C12.8457 5.50615 12.7462 5.75823 12.652 6.00982C12.531 6.00186 12.4095 5.9952 12.2876 5.98951C12.3473 5.82563 12.4091 5.66175 12.4735 5.49836C12.3756 5.49251 12.2773 5.48731 12.1789 5.48293C12.079 5.73988 11.985 5.99715 11.8962 6.25458C12.2133 6.26303 12.5281 6.27894 12.8396 6.30152C12.997 5.87095 13.1705 5.44086 13.3601 5.01208C12.8952 4.96335 12.4235 4.92908 11.9454 4.91089Z" fill="#9B6826"/>
<path d="M15.6613 2.94116C15.2588 3.58433 14.897 4.23626 14.5757 4.89307C14.3112 4.84922 14.0444 4.81056 13.775 4.77646C13.8902 4.52975 14.0109 4.28352 14.1371 4.03812C14.2603 4.05582 14.3826 4.07482 14.5045 4.09431C14.4219 4.25153 14.3417 4.40923 14.2638 4.56694C14.3606 4.58156 14.457 4.59666 14.5532 4.61258C14.6768 4.36896 14.8059 4.12582 14.9405 3.88398C14.6237 3.826 14.303 3.77403 13.9787 3.72985C13.7564 4.15505 13.5504 4.58253 13.3606 5.01163C13.8256 5.06036 14.2837 5.1237 14.7339 5.20117C15.0475 4.54826 15.4012 3.90039 15.7952 3.2608C16.0638 3.32105 16.3295 3.3865 16.592 3.45618C16.4451 3.68519 16.3032 3.91549 16.1668 4.14677C16.049 4.11802 15.9305 4.09009 15.8114 4.06313C15.8986 3.91208 15.9881 3.76185 16.0797 3.61226C15.9842 3.5892 15.8884 3.56711 15.7922 3.54535C15.6493 3.78101 15.5119 4.01798 15.3802 4.25575C15.691 4.31958 15.998 4.38991 16.3009 4.46705C16.5305 4.0706 16.776 3.67739 17.0375 3.28841C16.588 3.15912 16.1292 3.043 15.6614 2.94116H15.6613Z" fill="#9B6826"/>
<path d="M19.6629 1.65324C19.1549 2.21582 18.6848 2.79415 18.2539 3.38451C18.0013 3.29502 17.7452 3.21008 17.4858 3.12937C17.6421 2.90654 17.8039 2.6855 17.9709 2.46593C18.0889 2.50491 18.2062 2.54518 18.3227 2.58595C18.2143 2.72594 18.1078 2.86724 18.0036 3.00886C18.0965 3.03988 18.1887 3.07171 18.2806 3.10403C18.4447 2.88608 18.6141 2.66959 18.7888 2.45521C18.4869 2.34234 18.1801 2.23515 17.8686 2.13462C17.5756 2.51416 17.2984 2.89907 17.0371 3.28836C17.4865 3.41764 17.9264 3.56023 18.356 3.71582C18.7783 3.12807 19.2396 2.55184 19.7391 1.9917C19.993 2.0984 20.2432 2.20916 20.4894 2.32382C20.3047 2.52358 20.1249 2.72562 19.9503 2.92928C19.8395 2.88007 19.7277 2.83183 19.615 2.78392C19.7272 2.65107 19.8412 2.51871 19.9577 2.38716C19.8678 2.34818 19.7773 2.3092 19.6862 2.2712C19.5047 2.47795 19.3281 2.68713 19.1568 2.89826C19.4516 3.01568 19.7417 3.13878 20.0264 3.26757C20.3215 2.91758 20.6318 2.57344 20.9569 2.23645C20.537 2.03003 20.1053 1.83562 19.6626 1.65308L19.6629 1.65324Z" fill="#9B6826"/>
<path d="M23.8267 1.08586C23.2294 1.5514 22.6662 2.03872 22.1391 2.54455C21.9058 2.41249 21.6684 2.284 21.427 2.15908C21.6197 1.96692 21.8175 1.77768 22.0201 1.59071C22.1294 1.64968 22.2378 1.70945 22.3456 1.77021C22.2142 1.88927 22.0849 2.0098 21.9578 2.13082C22.0437 2.17825 22.1291 2.22568 22.2141 2.27344C22.4136 2.08729 22.6179 1.90406 22.8273 1.72326C22.5497 1.55936 22.2663 1.40034 21.9772 1.24667C21.6228 1.56911 21.2828 1.89967 20.9578 2.23673C21.3777 2.44319 21.7859 2.66069 22.182 2.88892C22.7003 2.38438 23.2548 1.89756 23.8433 1.43282C24.0747 1.5821 24.3021 1.73447 24.5249 1.89041C24.3084 2.05512 24.0966 2.22276 23.8893 2.39316C23.7885 2.32542 23.6867 2.25801 23.5841 2.19157C23.7176 2.07998 23.853 1.96968 23.9903 1.86068C23.9085 1.80611 23.8262 1.75218 23.7433 1.69857C23.5286 1.87092 23.3184 2.04586 23.1131 2.2239C23.3833 2.39088 23.6477 2.56323 23.906 2.73947C24.2574 2.44627 24.6225 2.16136 25.0006 1.88537C24.6225 1.60939 24.2312 1.34267 23.8268 1.08569L23.8267 1.08586Z" fill="#9B6826"/>
<path d="M28.0232 1.24673C27.3549 1.60193 26.7171 1.98556 26.1112 2.39306C25.9041 2.22252 25.6921 2.05507 25.4758 1.89038C25.6985 1.73446 25.9256 1.58212 26.1572 1.43286C26.2549 1.50984 26.3515 1.58732 26.4473 1.66576C26.2976 1.76045 26.1497 1.8566 26.0036 1.95405C26.0803 2.01512 26.1562 2.07667 26.2316 2.13872C26.4601 1.98994 26.6928 1.84426 26.93 1.70198C26.6844 1.49295 26.4324 1.2875 26.174 1.08594C25.7698 1.34288 25.3786 1.60957 25.0002 1.88551C25.3784 2.16146 25.7436 2.44617 26.0949 2.73949C26.692 2.33151 27.3211 1.94755 27.9806 1.59105C28.1831 1.77799 28.381 1.96753 28.5737 2.15934C28.3323 2.28424 28.0949 2.41271 27.8615 2.54476C27.7738 2.46063 27.685 2.37682 27.5954 2.29399C27.7459 2.20726 27.8981 2.12166 28.0522 2.03753C27.9808 1.97029 27.909 1.9024 27.8363 1.83565C27.5954 1.96851 27.3585 2.10494 27.126 2.24445C27.3635 2.45575 27.5946 2.67095 27.8187 2.8894C28.2148 2.66089 28.6232 2.44341 29.0431 2.23698C28.718 1.89997 28.3779 1.56945 28.0235 1.24705L28.0232 1.24673Z" fill="#9B6826"/>
<path d="M32.1309 2.13463C31.4109 2.36757 30.7162 2.63348 30.0494 2.92945C29.8748 2.72526 29.6951 2.52367 29.5103 2.32387C29.7565 2.20919 30.0067 2.09841 30.2606 1.99168C30.3434 2.08476 30.4251 2.17816 30.5059 2.27173C30.342 2.33898 30.1798 2.40818 30.019 2.47852C30.0839 2.5521 30.148 2.62601 30.2117 2.70008C30.4623 2.59336 30.7167 2.49054 30.9748 2.39177C30.7695 2.14275 30.5567 1.89649 30.3368 1.65332C29.8941 1.8359 29.4625 2.03034 29.0425 2.23681C29.3676 2.57387 29.6779 2.91808 29.973 3.26814C30.6311 2.97038 31.3173 2.70203 32.0287 2.46633C32.1956 2.68611 32.3573 2.90719 32.5139 3.1299C32.2544 3.21047 31.9984 3.29559 31.7458 3.38461C31.674 3.28665 31.6012 3.18887 31.5274 3.0914C31.6906 3.03211 31.8554 2.97444 32.0217 2.91857C31.9631 2.83978 31.9041 2.76084 31.8442 2.68205C31.5838 2.77058 31.3269 2.86317 31.0737 2.96015C31.2709 3.20998 31.4609 3.46209 31.6437 3.71631C32.0735 3.56085 32.5133 3.41823 32.9628 3.28877C32.7011 2.8994 32.4239 2.51441 32.1311 2.13479L32.1309 2.13463Z" fill="#9B6826"/>
<path d="M36.0213 3.7302C35.2719 3.8335 34.5415 3.97302 33.8334 4.14698C33.697 3.91585 33.5553 3.68538 33.4082 3.45636C33.6706 3.38636 33.9362 3.32123 34.2046 3.26097C34.2702 3.36687 34.3342 3.47309 34.3973 3.57996C34.2244 3.61716 34.0525 3.65663 33.882 3.69772C33.9331 3.78137 33.9834 3.86566 34.0331 3.9498C34.2985 3.88856 34.5671 3.83188 34.8383 3.78055C34.6794 3.49924 34.5129 3.21939 34.3388 2.94116C33.8711 3.043 33.4122 3.15913 32.9629 3.28842C33.2242 3.67742 33.4698 4.07064 33.6994 4.46662C34.3994 4.28893 35.1218 4.14552 35.8632 4.03832C35.9894 4.28374 36.1101 4.52997 36.2255 4.77668C35.956 4.81079 35.6891 4.84929 35.4247 4.89265C35.3711 4.78367 35.3166 4.67436 35.2607 4.56537C35.4319 4.53565 35.6041 4.5082 35.7774 4.48254C35.7336 4.39434 35.6891 4.30615 35.6439 4.21812C35.3722 4.2597 35.103 4.30583 34.8368 4.35715C34.9873 4.63749 35.1307 4.9188 35.2662 5.20142C35.7164 5.12394 36.1743 5.06011 36.6395 5.01187C36.4497 4.58275 36.2437 4.15526 36.0214 3.73004L36.0213 3.7302Z" fill="#9B6826"/>
<path d="M39.5744 5.98107C38.8189 5.95183 38.0754 5.96255 37.3477 6.00982C37.2534 5.75823 37.154 5.50664 37.049 5.25505C37.3196 5.23248 37.5922 5.21477 37.8671 5.20227C37.9131 5.31791 37.9581 5.43388 38.0018 5.55001C37.8247 5.55618 37.6487 5.56511 37.4736 5.57616C37.5094 5.66744 37.5446 5.75904 37.5786 5.85032C37.851 5.83652 38.1249 5.82774 38.4011 5.82417C38.293 5.51947 38.1778 5.2151 38.0547 4.91089C37.5768 4.9294 37.1047 4.96319 36.6396 5.01191C36.8295 5.4407 37.0027 5.87079 37.1603 6.30136C37.8806 6.24906 38.617 6.23363 39.3653 6.25702C39.4474 6.52111 39.5234 6.78456 39.5943 7.04768C39.3234 7.03387 39.0537 7.02559 38.7859 7.02234C38.7519 6.9054 38.717 6.78845 38.6809 6.67119C38.8543 6.672 39.0289 6.67476 39.2042 6.67963C39.1758 6.58527 39.1477 6.4909 39.1181 6.39605C38.8437 6.38939 38.5705 6.38809 38.2992 6.39215C38.3993 6.69474 38.4916 6.99668 38.5763 7.29845C39.0335 7.30072 39.4954 7.31794 39.9619 7.35107C39.849 6.89533 39.7202 6.4386 39.5745 5.98107H39.5744Z" fill="#9B6826"/>
<path d="M42.6851 8.81448C41.9459 8.65499 41.2121 8.53626 40.487 8.45651C40.4376 8.19258 40.3829 7.92718 40.3229 7.66146C40.593 7.68631 40.8648 7.71603 41.138 7.75144C41.163 7.87326 41.1873 7.99556 41.2103 8.11737C41.0351 8.09301 40.8603 8.07092 40.6857 8.05143C40.7051 8.14758 40.7241 8.24358 40.7422 8.33973C41.0122 8.37335 41.2841 8.41233 41.5563 8.45667C41.5024 8.13816 41.4415 7.81787 41.3726 7.49676C40.8986 7.43212 40.4278 7.38388 39.9614 7.35059C40.0744 7.80634 40.1711 8.25998 40.2522 8.71135C40.9705 8.78492 41.6982 8.89748 42.4317 9.05016C42.4669 9.32432 42.4965 9.59719 42.5213 9.86827C42.2566 9.80801 41.9922 9.75311 41.7292 9.70358C41.716 9.58257 41.7014 9.46124 41.686 9.33943C41.8572 9.37045 42.0284 9.40326 42.2001 9.43867C42.1891 9.34089 42.1771 9.24246 42.1643 9.14452C41.8948 9.09044 41.626 9.04171 41.3585 8.99835C41.4048 9.31377 41.4436 9.62724 41.4755 9.93909C41.9252 10.0206 42.377 10.1176 42.8312 10.231C42.798 9.7627 42.7499 9.29005 42.6851 8.81448Z" fill="#9B6826"/>
<path d="M45.2616 12.145C44.5613 11.8598 43.8584 11.6152 43.1581 11.4115C43.155 11.1427 43.1466 10.8721 43.1333 10.5997C43.3954 10.671 43.6581 10.7476 43.9205 10.8295C43.9244 10.9539 43.9272 11.0785 43.9289 11.2024C43.7603 11.1479 43.5922 11.096 43.4236 11.0465C43.4262 11.1448 43.428 11.2427 43.4294 11.3407C43.6898 11.4204 43.9505 11.5058 44.2113 11.5966C44.2136 11.2737 44.2082 10.9477 44.1954 10.6195C43.7401 10.4738 43.2846 10.344 42.8311 10.231C42.8637 10.6992 42.8809 11.163 42.8832 11.6213C43.5781 11.818 44.2754 12.055 44.9716 12.3333C44.9589 12.6092 44.9412 12.8829 44.9187 13.1548C44.6686 13.0494 44.4174 12.9493 44.1668 12.8545C44.1747 12.7332 44.1817 12.6113 44.1875 12.4885C44.3503 12.5488 44.5136 12.6108 44.6765 12.6755C44.6823 12.5772 44.6875 12.4783 44.6919 12.3795C44.4359 12.2795 44.1796 12.1846 43.9231 12.0956C43.9147 12.4141 43.8988 12.7299 43.8763 13.0426C44.3053 13.2006 44.7338 13.3747 45.161 13.5654C45.2095 13.0985 45.2435 12.625 45.2616 12.1447V12.145Z" fill="#9B6826"/>
<path d="M47.224 15.8743C46.5832 15.4706 45.9337 15.1074 45.2793 14.7847C45.323 14.5193 45.3613 14.2513 45.395 13.9809C45.6408 14.0967 45.8861 14.2179 46.1309 14.3445C46.1128 14.468 46.0944 14.5909 46.0745 14.7132C45.9181 14.6304 45.7612 14.55 45.6041 14.4717C45.5895 14.5688 45.5744 14.6658 45.5586 14.7623C45.8013 14.8864 46.0435 15.0158 46.2845 15.1511C46.3423 14.8329 46.3934 14.5112 46.4381 14.1859C46.0144 13.9627 45.5882 13.7558 45.161 13.5654C45.1125 14.0322 45.0494 14.492 44.9722 14.9439C45.6222 15.2586 46.2682 15.6137 46.9054 16.0091C46.8454 16.2788 46.7801 16.5454 46.7107 16.8087C46.4826 16.6613 46.2531 16.5188 46.0224 16.3819C46.0515 16.2637 46.0793 16.1448 46.1062 16.0252C46.2562 16.1128 46.4063 16.2026 46.5554 16.2945C46.5784 16.1985 46.6004 16.1024 46.622 16.0059C46.3872 15.8625 46.1512 15.7246 45.9143 15.5924C45.8507 15.9044 45.7806 16.2125 45.7037 16.5165C46.0987 16.747 46.4905 16.9936 46.878 17.2559C47.0068 16.8048 47.1225 16.3441 47.224 15.8747V15.8743Z" fill="#9B6826"/>
<path d="M48.5071 19.8914C47.9465 19.3814 47.3703 18.9097 46.7824 18.477C46.8711 18.2235 46.9559 17.9664 47.0362 17.706C47.2582 17.8631 47.4784 18.0253 47.6972 18.1931C47.6583 18.3115 47.6185 18.4291 47.5776 18.5462C47.4381 18.4373 47.2973 18.3305 47.1565 18.2259C47.1252 18.319 47.0934 18.4118 47.0612 18.5038C47.2784 18.6685 47.4941 18.8388 47.7077 19.014C47.8202 18.7111 47.927 18.4031 48.0271 18.0905C47.649 17.7963 47.2654 17.5179 46.8776 17.2556C46.7488 17.707 46.6067 18.1485 46.4517 18.5797C47.0373 19.0036 47.6114 19.4667 48.1695 19.9681C48.0632 20.2229 47.9529 20.4741 47.8386 20.7213C47.6401 20.5358 47.4383 20.3555 47.2353 20.1801C47.2844 20.0686 47.3329 19.9566 47.3802 19.8435C47.5125 19.9559 47.6444 20.0706 47.7755 20.1875C47.8148 20.0972 47.8532 20.0064 47.891 19.9152C47.685 19.7326 47.4766 19.5555 47.2666 19.3835C47.1493 19.6796 47.0266 19.9709 46.8981 20.2566C47.2468 20.5528 47.5897 20.8644 47.9255 21.1907C48.1307 20.7692 48.3249 20.336 48.5068 19.8914H48.5071Z" fill="#9B6826"/>
<path d="M49.0726 24.0701C48.6088 23.4706 48.1234 22.9052 47.6195 22.3762C47.751 22.1422 47.879 21.9039 48.0035 21.6616C48.1946 21.8552 48.3834 22.0535 48.5696 22.2569C48.5109 22.3667 48.4514 22.4756 48.3908 22.5837C48.2722 22.4519 48.1522 22.3222 48.0316 22.1945C47.9844 22.2807 47.9373 22.3665 47.8896 22.4514C48.075 22.6517 48.2575 22.857 48.4376 23.0672C48.6009 22.7885 48.7593 22.5041 48.9124 22.2138C48.5912 21.858 48.2624 21.5169 47.9261 21.1904C47.7205 21.6119 47.5038 22.0217 47.2761 22.4193C47.7792 22.9395 48.2637 23.496 48.7271 24.0868C48.5784 24.3191 48.4261 24.5471 48.2713 24.7708C48.1072 24.5536 47.9402 24.3409 47.7705 24.1328C47.8379 24.0316 47.9051 23.9296 47.9713 23.8265C48.0824 23.9605 48.1923 24.0964 48.3014 24.2341C48.3552 24.152 48.4091 24.0695 48.4624 23.9861C48.2907 23.7708 48.1164 23.5598 47.9391 23.3537C47.7727 23.6249 47.601 23.8901 47.4255 24.1495C47.7175 24.5023 48.0014 24.8687 48.2763 25.2483C48.5507 24.8687 48.8169 24.4758 49.0729 24.0701H49.0726Z" fill="#9B6826"/>
<path fill-rule="evenodd" clip-rule="evenodd" d="M42.5363 38.7562C38.4875 44.0593 32.1459 47.4868 25 47.4868C17.8054 47.4868 11.4574 44.0674 7.40788 38.7658L5.93652 36.6388L11.0863 32.2813C13.651 37.383 18.918 40.8823 24.9999 40.8823C31.1018 40.8823 36.3833 37.3598 38.9385 32.2305L44.3268 36.6908C43.6973 37.384 43.0918 38.0284 42.5362 38.7562H42.5363Z" fill="black"/>
<path fill-rule="evenodd" clip-rule="evenodd" d="M9.29119 32.2356C7.76499 34.8692 7.098 35.7694 5.93652 36.6386C6.25739 37.1025 6.26969 37.161 6.83425 37.4092C7.7412 37.8076 8.78844 36.7765 9.23342 36.0988C9.81287 35.2158 10.6481 34.9371 10.2553 33.9292C10.1606 33.6862 9.03019 32.5041 9.29119 32.2356Z" fill="black" stroke="black" stroke-width="0.199938" stroke-miterlimit="22.9256"/>
<path d="M40.8502 33.0335C39.3879 35.6749 36.1229 38.2966 33.5321 39.8279C31.0295 41.307 28.1131 42.1555 25 42.1555C21.8997 42.1555 18.9945 41.314 16.4986 39.8461C13.9143 38.3262 10.7174 35.1745 9.25024 32.5508L9.29134 32.2354C10.7337 34.8147 14.1054 38.1024 16.6447 39.5958C19.0963 41.0378 21.9516 41.8643 25 41.8643C28.0611 41.8643 30.9274 41.0306 33.3862 39.5776C35.9324 38.0727 39.3363 35.1702 40.7736 32.5737L40.8503 33.0333L40.8502 33.0335Z" fill="#FEFEFE"/>
<path fill-rule="evenodd" clip-rule="evenodd" d="M12.1085 33.5083C11.8763 33.7598 11.6443 34.0116 11.4121 34.2632C11.1449 33.9161 10.6511 33.4295 10.6108 33.2219C10.4992 32.6723 10.8184 32.3416 11.3529 32.7033C11.6233 32.9125 11.8566 33.2399 12.1085 33.5083V33.5083Z" stroke="#2B2A29" stroke-width="2.11662" stroke-miterlimit="22.9256"/>
<path fill-rule="evenodd" clip-rule="evenodd" d="M12.1085 33.5083C11.8763 33.7598 11.6443 34.0116 11.4121 34.2632C11.1449 33.9161 10.6511 33.4295 10.6108 33.2219C10.4992 32.6723 10.8184 32.3416 11.3529 32.7033C11.6233 32.9125 11.8566 33.2399 12.1085 33.5083Z" fill="#FEFEFE"/>
<path fill-rule="evenodd" clip-rule="evenodd" d="M9.90465 31.8148C10.1263 31.6782 10.3734 31.7222 10.6202 31.7921C11.9162 32.3554 12.4306 32.6336 12.955 33.8884C13.0495 34.1907 12.561 34.4917 12.2469 34.2568C12.0731 34.1268 12.2053 34.0243 12.2977 33.9085C12.5671 33.5712 12.3055 33.2093 12.0399 32.9015C11.4681 32.2388 10.2801 31.8803 10.1257 32.9354C9.53329 32.8586 9.59462 32.1923 9.90465 31.8148V31.8148Z" stroke="black" stroke-width="2.11662" stroke-miterlimit="22.9256"/>
<path fill-rule="evenodd" clip-rule="evenodd" d="M9.90465 31.8148C10.1263 31.6782 10.3734 31.7222 10.6202 31.7921C11.9162 32.3554 12.4306 32.6336 12.955 33.8884C13.0495 34.1907 12.561 34.4917 12.2469 34.2568C12.0731 34.1268 12.2053 34.0243 12.2977 33.9085C12.5671 33.5712 12.3055 33.2093 12.0399 32.9015C11.4681 32.2388 10.2801 31.8803 10.1257 32.9354C9.53329 32.8586 9.59462 32.1923 9.90465 31.8148Z" fill="#FEFEFE"/>
<path fill-rule="evenodd" clip-rule="evenodd" d="M10.2974 34.2368C10.476 34.4803 11.1656 35.7105 11.9041 35.7207C11.9716 35.7217 12.3171 35.4578 12.2198 35.2429C12.1677 35.1278 12.0781 35.1208 11.9099 35.0896C11.3449 34.9845 10.7553 33.8467 10.3524 33.5762C10.2324 33.766 10.1901 34.0908 10.2974 34.237V34.2368Z" stroke="black" stroke-width="2.11662" stroke-miterlimit="22.9256"/>
<path fill-rule="evenodd" clip-rule="evenodd" d="M10.2974 34.2368C10.476 34.4803 11.1656 35.7105 11.9041 35.7207C11.9716 35.7217 12.3171 35.4578 12.2198 35.2429C12.1677 35.1278 12.0781 35.1208 11.9099 35.0896C11.3449 34.9845 10.7553 33.8467 10.3524 33.5762C10.2324 33.766 10.1901 34.0908 10.2974 34.237V34.2368Z" fill="#FEFEFE"/>
<path fill-rule="evenodd" clip-rule="evenodd" d="M40.898 32.2988C42.4242 34.9325 43.0912 35.8326 44.2527 36.7019C43.9318 37.1658 43.9195 37.2242 43.355 37.4724C42.448 37.8708 41.4008 36.8398 40.9558 36.162C40.3763 35.2791 39.5411 35.0004 39.934 33.9924C40.0286 33.7494 41.159 32.5673 40.898 32.2988Z" fill="black" stroke="black" stroke-width="0.199938" stroke-miterlimit="22.9256"/>
<path d="M34.6459 44.2342C31.7511 45.7194 28.4725 46.5571 25.0002 46.5571C21.5499 46.5571 18.2915 45.7303 15.4111 44.2635C11.4522 42.2475 9.07294 39.6777 6.69043 36.0582L6.9312 35.8576C9.11194 39.4131 11.7766 42.087 15.5413 44.0042C18.3819 45.4507 21.596 46.2661 25.0002 46.2661C28.4272 46.2661 31.661 45.4402 34.5145 43.9761C38.4849 41.9392 40.8755 39.3566 43.2235 35.6902L43.4412 35.9574C40.9234 39.6691 38.775 42.1158 34.6459 44.2342Z" fill="#FEFEFE"/>
<path d="M8.9987 38.1002L11.342 36.0757L12.5317 37.4559L12.1449 37.7916L11.3131 36.8265L10.7987 37.2628C10.8916 37.3433 10.9895 37.4434 11.0922 37.5624C11.3035 37.8077 11.4064 38.0567 11.4009 38.3092C11.3953 38.562 11.2836 38.7827 11.0663 38.9714C10.822 39.1835 10.5649 39.2683 10.2948 39.2254C10.0247 39.1827 9.76455 39.0161 9.51455 38.7258C9.46811 38.6719 9.36811 38.5499 9.21293 38.3622C9.18268 38.3256 9.1495 38.2873 9.11569 38.2461C9.08187 38.2046 9.0563 38.1726 9.03899 38.1504C9.02167 38.1281 9.00824 38.1113 8.99854 38.0999L8.9987 38.1002ZM10.6767 37.8645C10.6031 37.7791 10.5149 37.6904 10.4123 37.5987L9.74319 38.1796C9.82927 38.2977 9.90047 38.3893 9.95662 38.4544C10.2068 38.7447 10.4485 38.7885 10.6815 38.5862C10.7912 38.4908 10.8475 38.381 10.8503 38.2568C10.8529 38.1325 10.795 38.0018 10.6768 37.8645H10.6767ZM12.9291 40.192L11.4115 40.6105L11.01 40.2928L12.2487 38.7161L12.6501 39.0338L11.8657 40.0325L13.3833 39.6139L13.7847 39.9316L12.5461 41.5084L12.1446 41.1907L12.9291 40.192ZM13.8899 42.4767C13.7425 42.3822 13.6158 42.2636 13.5095 42.1213C13.4048 41.9764 13.3467 41.8437 13.3354 41.7236L13.7289 41.5948C13.7422 41.6844 13.7821 41.7789 13.849 41.8785C13.9158 41.9779 13.9904 42.0541 14.0729 42.107C14.1828 42.1775 14.2797 42.2132 14.3635 42.2141C14.4474 42.2149 14.5093 42.184 14.5493 42.1213C14.586 42.0637 14.5931 42.0029 14.5705 41.9389C14.5478 41.8751 14.4967 41.8174 14.4168 41.7661L14.1022 41.5642L14.2867 41.2748L14.5825 41.4647C14.6499 41.5079 14.7166 41.5235 14.7825 41.511C14.8483 41.4984 14.9006 41.4622 14.9389 41.4021C15.0173 41.2793 14.9575 41.1546 14.7603 41.0279C14.6054 40.9285 14.4105 40.8951 14.175 40.9277L14.1605 40.5529C14.4417 40.465 14.7433 40.5244 15.0653 40.731C15.2826 40.8704 15.4224 41.0195 15.485 41.178C15.5477 41.3365 15.5302 41.4921 15.4329 41.6449C15.3802 41.7276 15.3048 41.7853 15.2069 41.8176C15.1088 41.8501 15.0007 41.8512 14.8826 41.8213L14.8779 41.8288C14.9758 41.9235 15.0334 42.0266 15.0503 42.138C15.0672 42.2495 15.0436 42.3554 14.9799 42.4556C14.8794 42.6134 14.7305 42.6937 14.5338 42.6963C14.3368 42.6987 14.1223 42.6256 13.8901 42.4765L13.8899 42.4767ZM17.1768 44.1103L16.7111 43.8985L17.0268 43.1994L16.2292 42.8366L15.9135 43.5356L15.4478 43.3238L16.2735 41.4949L16.7392 41.7067L16.4273 42.3976L17.225 42.7604L17.537 42.0695L18.0027 42.2813L17.1768 44.1103ZM19.729 44.3308L19.7714 44.7188C19.5348 44.8244 19.267 44.8345 18.9679 44.7489C18.6599 44.6609 18.4355 44.496 18.2946 44.2547C18.1585 44.0178 18.1339 43.7463 18.2208 43.4401C18.302 43.1541 18.4628 42.9402 18.7033 42.7988C18.9438 42.6571 19.218 42.6305 19.5258 42.7185C19.7795 42.7911 19.9706 42.937 20.0996 43.1564C20.2284 43.3758 20.2559 43.6157 20.1819 43.8759C20.1494 43.9904 20.1141 44.0762 20.0764 44.1335L18.687 43.7361C18.6671 43.8819 18.6978 44.0099 18.7792 44.1197C18.8604 44.2296 18.9795 44.307 19.1363 44.3518C19.3501 44.4128 19.5478 44.406 19.7293 44.3312L19.729 44.3308ZM19.3874 43.1242C19.1082 43.0443 18.9001 43.1366 18.7635 43.4005L19.7085 43.6708C19.7462 43.5485 19.7357 43.4366 19.6768 43.3346C19.6179 43.2327 19.5214 43.1626 19.3874 43.1241V43.1242ZM22.2468 44.7123L22.4182 45.1234C22.2115 45.3224 21.9301 45.3903 21.5741 45.3269C21.256 45.2704 21.0146 45.1294 20.8497 44.9037C20.6873 44.6815 20.6337 44.4137 20.6889 44.1002C20.741 43.8043 20.8806 43.5754 21.108 43.4133C21.3358 43.2485 21.597 43.1921 21.8916 43.2444C22.2419 43.3066 22.4903 43.4429 22.6368 43.6532L22.3298 44.0112C22.2183 43.8585 22.0662 43.765 21.8737 43.7307C21.7277 43.7049 21.59 43.7348 21.4606 43.8205C21.335 43.9009 21.2573 44.0261 21.2274 44.196C21.1975 44.3659 21.2287 44.5134 21.3209 44.6386C21.4196 44.7619 21.5449 44.8369 21.6965 44.8639C21.8919 44.8986 22.0754 44.8481 22.2468 44.7123ZM26.3843 44.1509L25.5494 45.49L25.0396 45.5288L24.888 43.5265L25.3977 43.4877L25.4939 44.7559L26.3286 43.4167L26.8383 43.3779L26.99 45.3802L26.4803 45.419L26.3843 44.1509ZM32.3936 44.4112L31.8753 44.586L31.0472 42.1114L29.7323 42.5546L30.5605 45.0292L30.042 45.204L29.0511 42.2431L31.4027 41.4502L32.3936 44.4111V44.4112ZM34.0324 43.9579L33.5781 44.1931L32.3491 41.7992L32.8035 41.5642L32.891 41.7348C32.9164 41.6414 32.969 41.549 33.0488 41.4575C33.1286 41.3661 33.2224 41.2925 33.3305 41.2365C33.5755 41.1098 33.814 41.0935 34.0457 41.1877C34.2815 41.2832 34.4672 41.4632 34.603 41.7278C34.7455 42.0055 34.7768 42.2805 34.6965 42.5529C34.6163 42.8252 34.4367 43.0336 34.1574 43.1782C33.9782 43.2709 33.825 43.3133 33.6977 43.3055L34.0326 43.9581L34.0324 43.9579ZM33.408 41.7383C33.2499 41.82 33.1475 41.955 33.1007 42.1432L33.4713 42.8652C33.6147 42.878 33.7574 42.8476 33.8996 42.7741C34.0498 42.6964 34.1452 42.5852 34.1858 42.4403C34.2265 42.2954 34.2067 42.145 34.1266 41.9889C34.0506 41.8408 33.948 41.7434 33.8189 41.6964C33.6897 41.6495 33.5527 41.6635 33.4077 41.7383H33.408ZM35.0242 40.879L34.7027 40.6487C34.8051 40.4185 34.9601 40.2293 35.1679 40.081C35.3949 39.9189 35.5997 39.8566 35.7826 39.8939C35.9654 39.9313 36.1386 40.0651 36.3017 40.2954L37.0078 41.2917L36.6455 41.5504L36.5116 41.3614C36.5146 41.5709 36.4038 41.7559 36.1792 41.9163C36.0247 42.0266 35.8687 42.0697 35.7112 42.0451C35.5538 42.0206 35.4209 41.9319 35.3129 41.7794C35.1925 41.6097 35.1541 41.44 35.1975 41.2704C35.2409 41.1007 35.3519 40.9519 35.5307 40.8244C35.6779 40.7193 35.826 40.6665 35.9748 40.6661C35.8766 40.5171 35.7798 40.4257 35.6847 40.3914C35.5896 40.3571 35.4852 40.3805 35.3716 40.4616C35.246 40.5512 35.1302 40.6906 35.0242 40.8795V40.879ZM36.0669 41.465C36.2069 41.3649 36.2768 41.2402 36.2764 41.0909L36.1578 40.9237C36.0525 40.9186 35.9381 40.96 35.815 41.0481C35.7378 41.1033 35.6878 41.1663 35.6653 41.2371C35.6428 41.3079 35.6538 41.375 35.6985 41.438C35.7397 41.4962 35.7946 41.5274 35.8629 41.5314C35.9313 41.5355 35.9993 41.5134 36.0669 41.4651V41.465ZM37.7284 40.743L36.3463 39.2912C36.3656 39.2727 36.445 39.1913 36.5845 39.0474C36.724 38.9034 36.8292 38.7973 36.8999 38.7296C37.3371 38.3104 37.6764 38.2275 37.918 38.4814C37.9958 38.5633 38.0382 38.6592 38.0452 38.77C38.0522 38.8806 38.0221 38.9782 37.9552 39.063L37.9614 39.0695C38.2141 38.9217 38.4235 38.9349 38.5894 39.1091C38.8678 39.4016 38.7777 39.7677 38.3191 40.2076C38.2528 40.2712 38.1479 40.3656 38.0046 40.4907C37.9703 40.5235 37.9306 40.5605 37.8858 40.6016C37.8408 40.6427 37.8065 40.6734 37.7831 40.694C37.7596 40.7145 37.7413 40.731 37.7285 40.7432L37.7284 40.743ZM37.7428 39.5503L37.5114 39.7723L37.8185 40.095C37.9552 39.9803 38.0408 39.9066 38.0751 39.8736C38.1567 39.7955 38.206 39.7193 38.2233 39.6449C38.2408 39.5707 38.225 39.5077 38.1758 39.4561C38.0693 39.3442 37.925 39.3757 37.7428 39.5503ZM37.2175 38.9985C37.1318 39.0807 37.0567 39.1569 36.9923 39.2269L37.2963 39.5464L37.5374 39.3152C37.6039 39.2516 37.6431 39.1851 37.6552 39.116C37.6672 39.0468 37.6488 38.9863 37.5996 38.9347C37.4992 38.8293 37.3721 38.8506 37.2177 38.9985H37.2175ZM39.5173 38.616C39.2373 38.6363 38.9818 38.5462 38.751 38.3456C38.5201 38.145 38.3958 37.9051 38.3779 37.626C38.3578 37.3448 38.4552 37.0794 38.6706 36.8298C38.884 36.5824 39.1306 36.4486 39.4107 36.4283C39.6905 36.4038 39.9458 36.4918 40.1766 36.6924C40.405 36.8909 40.5296 37.1329 40.5502 37.4182C40.5662 37.6997 40.4685 37.963 40.2571 38.2082C40.0418 38.4578 39.7952 38.5938 39.5173 38.616ZM38.9015 37.5439C38.9143 37.6927 38.9834 37.8217 39.1089 37.9306C39.2343 38.0396 39.3716 38.0909 39.5203 38.0843C39.669 38.0776 39.7947 38.0149 39.8976 37.8957C40.0023 37.7742 40.0478 37.6396 40.034 37.492C40.0203 37.3443 39.9495 37.2149 39.8219 37.1039C39.6963 36.995 39.5593 36.9446 39.4107 36.9534C39.2622 36.962 39.1364 37.026 39.0337 37.1452C38.9329 37.2621 38.8889 37.395 38.9017 37.5439H38.9015Z" fill="#FEFEFE"/>
<path fill-rule="evenodd" clip-rule="evenodd" d="M40.2876 31.8148C40.0659 31.6782 39.8188 31.7222 39.5721 31.7921C38.2761 32.3554 37.7617 32.6336 37.2373 33.8884C37.1428 34.1907 37.6313 34.4917 37.9454 34.2568C38.1192 34.1268 37.9869 34.0243 37.8946 33.9085C37.6251 33.5712 37.8868 33.2093 38.1523 32.9015C38.7242 32.2388 39.9122 31.8803 40.0666 32.9354C40.659 32.8586 40.5976 32.1923 40.2876 31.8148V31.8148Z" stroke="black" stroke-width="2.11662" stroke-miterlimit="22.9256"/>
<path fill-rule="evenodd" clip-rule="evenodd" d="M40.2876 31.8148C40.0659 31.6782 39.8188 31.7222 39.5721 31.7921C38.2761 32.3554 37.7617 32.6336 37.2373 33.8884C37.1428 34.1907 37.6313 34.4917 37.9454 34.2568C38.1192 34.1268 37.9869 34.0243 37.8946 33.9085C37.6251 33.5712 37.8868 33.2093 38.1523 32.9015C38.7242 32.2388 39.9122 31.8803 40.0666 32.9354C40.659 32.8586 40.5976 32.1923 40.2876 31.8148Z" fill="#FEFEFE"/>
<path fill-rule="evenodd" clip-rule="evenodd" d="M39.8951 34.2368C39.7165 34.4803 39.0269 35.7105 38.2884 35.7207C38.2209 35.7217 37.8755 35.4578 37.9727 35.2429C38.0248 35.1278 38.1144 35.1208 38.2826 35.0896C38.8476 34.9845 39.4372 33.8467 39.8401 33.5762C39.9602 33.766 40.0024 34.0908 39.8951 34.237V34.2368Z" stroke="black" stroke-width="2.11662" stroke-miterlimit="22.9256"/>
<path fill-rule="evenodd" clip-rule="evenodd" d="M39.8951 34.2368C39.7165 34.4803 39.0269 35.7105 38.2884 35.7207C38.2209 35.7217 37.8755 35.4578 37.9727 35.2429C38.0248 35.1278 38.1144 35.1208 38.2826 35.0896C38.8476 34.9845 39.4372 33.8467 39.8401 33.5762C39.9602 33.766 40.0024 34.0908 39.8951 34.237V34.2368Z" fill="#FEFEFE"/>
<defs>
<linearGradient id="paint0_linear" x1="25.5638" y1="34.9667" x2="25.3062" y2="2.59884" gradientUnits="userSpaceOnUse">
<stop stop-color="#898989"/>
<stop offset="0.290196" stop-color="#D9DADA"/>
<stop offset="0.568627" stop-color="#F5F5F5"/>
<stop offset="0.760784" stop-color="#9D9E9E"/>
<stop offset="1" stop-color="#FEFEFE"/>
</linearGradient>
<radialGradient id="paint1_radial" cx="0" cy="0" r="1" gradientUnits="userSpaceOnUse" gradientTransform="translate(25.1601 23.5241) rotate(-92.5462) scale(5.00731 9.48937)">
<stop stop-color="#FEFEFE"/>
<stop offset="0.239216" stop-color="#9D9E9E"/>
<stop offset="0.611765" stop-color="#F5F5F5"/>
<stop offset="0.85098" stop-color="#D9DADA"/>
<stop offset="1" stop-color="#898989"/>
</radialGradient>
<radialGradient id="paint2_radial" cx="0" cy="0" r="1" gradientUnits="userSpaceOnUse" gradientTransform="translate(25.2511 24.3208) rotate(-178.488) scale(3.74223 4.07972)">
<stop stop-color="#A76E27"/>
<stop offset="0.658824" stop-color="#F4E9A7"/>
<stop offset="0.8" stop-color="#CFA048"/>
<stop offset="1" stop-color="#996625"/>
</radialGradient>
</defs>
</svg>
