<svg width="100" height="100" viewBox="0 0 100 100" fill="none" xmlns="http://www.w3.org/2000/svg">
<path d="M49.9999 92.7289C73.5984 92.7289 92.7287 73.5986 92.7287 50.0002C92.7287 26.4018 73.5984 7.27145 49.9999 7.27145C26.4015 7.27145 7.27124 26.4018 7.27124 50.0002C7.27124 73.5986 26.4015 92.7289 49.9999 92.7289Z" fill="#FEFEFE" stroke="black" stroke-width="1.41108" stroke-miterlimit="22.9256"/>
<path d="M49.9999 90.2645C72.2373 90.2645 90.2643 72.2375 90.2643 50.0002C90.2643 27.7628 72.2373 9.73582 49.9999 9.73582C27.7626 9.73582 9.7356 27.7628 9.7356 50.0002C9.7356 72.2375 27.7626 90.2645 49.9999 90.2645Z" fill="url(#paint0_linear)" stroke="#919191" stroke-width="0.199938" stroke-miterlimit="22.9256"/>
<path d="M49.9998 82.7261C68.0738 82.7261 82.7257 68.0742 82.7257 50.0002C82.7257 31.9262 68.0738 17.2743 49.9998 17.2743C31.9258 17.2743 17.2739 31.9262 17.2739 50.0002C17.2739 68.0742 31.9258 82.7261 49.9998 82.7261Z" fill="#FEFEFE"/>
<path fill-rule="evenodd" clip-rule="evenodd" d="M49.9997 17.1646C59.0666 17.1646 67.2759 20.8399 73.2179 26.7819C79.1599 32.724 82.8353 40.9329 82.8353 50.0002C82.8353 59.0671 79.1599 67.2764 73.2179 73.2184C67.2759 79.1604 59.0669 82.8358 49.9997 82.8358C40.9328 82.8358 32.7235 79.1604 26.7814 73.2184C20.8394 67.2764 17.1641 59.0671 17.1641 50.0002C17.1641 40.9329 20.8394 32.724 26.7814 26.7819C32.7235 20.8399 40.9328 17.1646 49.9997 17.1646ZM73.0629 26.9366C67.1607 21.0344 59.0064 17.3836 49.9997 17.3836C40.993 17.3836 32.8387 21.0344 26.9365 26.9366C21.0343 32.8388 17.3835 40.9931 17.3835 49.9998C17.3835 59.0065 21.0343 67.1608 26.9365 73.063C32.8387 78.9652 40.993 82.616 49.9997 82.616C59.0064 82.616 67.1607 78.9652 73.0629 73.063C78.9651 67.1608 82.6159 59.0065 82.6159 49.9998C82.6159 40.9931 78.9651 32.8388 73.0629 26.9366Z" fill="#919191"/>
<path d="M49.9998 81.1316C67.1932 81.1316 81.1312 67.1936 81.1312 50.0002C81.1312 32.8068 67.1932 18.8688 49.9998 18.8688C32.8064 18.8688 18.8684 32.8068 18.8684 50.0002C18.8684 67.1936 32.8064 81.1316 49.9998 81.1316Z" fill="black" stroke="black" stroke-width="0.199938" stroke-miterlimit="22.9256"/>
<path fill-rule="evenodd" clip-rule="evenodd" d="M15.9897 69.6068L50.0001 9.27435L83.9415 69.1369L15.9897 69.6068Z" fill="#FEFEFE" stroke="black" stroke-width="1.05816" stroke-miterlimit="22.9256"/>
<path fill-rule="evenodd" clip-rule="evenodd" d="M19.1738 67.1725L50.0001 12.6439L80.8189 67.1599L19.1738 67.1725Z" fill="#FEFEFE" stroke="black" stroke-width="0.52923" stroke-miterlimit="22.9256"/>
<path fill-rule="evenodd" clip-rule="evenodd" d="M47.1904 86.639L49.9998 45.9834L52.8095 86.639H47.1904Z" fill="black"/>
<path fill-rule="evenodd" clip-rule="evenodd" d="M57.8084 85.9807L49.9998 45.9834L63.2362 84.5264L57.8084 85.9807Z" fill="black"/>
<path fill-rule="evenodd" clip-rule="evenodd" d="M67.8947 82.5969L49.9998 45.9834L72.7607 79.7873L67.8947 82.5969Z" fill="black"/>
<path fill-rule="evenodd" clip-rule="evenodd" d="M76.7613 76.7177L49.9998 45.9834L80.7344 72.7446L76.7613 76.7177Z" fill="black"/>
<path fill-rule="evenodd" clip-rule="evenodd" d="M83.804 68.7443L49.9998 45.9834L86.6136 63.878L83.804 68.7443Z" fill="black"/>
<path fill-rule="evenodd" clip-rule="evenodd" d="M88.5431 59.2195L49.9998 45.9834L89.9974 53.792L88.5431 59.2195Z" fill="black"/>
<path fill-rule="evenodd" clip-rule="evenodd" d="M90.6557 48.7927L49.9998 45.9834L90.6557 43.1737V48.7927Z" fill="black"/>
<path fill-rule="evenodd" clip-rule="evenodd" d="M89.9974 38.1747L49.9998 45.9834L88.5431 32.7469L89.9974 38.1747Z" fill="black"/>
<path fill-rule="evenodd" clip-rule="evenodd" d="M86.6136 28.0884L49.9998 45.9834L83.804 23.2224L86.6136 28.0884Z" fill="black"/>
<path fill-rule="evenodd" clip-rule="evenodd" d="M80.7344 19.2218L49.9998 45.9834L76.7613 15.2487L80.7344 19.2218Z" fill="black"/>
<path fill-rule="evenodd" clip-rule="evenodd" d="M72.761 12.1792L49.9998 45.9834L67.8947 9.36949L72.761 12.1792Z" fill="black"/>
<path fill-rule="evenodd" clip-rule="evenodd" d="M63.2362 7.44006L49.9998 45.9834L57.8087 5.98571L63.2362 7.44006Z" fill="black"/>
<path fill-rule="evenodd" clip-rule="evenodd" d="M52.8095 5.32746L49.9998 45.9834L47.1904 5.32746H52.8095Z" fill="black"/>
<path fill-rule="evenodd" clip-rule="evenodd" d="M42.1911 5.98571L49.9998 45.9834L36.7637 7.44006L42.1911 5.98571Z" fill="black"/>
<path fill-rule="evenodd" clip-rule="evenodd" d="M32.1053 9.36949L50 45.9834L27.239 12.1792L32.1053 9.36949Z" fill="black"/>
<path fill-rule="evenodd" clip-rule="evenodd" d="M23.2387 15.2487L50 45.9834L19.2656 19.2218L23.2387 15.2487Z" fill="black"/>
<path fill-rule="evenodd" clip-rule="evenodd" d="M16.1959 23.2221L49.9998 45.9834L13.3862 28.0884L16.1959 23.2221Z" fill="black"/>
<path fill-rule="evenodd" clip-rule="evenodd" d="M11.4568 32.7469L49.9998 45.9834L10.0024 38.1744L11.4568 32.7469Z" fill="black"/>
<path fill-rule="evenodd" clip-rule="evenodd" d="M9.34424 43.1737L49.9998 45.9834L9.34424 48.7927V43.1737Z" fill="black"/>
<path fill-rule="evenodd" clip-rule="evenodd" d="M10.0024 53.792L49.9998 45.9834L11.4568 59.2195L10.0024 53.792Z" fill="black"/>
<path fill-rule="evenodd" clip-rule="evenodd" d="M13.3862 63.878L49.9998 45.9834L16.1956 68.7443L13.3862 63.878Z" fill="black"/>
<path fill-rule="evenodd" clip-rule="evenodd" d="M19.2656 72.7446L50 45.9834L23.2387 76.7177L19.2656 72.7446Z" fill="black"/>
<path fill-rule="evenodd" clip-rule="evenodd" d="M27.239 79.7873L50 45.9834L32.1053 82.5969L27.239 79.7873Z" fill="black"/>
<path fill-rule="evenodd" clip-rule="evenodd" d="M36.7637 84.5264L49.9998 45.9834L42.1911 85.9807L36.7637 84.5264Z" fill="black"/>
<path fill-rule="evenodd" clip-rule="evenodd" d="M47.1904 86.639L49.9998 45.9834L52.8095 86.639H47.1904Z" fill="black"/>
<path fill-rule="evenodd" clip-rule="evenodd" d="M57.8084 85.9807L49.9998 45.9834L63.2362 84.5264L57.8084 85.9807Z" fill="black"/>
<path fill-rule="evenodd" clip-rule="evenodd" d="M20.9941 66.0806L50 15.1588L79.0059 66.0806H20.9941Z" stroke="black" stroke-width="0.264615" stroke-miterlimit="22.9256"/>
<path fill-rule="evenodd" clip-rule="evenodd" d="M39.4444 41.8378C44.1282 40.1087 40.7832 41.0041 45.0842 38.2559C47.8641 36.4796 54.3659 37.0229 57.4015 39.0802C60.9982 41.5171 61.1319 41.6611 63.4461 45.1889C63.4578 45.2067 67.8053 47.5332 64.9982 48.9283C64.8341 49.0099 63.5937 50.4937 60.9914 51.7011C57.6666 53.2435 54.188 54.9791 50.4595 54.8875C43.7217 54.7221 47.1291 54.8156 41.4716 52.3021C40.3026 51.7827 36.1143 50.7082 35.9079 48.8966C35.9056 48.8785 32.9775 46.6539 35.2477 45.218C35.3373 44.1882 38.4315 42.2122 39.4444 41.8381V41.8378Z" fill="black"/>
<path fill-rule="evenodd" clip-rule="evenodd" d="M51.6802 55.7571C45.5638 57.1066 38.7777 51.0244 37.2295 51.6235L40.5703 53.2296C42.0942 54.1412 41.9143 54.2163 43.6421 55.1105C50.2058 58.5075 58.4792 55.4444 63.8626 50.9927C63.8798 50.9785 65.9124 49.0888 64.9788 49.6034C64.0558 50.1118 63.5956 50.9506 62.4649 51.2296C63.1364 50.3969 63.7726 50.3707 64.0885 49.5316C63.7992 49.5419 63.5798 49.4393 63.3824 49.5688C62.1824 50.3561 61.4105 51.715 57.6125 52.8267C55.1598 53.5445 51.5239 53.8344 48.7831 53.6047C43.9531 53.1992 40.6991 50.8691 37.8583 49.9497C36.3111 49.449 35.392 49.9261 33.928 48.961C33.5364 45.4895 37.4836 44.4585 40.3217 42.9536C47.9586 38.9048 51.0003 37.3763 59.0614 41.9705C60.928 43.0342 64.3406 47.0643 66.5183 47.0394C67.1542 44.163 64.5979 43.3222 61.8817 41.4206C60.0785 40.1585 57.6604 38.2741 55.297 37.4728C46.8838 34.6207 42.1991 39.1653 36.7147 43.2711L33.9134 45.6358C28.3992 51.2591 35.7393 49.8374 39.6832 51.829C43.5651 53.7891 45.7502 55.5131 50.4411 55.4923C51.8113 55.4862 51.3307 55.3936 51.6805 55.7567L51.6802 55.7571Z" stroke="black" stroke-width="1.36501" stroke-miterlimit="22.9256"/>
<path fill-rule="evenodd" clip-rule="evenodd" d="M51.6802 55.7571C45.5638 57.1066 38.7777 51.0244 37.2295 51.6235L40.5703 53.2296C42.0942 54.1412 41.9143 54.2163 43.6421 55.1105C50.2058 58.5075 58.4792 55.4444 63.8626 50.9927C63.8798 50.9785 65.9124 49.0888 64.9788 49.6034C64.0558 50.1118 63.5956 50.9506 62.4649 51.2296C63.1364 50.3969 63.7726 50.3707 64.0885 49.5316C63.7992 49.5419 63.5798 49.4393 63.3824 49.5688C62.1824 50.3561 61.4105 51.715 57.6125 52.8267C55.1598 53.5445 51.5239 53.8344 48.7831 53.6047C43.9531 53.1992 40.6991 50.8691 37.8583 49.9497C36.3111 49.449 35.392 49.9261 33.928 48.961C33.5364 45.4895 37.4836 44.4585 40.3217 42.9536C47.9586 38.9048 51.0003 37.3763 59.0614 41.9705C60.928 43.0342 64.3406 47.0643 66.5183 47.0394C67.1542 44.163 64.5979 43.3222 61.8817 41.4206C60.0785 40.1585 57.6604 38.2741 55.297 37.4728C46.8838 34.6207 42.1991 39.1653 36.7147 43.2711L33.9134 45.6358C28.3992 51.2591 35.7393 49.8374 39.6832 51.829C43.5651 53.7891 45.7502 55.5131 50.4411 55.4923C51.8113 55.4862 51.3307 55.3936 51.6805 55.7567L51.6802 55.7571Z" fill="url(#paint1_radial)"/>
<path fill-rule="evenodd" clip-rule="evenodd" d="M43.2258 42.4915C40.0469 44.2407 42.0165 48.6766 42.5398 48.9248C40.4223 48.2484 40.6579 44.9216 40.8543 43.7041C39.7291 44.8513 40.111 47.1817 40.5094 48.3834C39.4854 47.8471 39.2686 45.329 39.6518 44.4371C38.688 44.9115 38.9065 46.5895 38.9673 47.5397C38.2589 47.1031 38.2838 46.6203 38.1194 46.0248C37.9194 46.596 38.0725 46.6196 38.0524 47.2743C38.0324 47.9202 37.8887 48.3092 37.7793 48.7303C38.3197 49.2367 42.922 51.273 43.9935 51.66C46.2883 52.4888 49.4125 52.7124 52.0953 52.7552C55.7464 52.8134 61.1584 51.4849 63.691 48.3374C63.8829 47.9345 63.9108 47.8028 63.8755 46.8478C63.6179 47.0332 63.7295 47.8228 62.6312 48.3529C62.9166 47.728 63.213 46.9588 62.6357 46.0552C62.4639 47.194 62.3603 48.0704 61.4027 48.5403C61.7347 47.851 62.4629 46.1717 61.3956 44.9316C61.1147 46.3177 60.8509 48.3536 59.5972 48.6801C60.3791 47.4018 61.038 45.1688 59.4775 43.1967C59.7422 45.0947 59.1807 48.361 57.8846 49.1358C58.2781 47.962 60.2412 44.3562 57.5649 41.9996C61.3894 55.1208 40.2906 55.6056 43.2262 42.4915H43.2258Z" fill="#FAFAFA"/>
<path fill-rule="evenodd" clip-rule="evenodd" d="M36.5209 41.8355C36.5721 42.3588 36.675 42.2837 37.1973 42.053C39.7649 40.9197 42.7558 36.8747 47.8493 36.0744C52.3292 35.3709 55.7609 35.9653 60.4013 39.3902C61.5239 40.2187 62.3327 41.1702 63.0152 41.0032C63.3145 40.7795 63.4162 40.6446 63.3333 40.3747C62.3935 37.311 51.9163 33.3566 47.7425 34.0197C42.1465 34.9048 39.2394 39.8038 37.1006 41.1145C36.6824 41.3708 36.4718 41.3316 36.5213 41.8352L36.5209 41.8355Z" stroke="black" stroke-width="1.36501" stroke-miterlimit="22.9256"/>
<path fill-rule="evenodd" clip-rule="evenodd" d="M34.5835 48.1102C34.9654 48.5588 35.4799 48.7232 36.1369 48.7827C36.7149 48.8355 36.8942 48.7322 37.1744 48.0753C37.5068 47.2957 37.5922 46.886 37.4514 45.3733C36.1699 45.639 34.7683 46.8704 34.5838 48.1102H34.5835Z" stroke="black" stroke-width="1.36501" stroke-miterlimit="22.9256"/>
<path fill-rule="evenodd" clip-rule="evenodd" d="M34.5835 48.1102C34.9654 48.5588 35.4799 48.7232 36.1369 48.7827C36.7149 48.8355 36.8942 48.7322 37.1744 48.0753C37.5068 47.2957 37.5922 46.886 37.4514 45.3733C36.1699 45.639 34.7683 46.8704 34.5838 48.1102H34.5835Z" fill="#FAFAFA"/>
<path fill-rule="evenodd" clip-rule="evenodd" d="M57.2515 44.3251C57.1101 48.1688 54.0813 51.2396 50.3648 51.2396C46.5584 51.2396 43.4727 48.0183 43.4727 44.0446C43.4727 43.6429 43.5047 43.2491 43.5652 42.8653C44.7235 42.7436 45.9344 42.6789 47.181 42.6789C51.0574 42.6789 54.5897 43.3022 57.2512 44.3251H57.2515Z" stroke="black" stroke-width="1.36501" stroke-miterlimit="22.9256"/>
<path fill-rule="evenodd" clip-rule="evenodd" d="M57.2515 44.3251C57.1101 48.1688 54.0813 51.2396 50.3648 51.2396C46.5584 51.2396 43.4727 48.0183 43.4727 44.0446C43.4727 43.6429 43.5047 43.2491 43.5652 42.8653C44.7235 42.7436 45.9344 42.6789 47.181 42.6789C51.0574 42.6789 54.5897 43.3022 57.2512 44.3251H57.2515Z" fill="url(#paint2_radial)"/>
<path fill-rule="evenodd" clip-rule="evenodd" d="M50.616 42.9213V44.2035C50.616 44.3594 50.4885 44.4873 50.3322 44.4873C50.1762 44.4873 50.0483 44.3598 50.0483 44.2035V42.8698C50.2386 42.8853 50.4279 42.9028 50.6156 42.9213H50.616Z" fill="#2B2A29"/>
<path fill-rule="evenodd" clip-rule="evenodd" d="M50.1959 42.8821L50.5328 44.1394C50.5733 44.2902 50.483 44.4465 50.3322 44.4869C50.1814 44.5274 50.0251 44.4371 49.9846 44.2863L49.5959 42.8358C49.7972 42.8497 49.9972 42.865 50.1959 42.8821Z" fill="#2B2A29"/>
<path fill-rule="evenodd" clip-rule="evenodd" d="M49.7111 42.8439L50.436 44.0996C50.514 44.2348 50.4674 44.4093 50.3321 44.4873C50.1969 44.5653 50.0224 44.5187 49.9444 44.3834L49.0315 42.8025C49.2596 42.8141 49.4862 42.8281 49.7108 42.8442L49.7111 42.8439Z" fill="#2B2A29"/>
<path fill-rule="evenodd" clip-rule="evenodd" d="M49.0495 42.8041L50.3323 44.0869C50.4427 44.1973 50.4427 44.3778 50.3323 44.4882C50.2219 44.5986 50.0414 44.5986 49.931 44.4882L48.2139 42.7711C48.4948 42.7788 48.7731 42.7898 49.0495 42.8044V42.8041Z" fill="#2B2A29"/>
<path fill-rule="evenodd" clip-rule="evenodd" d="M47.9134 42.763L50.2283 44.0996C50.3635 44.1776 50.4101 44.352 50.3321 44.4873C50.2541 44.6225 50.0797 44.6691 49.9444 44.5912L46.7729 42.7601C46.9302 42.7578 47.0882 42.7569 47.2467 42.7569C47.47 42.7569 47.6924 42.7591 47.9134 42.7633V42.763Z" fill="#2B2A29"/>
<path fill-rule="evenodd" clip-rule="evenodd" d="M44.9074 43.0336C44.9478 42.8828 45.1041 42.7925 45.2549 42.8329L50.1316 44.1397C50.2824 44.1802 50.3727 44.3365 50.3322 44.4873C50.2918 44.6381 50.1355 44.7284 49.9847 44.6879L45.108 43.3811C44.9572 43.3407 44.8669 43.1844 44.9074 43.0336Z" fill="black"/>
<path fill-rule="evenodd" clip-rule="evenodd" d="M44.7161 44.4873C44.7161 44.3313 44.8436 44.2035 44.9996 44.2035H50.0484C50.2044 44.2035 50.3322 44.331 50.3322 44.4873C50.3322 44.6433 50.2047 44.7711 50.0484 44.7711H44.9996C44.8436 44.7711 44.7161 44.6436 44.7161 44.4873Z" fill="black"/>
<path fill-rule="evenodd" clip-rule="evenodd" d="M44.9074 45.9407C44.8669 45.7898 44.9572 45.6335 45.108 45.5931L49.9847 44.2863C50.1355 44.2459 50.2918 44.3361 50.3322 44.487C50.3727 44.6378 50.2824 44.7941 50.1316 44.8342L45.2549 46.141C45.1041 46.1814 44.9478 46.0911 44.9074 45.9403V45.9407Z" fill="black"/>
<path fill-rule="evenodd" clip-rule="evenodd" d="M45.4685 47.2953C45.3905 47.1601 45.4371 46.9856 45.5723 46.9076L49.9448 44.3834C50.0801 44.3054 50.2545 44.352 50.3325 44.4873C50.4105 44.6225 50.3639 44.7967 50.2286 44.8746L45.8562 47.3989C45.7209 47.4769 45.5468 47.4303 45.4688 47.295L45.4685 47.2953Z" fill="black"/>
<path fill-rule="evenodd" clip-rule="evenodd" d="M46.3611 48.4584C46.2507 48.3481 46.2507 48.1675 46.3611 48.0571L49.931 44.4873C50.0413 44.3769 50.2219 44.3769 50.3322 44.4873C50.4426 44.5976 50.4426 44.7782 50.3322 44.8886L46.7624 48.4584C46.652 48.5688 46.4714 48.5688 46.3611 48.4584Z" fill="black"/>
<path fill-rule="evenodd" clip-rule="evenodd" d="M47.5242 49.351C47.389 49.273 47.3424 49.0986 47.4204 48.9636L49.9446 44.5912C50.0226 44.4562 50.197 44.4093 50.3323 44.4873C50.4676 44.5653 50.5142 44.7397 50.4362 44.8746L47.9119 49.2471C47.834 49.3824 47.6595 49.429 47.5242 49.351Z" fill="black"/>
<path fill-rule="evenodd" clip-rule="evenodd" d="M48.8788 49.9118C48.728 49.8714 48.6377 49.715 48.6781 49.5642L49.9849 44.6876C50.0254 44.5368 50.1817 44.4465 50.3325 44.4869C50.4833 44.5274 50.5736 44.6837 50.5331 44.8345L49.2263 49.7112C49.1859 49.862 49.0296 49.9523 48.8791 49.9118H48.8788Z" fill="black"/>
<path fill-rule="evenodd" clip-rule="evenodd" d="M50.3322 50.1031C50.1762 50.1031 50.0483 49.9756 50.0483 49.8193V44.7704C50.0483 44.6145 50.1758 44.4866 50.3322 44.4866C50.4881 44.4866 50.616 44.6141 50.616 44.7704V49.8193C50.616 49.9752 50.4885 50.1031 50.3322 50.1031Z" fill="black"/>
<path fill-rule="evenodd" clip-rule="evenodd" d="M51.7858 49.9118C51.635 49.9523 51.4787 49.862 51.4383 49.7112L50.1315 44.8345C50.091 44.6837 50.1813 44.5274 50.3321 44.4869C50.4829 44.4465 50.6393 44.5368 50.6794 44.6876L51.9862 49.5642C52.0266 49.715 51.9363 49.8714 51.7855 49.9118H51.7858Z" fill="black"/>
<path fill-rule="evenodd" clip-rule="evenodd" d="M53.1402 49.351C53.0049 49.429 52.8305 49.3824 52.7525 49.2471L50.2282 44.8746C50.1502 44.7394 50.1968 44.5653 50.3321 44.4873C50.4674 44.4093 50.6415 44.4559 50.7195 44.5912L53.2437 48.9636C53.3217 49.0986 53.2751 49.273 53.1399 49.351H53.1402Z" fill="black"/>
<path fill-rule="evenodd" clip-rule="evenodd" d="M54.3034 48.4584C54.1931 48.5688 54.0125 48.5688 53.9021 48.4584L50.3323 44.8886C50.2219 44.7782 50.2219 44.5976 50.3323 44.4873C50.4426 44.3769 50.6232 44.3769 50.7336 44.4873L54.3034 48.0571C54.4138 48.1675 54.4138 48.3481 54.3034 48.4584Z" fill="black"/>
<path fill-rule="evenodd" clip-rule="evenodd" d="M55.1959 47.2953C55.1179 47.4306 54.9435 47.4772 54.8086 47.3992L50.4361 44.875C50.3008 44.797 50.2542 44.6225 50.3322 44.4876C50.4102 44.3523 50.5847 44.3057 50.7196 44.3837L55.0921 46.908C55.2273 46.986 55.2739 47.1604 55.1959 47.2957V47.2953Z" fill="black"/>
<path fill-rule="evenodd" clip-rule="evenodd" d="M55.757 45.9407C55.7166 46.0915 55.5603 46.1818 55.4095 46.1413L50.5328 44.8345C50.382 44.7941 50.2917 44.6378 50.3322 44.4873C50.3726 44.3365 50.5289 44.2462 50.6797 44.2866L55.5564 45.5934C55.7072 45.6339 55.7975 45.7902 55.757 45.9407Z" fill="black"/>
<path fill-rule="evenodd" clip-rule="evenodd" d="M55.9482 44.4873C55.9482 44.6433 55.8207 44.7711 55.6644 44.7711H50.6156C50.4596 44.7711 50.3318 44.6436 50.3318 44.4873C50.3318 44.3313 50.4593 44.2035 50.6156 44.2035H55.6644C55.8204 44.2035 55.9482 44.331 55.9482 44.4873Z" fill="black"/>
<path fill-rule="evenodd" clip-rule="evenodd" d="M54.6878 43.6138L50.6797 44.6879C50.5289 44.7284 50.3726 44.6381 50.3322 44.4873C50.2917 44.3365 50.382 44.1802 50.5328 44.1397L53.4936 43.3465C53.9024 43.4281 54.3007 43.5174 54.6878 43.6138Z" fill="#2B2A29"/>
<path fill-rule="evenodd" clip-rule="evenodd" d="M53.0286 43.2578L50.7196 44.5908C50.5843 44.6688 50.4102 44.6222 50.3322 44.487C50.2542 44.3517 50.3008 44.1772 50.4361 44.0993L52.1471 43.1112C52.4455 43.1559 52.7393 43.2048 53.0286 43.2572V43.2578Z" fill="#2B2A29"/>
<path fill-rule="evenodd" clip-rule="evenodd" d="M52.1138 43.1067L50.7336 44.4869C50.6232 44.5973 50.4426 44.5973 50.3323 44.4869C50.2219 44.3766 50.2219 44.196 50.3323 44.0857L51.408 43.0099C51.6459 43.0397 51.8811 43.0718 52.1138 43.1064V43.1067Z" fill="#2B2A29"/>
<path fill-rule="evenodd" clip-rule="evenodd" d="M51.5052 43.0222L50.7195 44.3831C50.6415 44.5183 50.4671 44.5649 50.3321 44.487C50.1968 44.409 50.1502 44.2345 50.2282 44.0993L50.892 42.9497C51.0981 42.9721 51.3027 42.996 51.5052 43.0219V43.0222Z" fill="#2B2A29"/>
<path fill-rule="evenodd" clip-rule="evenodd" d="M51.0334 42.9656L50.6794 44.2866C50.6389 44.4374 50.4826 44.5277 50.3321 44.4873C50.1813 44.4468 50.091 44.2905 50.1315 44.1397L50.4619 42.9064C50.6538 42.9245 50.8444 42.9442 51.0334 42.9656Z" fill="#2B2A29"/>
<path fill-rule="evenodd" clip-rule="evenodd" d="M50.616 42.9213V44.2035C50.616 44.3594 50.4885 44.4873 50.3322 44.4873C50.1762 44.4873 50.0483 44.3598 50.0483 44.2035V42.8698C50.2386 42.8853 50.4279 42.9028 50.6156 42.9213H50.616Z" fill="#2B2A29"/>
<path fill-rule="evenodd" clip-rule="evenodd" d="M50.1959 42.8821L50.5328 44.1394C50.5733 44.2902 50.483 44.4465 50.3322 44.4869C50.1814 44.5274 50.0251 44.4371 49.9846 44.2863L49.5959 42.8358C49.7972 42.8497 49.9972 42.865 50.1959 42.8821Z" fill="#2B2A29"/>
<path fill-rule="evenodd" clip-rule="evenodd" d="M53.8044 43.2012C53.9746 43.6316 54.0678 44.1005 54.0678 44.5912C54.0678 46.6814 52.373 48.3759 50.283 48.3759C48.1928 48.3759 46.4983 46.6814 46.4983 44.5912C46.4983 43.84 46.7174 43.14 47.0947 42.5514H47.106C49.5076 42.5514 51.7801 42.785 53.8044 43.2015V43.2012Z" stroke="black" stroke-width="1.36501" stroke-miterlimit="22.9256"/>
<path fill-rule="evenodd" clip-rule="evenodd" d="M53.8044 43.2012C53.9746 43.6316 54.0678 44.1005 54.0678 44.5912C54.0678 46.6814 52.373 48.3759 50.283 48.3759C48.1928 48.3759 46.4983 46.6814 46.4983 44.5912C46.4983 43.84 46.7174 43.14 47.0947 42.5514H47.106C49.5076 42.5514 51.7801 42.785 53.8044 43.2015V43.2012Z" fill="black"/>
<path fill-rule="evenodd" clip-rule="evenodd" d="M53.6584 41.3912C54.5487 41.3912 55.2707 42.1129 55.2707 43.0035C55.2707 43.8941 54.549 44.6157 53.6584 44.6157C52.7678 44.6157 52.0461 43.8941 52.0461 43.0035C52.0461 42.1132 52.7678 41.3912 53.6584 41.3912Z" stroke="black" stroke-width="1.36501" stroke-miterlimit="22.9256"/>
<path fill-rule="evenodd" clip-rule="evenodd" d="M53.6584 41.3912C54.5487 41.3912 55.2707 42.1129 55.2707 43.0035C55.2707 43.8941 54.549 44.6157 53.6584 44.6157C52.7678 44.6157 52.0461 43.8941 52.0461 43.0035C52.0461 42.1132 52.7678 41.3912 53.6584 41.3912Z" fill="#FEFEFE"/>
<path d="M21.2313 32.8065L20.6491 33.8272L16.1831 31.28L17.6388 28.7279L18.5957 29.2738L17.7222 30.8049L21.2313 32.8065ZM21.9403 28.6204L23.3167 29.6981L22.5921 30.6236L18.5439 27.4544C18.6828 27.2771 18.8332 27.081 18.9954 26.8658C19.1604 26.6467 19.329 26.4276 19.5012 26.2078C19.9478 25.6373 20.4012 25.3205 20.8607 25.2574C21.3099 25.1923 21.7309 25.3133 22.1241 25.6214C22.5021 25.9172 22.717 26.3062 22.7685 26.7881C22.8164 27.267 22.6636 27.7321 22.3106 28.1832C22.1536 28.3839 22.03 28.5295 21.94 28.6208L21.9403 28.6204ZM20.4413 26.7939C20.4384 26.7978 20.4258 26.8159 20.4035 26.8483C20.3811 26.8806 20.3455 26.9305 20.296 26.9975C20.2465 27.0645 20.1931 27.1347 20.1358 27.2078L21.0614 27.9321C21.2073 27.7852 21.3271 27.6522 21.4209 27.5327C21.5449 27.3745 21.6051 27.212 21.6021 27.045C21.5992 26.8781 21.5148 26.7295 21.3491 26.5997C21.0368 26.3554 20.7342 26.4201 20.4416 26.7939H20.4413ZM24.0461 21.3166L24.8966 20.4946L26.3814 24.5143C26.5403 24.9396 26.6015 25.3075 26.5652 25.6185C26.529 25.9295 26.3892 26.2023 26.1461 26.4373C26.0439 26.536 25.9222 26.6214 25.7807 26.6933C25.6393 26.7654 25.5218 26.8056 25.428 26.8143L25.0293 25.8101C25.1788 25.7816 25.294 25.7282 25.3749 25.6499C25.5121 25.5172 25.5562 25.3794 25.5066 25.2366L25.4471 25.0797L21.3002 23.9703L22.2562 23.0464L25.0422 23.847L24.0465 21.316L24.0461 21.3166ZM32.4642 21.3687L31.5011 22.0422L29.1856 18.7319L27.7112 19.7632L30.0267 23.0736L29.0636 23.7473L26.1167 19.5344L29.5173 17.1558L32.4642 21.3687ZM37.3564 18.9144L36.2852 19.3982L34.6224 15.7167L32.9823 16.4574L34.6451 20.139L33.5739 20.6228L31.4577 15.9371L35.2399 14.229L37.356 18.9147L37.3564 18.9144ZM39.0809 18.2603L37.9454 18.5904L38.5625 13.0568L39.5712 12.7636L43.0589 17.104L41.8528 17.4545L41.1421 16.5367L39.1884 17.1047L39.0806 18.2603H39.0809ZM40.4117 15.6018L39.4557 14.3652L39.3046 15.9238L40.4117 15.6018ZM59.428 17.8167L58.3008 17.4836L59.7581 12.5529L60.8853 12.886L60.2503 15.0342L62.4982 13.3626L63.8506 13.7623L61.3257 15.4898L62.5412 18.7367L61.1115 18.3141L60.1212 15.471L59.428 17.8167ZM63.7804 16.4714C64.1325 15.7989 64.649 15.3562 65.3296 15.1435C66.0169 14.9287 66.7185 15.0086 67.4344 15.3833C68.1457 15.7558 68.6124 16.2739 68.8344 16.937C69.0651 17.605 68.9939 18.2946 68.6214 19.0063C68.2625 19.6917 67.7373 20.1351 67.0457 20.3367C66.3587 20.5406 65.6658 20.4597 64.9674 20.094C64.2603 19.7238 63.7914 19.2047 63.561 18.5367C63.3348 17.871 63.4079 17.1827 63.7804 16.471V16.4714ZM64.8865 17.0506C64.6846 17.4367 64.6409 17.8312 64.7558 18.2341C64.8687 18.6306 65.1098 18.9251 65.4784 19.1183C65.8949 19.3364 66.2849 19.3775 66.649 19.2422C67.0176 19.0979 67.3062 18.8263 67.5153 18.4273C67.7312 18.0154 67.779 17.6173 67.6593 17.2341C67.5373 16.8442 67.292 16.5526 66.9234 16.3597C66.5415 16.1597 66.1603 16.1231 65.7787 16.2494C65.3975 16.3759 65.1001 16.6429 64.8865 17.051V17.0506ZM69.2205 22.4499L68.2949 21.7254L71.4641 17.6772L72.3952 18.406L72.3088 21.0901L74.8243 20.3076L75.6974 20.9914L72.5282 25.0399L71.603 24.3153L73.6224 21.736L71.2586 22.4318L71.1256 22.3276L71.2263 19.8878L69.2208 22.4499H69.2205ZM76.246 29.0644L75.4693 28.1826L78.5009 25.5127L77.3116 24.1622L74.2803 26.8321L73.5036 25.9502L77.3618 22.5522L80.1048 25.6664L76.2466 29.0644H76.246ZM77.3501 30.5434L76.7065 29.5515L82.1828 28.5457L82.7546 29.4269L79.6051 34.0184L78.9213 32.9647L79.5951 32.0198L78.4877 30.313L77.3501 30.5434ZM80.2796 31.0505L81.1877 29.7783L79.6517 30.0832L80.2796 31.0505ZM81.6181 38.4789L81.1346 37.4077L83.0223 36.5553L82.2514 34.8482L80.3637 35.7006L79.8799 34.6294L84.5656 32.5136L85.0494 33.5848L83.2553 34.3948L84.0261 36.1019L85.8203 35.2919L86.3038 36.3631L81.6181 38.4789ZM85.9271 42.2387L82.3019 40.7384L82.0708 39.7365L87.0805 38.5802L87.3449 39.7252L84.2316 40.4436L87.8568 41.9436L88.0882 42.9455L83.0786 44.1018L82.8142 42.9569L85.9274 42.2384L85.9271 42.2387ZM86.7352 48.4655L83.377 46.4368L83.2993 45.4115L88.4261 45.0229L88.5151 46.1947L85.329 46.4364L88.6873 48.4652L88.7649 49.4908L83.6381 49.8795L83.5491 48.7076L86.7352 48.4659V48.4655ZM89.8054 45.7284L89.8885 46.827C89.752 46.8374 89.6591 46.8788 89.6109 46.9513C89.5623 47.0238 89.5442 47.1429 89.5568 47.3089C89.5688 47.4652 89.6028 47.573 89.6588 47.6325C89.7148 47.6921 89.8138 47.7167 89.9552 47.706L90.0387 48.8047C89.6879 48.8413 89.3941 48.7235 89.1575 48.4516C88.9212 48.1846 88.7856 47.8245 88.7513 47.3701C88.7148 46.8866 88.7921 46.4992 88.9837 46.207C89.1753 45.9151 89.4491 45.7555 89.8057 45.7284H89.8054Z" fill="black"/>
<path d="M97.8239 56.0467C97.1161 54.7101 96.3517 53.4344 95.5398 52.2228C95.8796 51.8082 96.2132 51.3843 96.5414 50.9516C96.8511 51.3972 97.1556 51.8516 97.453 52.3144C97.2996 52.5095 97.1453 52.7027 96.9889 52.8946C96.8003 52.5953 96.6087 52.2995 96.4145 52.0069C96.2928 52.1603 96.1702 52.3121 96.0466 52.4632C96.343 52.9199 96.6333 53.3852 96.9168 53.8597C97.3343 53.3684 97.7427 52.8645 98.1443 52.3477C97.6323 51.5396 97.1003 50.7568 96.5511 50.0002C96.0013 50.7565 95.4339 51.4869 94.8495 52.1898C95.6624 53.3836 96.4275 54.6419 97.1378 55.9606C96.7653 56.3658 96.3877 56.7613 96.0055 57.147C95.7566 56.6642 95.5006 56.1894 95.2375 55.7228C95.4051 55.5474 95.5712 55.37 95.7372 55.1904C95.91 55.4917 96.0805 55.7962 96.2482 56.104C96.3822 55.9613 96.5165 55.8176 96.6504 55.6726C96.3857 55.1904 96.1148 54.7166 95.8359 54.2516C95.4139 54.7267 94.9861 55.1885 94.5508 55.6373C95.0061 56.4292 95.4395 57.246 95.8508 58.0858C96.5233 57.4357 97.1809 56.7554 97.8232 56.0467H97.8239Z" fill="#9B6826"/>
<path d="M96.0542 64.2622C95.5908 62.822 95.0603 61.4324 94.4707 60.0988C94.8768 59.7496 95.2801 59.3904 95.6772 59.0208C95.9056 59.5133 96.1263 60.0137 96.339 60.5214C96.1535 60.6868 95.9684 60.8505 95.781 61.012C95.6471 60.6845 95.5092 60.3599 95.3691 60.0383C95.2225 60.168 95.0752 60.2965 94.9277 60.4237C95.1403 60.925 95.3461 61.4337 95.5419 61.9499C96.038 61.5386 96.5286 61.1133 97.0131 60.6738C96.6493 59.7881 96.261 58.9253 95.8506 58.0852C95.1791 58.7354 94.4934 59.3561 93.796 59.9463C94.3898 61.2625 94.9238 62.635 95.3933 64.0576C94.9555 64.3916 94.515 64.7152 94.0714 65.0278C93.9108 64.5091 93.7413 63.9968 93.5639 63.4913C93.7591 63.3479 93.9539 63.2023 94.149 63.0544C94.2665 63.3813 94.3811 63.7107 94.4924 64.0431C94.6493 63.9262 94.8073 63.8081 94.9636 63.6884C94.7872 63.1677 94.6027 62.6538 94.4095 62.1473C93.9118 62.5418 93.4095 62.9217 92.9031 63.2874C93.2128 64.1466 93.4969 65.0266 93.7549 65.9256C94.5306 65.4029 95.2976 64.8486 96.0539 64.2625L96.0542 64.2622Z" fill="#9B6826"/>
<path d="M92.8753 72.043C92.6695 70.5443 92.3908 69.0835 92.0439 67.667C92.5054 67.3945 92.9643 67.111 93.4206 66.8168C93.5591 67.3417 93.6898 67.8728 93.8099 68.41C93.5979 68.5408 93.3863 68.6692 93.1743 68.7954C93.1002 68.4492 93.0216 68.1058 92.9397 67.7647C92.7721 67.867 92.6051 67.9673 92.4374 68.0667C92.5594 68.5974 92.6724 69.1343 92.7746 69.677C93.3352 69.3589 93.8928 69.0262 94.4471 68.678C94.2442 67.7427 94.0128 66.8249 93.7552 65.9262C92.9801 66.4489 92.1967 66.9401 91.4067 67.3993C91.7607 68.799 92.0475 70.244 92.2611 71.7268C91.7714 71.9792 91.2808 72.2203 90.7892 72.4514C90.7219 71.9122 90.6452 71.3786 90.5578 70.8498C90.776 70.743 90.9931 70.6336 91.2099 70.5223C91.2692 70.8647 91.3248 71.209 91.376 71.5553C91.5517 71.4679 91.7274 71.3789 91.9022 71.2886C91.82 70.7449 91.7274 70.2068 91.6258 69.6741C91.0672 69.9757 90.5067 70.2621 89.9436 70.5333C90.098 71.4336 90.2242 72.3498 90.3213 73.2799C91.1756 72.9003 92.028 72.4883 92.8753 72.0436V72.043Z" fill="#9B6826"/>
<path d="M88.3904 79.1484C88.4487 77.6371 88.4283 76.1501 88.3331 74.6951C88.8344 74.5067 89.3367 74.3074 89.837 74.0977C89.882 74.6388 89.9172 75.1844 89.9428 75.7339C89.7117 75.8258 89.4804 75.9151 89.2499 76.0025C89.2367 75.6491 89.2192 75.297 89.1978 74.9468C89.0153 75.0184 88.8334 75.0883 88.6506 75.1569C88.6781 75.7009 88.6956 76.2494 88.7027 76.8012C89.3098 76.5853 89.9169 76.3549 90.5234 76.1086C90.4865 75.1527 90.4185 74.2087 90.3214 73.2786C89.4671 73.6582 88.6101 74.0051 87.7522 74.3203C87.8564 75.7604 87.8872 77.2329 87.8406 78.7303C87.3153 78.8941 86.7901 79.0465 86.2661 79.1882C86.2927 78.6458 86.3095 78.1067 86.3157 77.5711C86.5487 77.5031 86.7817 77.4335 87.0157 77.3614C87.0147 77.7086 87.0085 78.0575 86.9988 78.4077C87.1869 78.352 87.3755 78.295 87.5639 78.2361C87.5771 77.6866 87.5797 77.1407 87.5716 76.5983C86.9687 76.798 86.3671 76.9827 85.7658 77.1523C85.7613 78.0662 85.727 78.9902 85.6616 79.9232C86.5687 79.6973 87.4797 79.4394 88.3904 79.1487V79.1484Z" fill="#9B6826"/>
<path d="M82.7447 85.3704C83.0625 83.8917 83.299 82.4238 83.4579 80.974C83.9838 80.8753 84.5126 80.7659 85.0421 80.6455C84.9925 81.1863 84.9333 81.73 84.8628 82.2756C84.6191 82.3261 84.3764 82.3746 84.1336 82.4206C84.1822 82.0701 84.2262 81.7202 84.265 81.3717C84.0735 81.4105 83.8812 81.4481 83.6906 81.4843C83.6236 82.0248 83.546 82.5678 83.4576 83.1128C84.0922 83.0057 84.7304 82.8833 85.3702 82.7458C85.499 81.7979 85.5951 80.8565 85.6615 79.9238C84.7534 80.1497 83.8495 80.3429 82.9502 80.505C82.8036 81.9419 82.5793 83.3973 82.2751 84.8642C81.7288 84.9345 81.1851 84.9943 80.645 85.0435C80.7651 84.5137 80.8745 83.9856 80.9732 83.4587C81.2143 83.4325 81.456 83.4037 81.6987 83.3733C81.6369 83.715 81.5715 84.0578 81.501 84.4011C81.6958 84.3788 81.891 84.3552 82.0871 84.3299C82.1948 83.7908 82.2919 83.2536 82.3783 82.7183C81.7499 82.8108 81.1253 82.8888 80.5039 82.9523C80.3415 83.8513 80.1483 84.7555 79.9224 85.6629C80.8554 85.5976 81.7971 85.5005 82.7447 85.3717V85.3704Z" fill="#9B6826"/>
<path d="M76.1088 90.5231C76.678 89.1218 77.1644 87.7166 77.5712 86.316C78.1068 86.3095 78.646 86.293 79.188 86.2661C79.046 86.7904 78.8942 87.3157 78.7301 87.8409C78.4822 87.8487 78.234 87.8542 77.9881 87.8577C78.0958 87.5205 78.1991 87.1836 78.2978 86.8471C78.1026 86.8522 77.9068 86.8561 77.7127 86.8587C77.5531 87.3794 77.3826 87.9011 77.2017 88.4224C77.846 88.4263 78.4945 88.416 79.1486 88.3911C79.4398 87.4794 79.6974 86.5691 79.9233 85.6616C78.9903 85.727 78.0664 85.7616 77.1521 85.7658C76.7602 87.1558 76.2881 88.5506 75.7337 89.9425C75.1839 89.9176 74.6386 89.8823 74.0975 89.837C74.3075 89.3364 74.5062 88.8351 74.6949 88.3334C74.9366 88.3493 75.1803 88.3629 75.424 88.3742C75.3049 88.7004 75.1803 89.0263 75.0525 89.3525C75.2483 89.3645 75.4444 89.3745 75.6412 89.3836C75.8415 88.8716 76.0295 88.3587 76.2068 87.8464C75.5722 87.8292 74.9431 87.7979 74.3201 87.7525C74.0053 88.6101 73.6583 89.4671 73.2791 90.3218C74.2088 90.4189 75.1535 90.4865 76.1091 90.5231H76.1088Z" fill="#9B6826"/>
<path d="M68.677 94.4476C69.4818 93.1664 70.2054 91.8671 70.8485 90.5587C71.3769 90.6457 71.9109 90.7227 72.4497 90.7901C72.2193 91.282 71.9779 91.7722 71.7252 92.2616C71.4795 92.2263 71.2345 92.1888 70.9909 92.1493C71.1559 91.8363 71.3161 91.5224 71.4721 91.2079C71.2786 91.1791 71.0854 91.149 70.8931 91.1176C70.6459 91.603 70.3879 92.0868 70.1187 92.5687C70.752 92.6845 71.3934 92.7875 72.0417 92.8758C72.4863 92.0286 72.8986 91.1768 73.2779 90.3218C72.3481 90.2247 71.432 90.0985 70.5313 89.9441C69.9041 91.2444 69.1967 92.5363 68.4087 93.8104C67.8715 93.69 67.3401 93.5603 66.8155 93.4214C67.1093 92.9648 67.3932 92.5062 67.666 92.0451C67.9016 92.1027 68.1385 92.1583 68.3766 92.2124C68.2022 92.5127 68.0236 92.8124 67.8401 93.1107C68.031 93.1564 68.2226 93.2004 68.4152 93.2441C68.7009 92.7742 68.9757 92.3023 69.2391 91.8286C68.6174 91.7011 68.0035 91.5606 67.3977 91.4075C66.9385 92.1968 66.4472 92.9807 65.9246 93.7557C66.8233 94.0133 67.7414 94.2444 68.6763 94.4473L68.677 94.4476Z" fill="#9B6826"/>
<path d="M60.6737 97.0143C61.6902 95.8936 62.63 94.7411 63.4918 93.5648C63.997 93.7428 64.5089 93.9117 65.028 94.0722C64.7154 94.5162 64.3918 94.957 64.0578 95.3945C63.8219 95.3165 63.5873 95.2373 63.3542 95.1557C63.5714 94.8761 63.784 94.5952 63.9924 94.3127C63.8067 94.2505 63.6225 94.1871 63.4387 94.1227C63.1106 94.5573 62.7717 94.989 62.4222 95.4162C63.0258 95.6411 63.6394 95.8544 64.2626 96.0551C64.8484 95.2984 65.4031 94.5314 65.9257 93.7564C65.0267 93.4984 64.1471 93.214 63.2876 92.9043C62.4429 94.0751 61.5203 95.2233 60.5213 96.3398C60.0135 96.1275 59.5135 95.9068 59.0206 95.6784C59.3902 95.2803 59.7498 94.8784 60.0989 94.4719C60.3206 94.5696 60.5442 94.6661 60.7695 94.7609C60.5452 95.0263 60.3167 95.2897 60.0841 95.5515C60.2643 95.6298 60.4449 95.7072 60.6271 95.7835C60.9905 95.3709 61.3436 94.9544 61.686 94.534C61.0963 94.2997 60.5161 94.0541 59.9468 93.7975C59.3566 94.4946 58.7358 95.1803 58.0857 95.8521C58.9255 96.2631 59.7889 96.6512 60.6743 97.0146L60.6737 97.0143Z" fill="#9B6826"/>
<path d="M52.347 98.1444C53.5415 97.2169 54.668 96.246 55.722 95.2382C56.1887 95.5013 56.6634 95.7576 57.1463 96.0065C56.7605 96.389 56.3651 96.7667 55.9602 97.1389C55.7414 97.0211 55.5246 96.902 55.3091 96.7809C55.5715 96.5437 55.8304 96.3039 56.0848 96.0625C55.913 95.9686 55.7421 95.8742 55.5725 95.7784C55.1735 96.1489 54.7648 96.5146 54.346 96.8748C54.9013 97.2013 55.468 97.5182 56.0463 97.8243C56.755 97.1816 57.435 96.5237 58.0854 95.8515C57.2456 95.4408 56.4288 95.0068 55.6369 94.5518C54.6004 95.5573 53.4913 96.5269 52.3143 97.4534C51.8515 97.1563 51.3968 96.8518 50.9515 96.5418C51.3842 96.2139 51.8081 95.88 52.2227 95.5402C52.4243 95.6754 52.6276 95.8091 52.8331 95.9415C52.5661 96.1638 52.2952 96.3839 52.0204 96.6013C52.1842 96.7097 52.3489 96.8172 52.5149 96.9237C52.9441 96.5806 53.3641 96.2317 53.7748 95.8777C53.2347 95.5444 52.7059 95.2017 52.1894 94.8499C51.4865 95.434 50.7564 96.0017 49.9998 96.5515C50.7561 97.101 51.5389 97.6327 52.3473 98.1444H52.347Z" fill="#9B6826"/>
<path d="M43.9539 97.8246C45.2904 97.1162 46.5658 96.3525 47.7774 95.5405C48.192 95.8803 48.6159 96.214 49.0483 96.5421C48.603 96.8525 48.1486 97.1567 47.6855 97.4537C47.4904 97.3 47.2972 97.1453 47.1059 96.9893C47.405 96.8007 47.7011 96.6091 47.9933 96.4149C47.8399 96.2929 47.6881 96.1703 47.5373 96.047C47.0804 96.344 46.615 96.634 46.1409 96.9172C46.6318 97.3343 47.136 97.7434 47.6525 98.1447C48.4609 97.633 49.2438 97.1013 50.0001 96.5518C49.2438 96.002 48.5134 95.4343 47.8108 94.8502C46.6169 95.6628 45.3587 96.4285 44.0396 97.1392C43.6348 96.7667 43.239 96.389 42.8535 96.0065C43.3364 95.758 43.8111 95.502 44.2778 95.2382C44.4532 95.4059 44.6309 95.5725 44.8102 95.7382C44.5092 95.9114 44.2047 96.0816 43.8966 96.2489C44.0393 96.3835 44.1833 96.5182 44.3286 96.6515C44.8105 96.3871 45.2839 96.1156 45.7493 95.8366C45.2742 95.4153 44.8124 94.9871 44.3639 94.5522C43.5717 95.0072 42.7548 95.4408 41.915 95.8518C42.5652 96.524 43.2454 97.1822 43.9542 97.8246H43.9539Z" fill="#9B6826"/>
<path d="M35.7371 96.0547C37.1773 95.5907 38.5669 95.0609 39.9005 94.4716C40.2494 94.8777 40.6089 95.28 40.9785 95.678C40.486 95.9068 39.9856 96.1275 39.4779 96.3395C39.3125 96.1544 39.1488 95.9683 38.9873 95.7816C39.3151 95.6476 39.6397 95.5104 39.9611 95.3696C39.8313 95.223 39.7031 95.0761 39.5759 94.9282C39.0747 95.1412 38.5656 95.3463 38.0497 95.5421C38.4607 96.0382 38.8863 96.5288 39.3258 97.0136C40.2112 96.6502 41.0743 96.2622 41.9144 95.8512C41.2643 95.1793 40.6436 94.4939 40.0533 93.7965C38.7368 94.3897 37.3646 94.9246 35.9417 95.3939C35.6077 94.9564 35.2841 94.5153 34.9715 94.0716C35.4902 93.9111 36.0025 93.7418 36.5077 93.5641C36.6511 93.7596 36.7967 93.9544 36.9443 94.1489C36.6177 94.2667 36.2883 94.3813 35.9559 94.4923C36.0727 94.6496 36.1909 94.8068 36.3106 94.9638C36.8313 94.7874 37.3452 94.6026 37.8517 94.4094C37.4572 93.912 37.0773 93.4101 36.7119 92.9033C35.8524 93.213 34.9728 93.4975 34.0737 93.7551C34.5964 94.5305 35.1511 95.2975 35.7368 96.0541L35.7371 96.0547Z" fill="#9B6826"/>
<path d="M27.9573 92.8761C29.456 92.6706 30.9172 92.392 32.3333 92.0454C32.6058 92.5065 32.8897 92.9651 33.1835 93.4217C32.6586 93.5606 32.1275 93.6903 31.5903 93.8107C31.4599 93.5997 31.3311 93.3878 31.2052 93.1755C31.5508 93.101 31.8945 93.0227 32.2356 92.9402C32.1337 92.7732 32.033 92.6062 31.9337 92.4386C31.4026 92.5606 30.8661 92.6732 30.3233 92.7761C30.6411 93.3363 30.9741 93.8942 31.3224 94.4483C32.2576 94.2454 33.1754 94.0143 34.0744 93.7567C33.5518 92.9813 33.0609 92.1978 32.6013 91.4085C31.2016 91.7622 29.7567 92.0486 28.2738 92.2622C28.0217 91.7729 27.7803 91.2826 27.5496 90.7907C28.0884 90.7231 28.6221 90.646 29.1509 90.5593C29.258 90.7768 29.3674 90.9946 29.4784 91.2117C29.1363 91.271 28.792 91.326 28.4454 91.3771C28.5331 91.5525 28.6217 91.7282 28.712 91.9033C29.2557 91.8211 29.7939 91.7286 30.3266 91.6269C30.025 91.068 29.7386 90.5072 29.467 89.9448C28.5667 90.0995 27.6509 90.226 26.7205 90.3227C27.1001 91.1771 27.5124 92.0295 27.9567 92.8768L27.9573 92.8761Z" fill="#9B6826"/>
<path d="M20.8511 88.3911C22.3624 88.4487 23.8494 88.4279 25.3048 88.3331C25.4928 88.8347 25.6921 89.3364 25.9022 89.837C25.3611 89.8823 24.8155 89.9173 24.2659 89.9425C24.174 89.7114 24.0844 89.4807 23.9967 89.2496C24.3507 89.2367 24.7025 89.2192 25.053 89.1975C24.9815 89.0153 24.9116 88.8328 24.8426 88.6506C24.2986 88.6784 23.7504 88.6959 23.1983 88.7027C23.4138 89.3098 23.6446 89.9169 23.8909 90.5231C24.8468 90.4862 25.7908 90.4185 26.7206 90.3218C26.341 89.4674 25.9941 88.6101 25.6795 87.7525C24.2394 87.8571 22.7669 87.8878 21.2695 87.8406C21.1058 87.315 20.953 86.7901 20.8116 86.2658C21.354 86.293 21.8931 86.3095 22.4287 86.316C22.4964 86.549 22.5663 86.782 22.6384 87.0153C22.2909 87.014 21.9423 87.0085 21.5922 86.9985C21.6478 87.1865 21.7048 87.3752 21.7637 87.5636C22.3132 87.5768 22.8592 87.5794 23.4015 87.5716C23.2015 86.9694 23.0168 86.3671 22.8472 85.7655C21.9336 85.7613 21.0097 85.727 20.0767 85.6613C20.3022 86.5687 20.5605 87.4791 20.8511 88.3907V88.3911Z" fill="#9B6826"/>
<path d="M14.6296 82.7455C16.1086 83.063 17.5769 83.2998 19.0267 83.4581C19.1254 83.9846 19.2348 84.5131 19.3552 85.0425C18.8144 84.9937 18.2707 84.9338 17.7251 84.8636C17.6746 84.6202 17.6261 84.3772 17.5801 84.1348C17.9306 84.183 18.2801 84.2267 18.629 84.2659C18.5901 84.0739 18.5526 83.8824 18.5167 83.6911C17.9759 83.6244 17.4332 83.5468 16.8882 83.4581C16.9953 84.093 17.1176 84.7309 17.2552 85.3704C18.2031 85.4992 19.1445 85.5963 20.0772 85.6619C19.8513 84.7545 19.6577 83.8503 19.4959 82.951C18.0594 82.8047 16.6037 82.5808 15.1371 82.2759C15.0665 81.73 15.007 81.1866 14.9578 80.6458C15.4872 80.7662 16.0157 80.8756 16.5422 80.9743C16.5688 81.2157 16.5973 81.4575 16.628 81.6995C16.2863 81.6384 15.9435 81.5727 15.6002 81.5024C15.6228 81.6973 15.6465 81.8927 15.6717 82.0882C16.2105 82.1963 16.7481 82.2931 17.2833 82.3791C17.1908 81.751 17.1128 81.1261 17.0494 80.5047C16.15 80.3429 15.2458 80.1494 14.3384 79.9235C14.4044 80.8562 14.5008 81.7976 14.6296 82.7458V82.7455Z" fill="#9B6826"/>
<path d="M9.47607 76.1087C10.8777 76.6776 12.2828 77.1646 13.6832 77.5708C13.6896 78.1067 13.7061 78.6455 13.733 79.1882C13.209 79.0465 12.6838 78.8941 12.1586 78.7303C12.1508 78.4821 12.145 78.2342 12.1417 77.9876C12.479 78.0957 12.8155 78.1992 13.1524 78.2979C13.1472 78.1022 13.1434 77.9073 13.1411 77.7122C12.6201 77.553 12.0987 77.3831 11.5773 77.2015C11.5735 77.8459 11.5835 78.495 11.6087 79.1487C12.5204 79.4394 13.4307 79.6973 14.3382 79.9232C14.2721 78.9902 14.2382 78.0659 14.2336 77.1523C12.8437 76.7598 11.4489 76.2879 10.057 75.7336C10.0822 75.1837 10.1172 74.6381 10.1625 74.097C10.6631 74.3074 11.1647 74.5064 11.666 74.6951C11.6502 74.9368 11.6366 75.1802 11.6249 75.4239C11.299 75.3045 10.9728 75.1808 10.6469 75.052C10.6353 75.2478 10.6249 75.4446 10.6159 75.641C11.1282 75.8407 11.6408 76.0294 12.1531 76.2067C12.1702 75.5721 12.2016 74.943 12.2469 74.3197C11.3893 74.0051 10.5324 73.6582 9.67769 73.2783C9.5806 74.2083 9.51329 75.1523 9.47607 76.1083V76.1087Z" fill="#9B6826"/>
<path d="M5.55225 68.6776C6.83346 69.4825 8.13248 70.2061 9.4412 70.8491C9.35415 71.3776 9.27713 71.9116 9.20981 72.4504C8.71823 72.22 8.22762 71.9786 7.73863 71.7262C7.77423 71.4802 7.81145 71.2352 7.85093 70.9915C8.16419 71.1563 8.47778 71.3168 8.79234 71.4724C8.82115 71.2789 8.85157 71.086 8.88296 70.8935C8.39752 70.6462 7.91371 70.3883 7.43152 70.1191C7.31566 70.7524 7.21307 71.3938 7.1244 72.0423C7.97164 72.487 8.82373 72.899 9.67842 73.2783C9.77551 72.3482 9.90172 71.4323 10.0564 70.532C8.75577 69.9045 7.4642 69.1971 6.18978 68.409C6.31017 67.8718 6.43994 67.3408 6.57877 66.8155C7.0354 67.1097 7.4943 67.3932 7.95546 67.666C7.89785 67.9016 7.84187 68.1388 7.78815 68.3767C7.48783 68.2023 7.18815 68.0236 6.88977 67.8404C6.84414 68.0314 6.79981 68.2226 6.75644 68.4152C7.22634 68.701 7.69786 68.9757 8.17196 69.2391C8.29947 68.6175 8.4396 68.0036 8.59267 67.3977C7.80336 66.9385 7.01955 66.4476 6.24447 65.9246C5.98687 66.8236 5.7558 67.7414 5.55289 68.6764L5.55225 68.6776Z" fill="#9B6826"/>
<path d="M2.98608 60.6742C4.10679 61.6903 5.2592 62.6301 6.43557 63.4923C6.25757 63.9974 6.08832 64.5094 5.9278 65.0282C5.48412 64.7156 5.04302 64.3919 4.60549 64.058C4.68316 63.822 4.76309 63.5874 4.84432 63.3541C5.12393 63.5712 5.40483 63.7842 5.68735 63.9926C5.74981 63.8068 5.81292 63.6224 5.87764 63.4385C5.44302 63.1107 5.01131 62.7716 4.58413 62.422C4.35921 63.0256 4.14627 63.6395 3.9453 64.2622C4.70193 64.8482 5.46891 65.4026 6.24431 65.9252C6.50191 65.0266 6.78637 64.1466 7.09608 63.2874C5.92521 62.4424 4.77701 61.5201 3.66051 60.5214C3.87281 60.0137 4.09352 59.5133 4.32232 59.0208C4.72005 59.3904 5.12231 59.7499 5.52878 60.0991C5.43072 60.3208 5.33428 60.5444 5.23946 60.7693C4.97409 60.5454 4.71066 60.3166 4.44885 60.0839C4.37054 60.2638 4.29319 60.4447 4.21714 60.6266C4.62976 60.9903 5.04626 61.3434 5.46664 61.6858C5.70094 61.0962 5.94625 60.5159 6.20288 59.9467C5.5058 59.3564 4.82037 58.7357 4.14821 58.0855C3.73753 58.9253 3.34919 59.7887 2.98608 60.6742Z" fill="#9B6826"/>
<path d="M1.85547 52.3477C2.78264 53.5422 3.75383 54.6687 4.76159 55.7228C4.49848 56.1894 4.24218 56.6642 3.99364 57.147C3.61111 56.7616 3.23345 56.3661 2.86128 55.961C2.97908 55.7422 3.0985 55.5254 3.21921 55.3098C3.45642 55.5726 3.69623 55.8312 3.93765 56.0855C4.0315 55.9137 4.126 55.7428 4.22146 55.5729C3.85092 55.1739 3.4849 54.7652 3.12504 54.3467C2.7985 54.9017 2.48135 55.4687 2.17521 56.0467C2.81792 56.7554 3.47616 57.4354 4.148 58.0855C4.55868 57.2457 4.99265 56.4289 5.44767 55.637C4.44217 54.6004 3.47228 53.4914 2.54608 52.3144C2.84348 51.8513 3.14769 51.3972 3.45804 50.9516C3.78619 51.3843 4.11985 51.8082 4.45965 52.2228C4.3247 52.4244 4.19104 52.628 4.05868 52.8328C3.83635 52.5658 3.61629 52.295 3.39882 52.0205C3.29041 52.184 3.18296 52.3487 3.07649 52.5147C3.41953 52.9442 3.76839 53.3645 4.12276 53.7749C4.45577 53.2344 4.7988 52.706 5.15026 52.1895C4.56644 51.4866 3.99849 50.7565 3.44866 49.9998C2.89915 50.7562 2.36744 51.539 1.85579 52.3474L1.85547 52.3477Z" fill="#9B6826"/>
<path d="M2.17529 43.9533C2.88337 45.2899 3.64744 46.5656 4.45941 47.7772C4.11993 48.1918 3.78595 48.6157 3.4578 49.0484C3.14744 48.6031 2.84324 48.1484 2.54583 47.6856C2.69955 47.4905 2.85424 47.2973 3.01023 47.1057C3.1989 47.405 3.39048 47.7008 3.58498 47.9931C3.70699 47.8397 3.82932 47.6879 3.95261 47.5371C3.65585 47.0801 3.36557 46.6148 3.08272 46.1403C2.66557 46.6316 2.25652 47.1355 1.85522 47.6523C2.36687 48.4607 2.89826 49.2432 3.44809 49.9998C3.99792 49.2435 4.56555 48.5131 5.14969 47.8102C4.33708 46.6164 3.57139 45.3581 2.86104 44.0394C3.23353 43.6342 3.61087 43.2387 3.99339 42.8533C4.24193 43.3362 4.49824 43.8109 4.76134 44.2776C4.59371 44.453 4.42704 44.6303 4.26167 44.8099C4.08854 44.509 3.91831 44.2044 3.751 43.8967C3.61637 44.0394 3.48207 44.1831 3.34841 44.3281C3.61281 44.8102 3.88433 45.2837 4.16329 45.7491C4.58432 45.274 5.01248 44.8119 5.44742 44.3636C4.99241 43.5714 4.55876 42.7546 4.14776 41.9148C3.47592 42.565 2.81767 43.2452 2.17496 43.9536L2.17529 43.9533Z" fill="#9B6826"/>
<path d="M3.94489 35.7378C4.40897 37.178 4.93874 38.5673 5.52837 39.9012C5.12223 40.2501 4.71997 40.6096 4.32191 40.9792C4.09311 40.4867 3.8724 39.9863 3.66011 39.4786C3.84522 39.3129 4.0313 39.1495 4.21836 38.9876C4.35233 39.3155 4.48955 39.6397 4.63032 39.9614C4.77693 39.832 4.92385 39.7035 5.07174 39.5763C4.8588 39.0747 4.65395 38.566 4.45783 38.0498C3.96172 38.4608 3.47111 38.886 2.98633 39.3258C3.34975 40.2113 3.73778 41.0744 4.14878 41.9142C4.82061 41.264 5.50637 40.6433 6.20345 40.0533C5.60993 38.7368 5.0753 37.3647 4.60605 35.9417C5.04359 35.6077 5.48436 35.2844 5.92837 34.9715C6.08889 35.4903 6.25814 36.0022 6.43581 36.5077C6.24034 36.6511 6.0452 36.7967 5.85102 36.9446C5.7329 36.6181 5.61834 36.2883 5.50766 35.956C5.35006 36.0728 5.19278 36.1909 5.03615 36.3107C5.2122 36.8314 5.39698 37.3453 5.59051 37.8517C6.08759 37.4572 6.58985 37.0773 7.09632 36.7116C6.78661 35.8521 6.50248 34.9725 6.24455 34.0735C5.46915 34.5964 4.70217 35.1508 3.94554 35.7369L3.94489 35.7378Z" fill="#9B6826"/>
<path d="M7.12408 27.9577C7.32958 29.4564 7.60821 30.9172 7.95514 32.3337C7.49397 32.6065 7.03508 32.89 6.57845 33.1841C6.43962 32.6592 6.30984 32.1282 6.18946 31.5906C6.40078 31.4599 6.61243 31.3317 6.82473 31.2055C6.89916 31.5515 6.97747 31.8952 7.06 32.2363C7.22699 32.1343 7.3943 32.0337 7.56194 31.9337C7.43993 31.4033 7.32699 30.866 7.2244 30.3237C6.66421 30.6415 6.10661 30.9745 5.55225 31.3227C5.75516 32.2579 5.9859 33.1757 6.24383 34.0744C7.0189 33.5518 7.80271 33.0605 8.59202 32.6013C8.2383 31.2013 7.9519 29.7567 7.73831 28.2738C8.22762 28.0217 8.71823 27.7803 9.20982 27.5496C9.27745 28.0884 9.35447 28.6224 9.4412 29.1512C9.22341 29.2583 9.00593 29.367 8.78878 29.4787C8.72956 29.1363 8.67455 28.792 8.62341 28.4454C8.44801 28.5334 8.27228 28.6221 8.09688 28.7123C8.1794 29.2557 8.27164 29.7942 8.37358 30.3266C8.93215 30.0253 9.49299 29.7389 10.0558 29.4674C9.90107 28.567 9.77486 27.6512 9.67777 26.7208C8.82341 27.1004 7.97132 27.5124 7.12375 27.957L7.12408 27.9577Z" fill="#9B6826"/>
<path d="M11.6084 20.8516C11.5508 22.3632 11.5715 23.8506 11.666 25.3059C11.1647 25.4939 10.6631 25.6933 10.1625 25.9033C10.1172 25.3622 10.0819 24.8169 10.057 24.2671C10.2877 24.1752 10.5188 24.0852 10.7495 23.9978C10.7628 24.3519 10.7803 24.703 10.802 25.0541C10.9842 24.9816 11.1667 24.9121 11.3489 24.8431C11.321 24.2994 11.3036 23.7512 11.2964 23.1988C10.6897 23.414 10.0825 23.6454 9.47607 23.8917C9.51297 24.8473 9.5806 25.7917 9.67769 26.7214C10.5321 26.3415 11.3893 25.9949 12.2469 25.6807C12.1424 24.2402 12.1116 22.7674 12.1586 21.2697C12.6841 21.1063 13.209 20.9535 13.7333 20.8118C13.7065 21.3545 13.6896 21.8936 13.6835 22.4292C13.4505 22.4972 13.2175 22.5671 12.9841 22.6393C12.9854 22.2917 12.9909 21.9432 13.0006 21.5927C12.8126 21.6483 12.6243 21.7056 12.4359 21.7639C12.4226 22.3137 12.4201 22.86 12.4278 23.4017C13.0304 23.2024 13.6327 23.0169 14.2336 22.8474C14.2382 21.9338 14.2725 21.0098 14.3378 20.0772C13.4304 20.303 12.5201 20.5606 11.6084 20.8513V20.8516Z" fill="#9B6826"/>
<path d="M17.2551 14.6296C16.9373 16.1089 16.7007 17.5765 16.5422 19.0267C16.0156 19.1254 15.4872 19.2348 14.9577 19.3548C15.0069 18.8137 15.0664 18.2701 15.137 17.7247C15.38 17.6746 15.6228 17.626 15.8655 17.5801C15.8176 17.9306 15.7739 18.2807 15.7344 18.6286C15.9263 18.5898 16.1179 18.5529 16.3095 18.5166C16.3765 17.9765 16.4541 17.4328 16.5425 16.8885C15.9075 16.9963 15.2697 17.118 14.6299 17.2558C14.5011 18.2037 14.4043 19.1445 14.3386 20.0772C15.2461 19.8522 16.1503 19.6587 17.0496 19.4963C17.1959 18.0597 17.4201 16.6044 17.725 15.1374C18.2709 15.0668 18.8143 15.0067 19.3551 14.9581C19.2347 15.4876 19.1253 16.0164 19.0263 16.5422C18.7852 16.5688 18.5434 16.5969 18.3014 16.6277C18.3629 16.2863 18.4282 15.9429 18.4985 15.6005C18.3033 15.6225 18.1082 15.6465 17.9127 15.671C17.8049 16.2102 17.7078 16.7477 17.6214 17.2833C18.2496 17.1908 18.8748 17.1131 19.4962 17.0494C19.658 16.15 19.8515 15.2455 20.0774 14.3381C19.1447 14.4034 18.2033 14.5005 17.2554 14.6293L17.2551 14.6296Z" fill="#9B6826"/>
<path d="M23.8907 9.47726C23.3218 10.8785 22.835 12.2837 22.4289 13.6843C21.893 13.6905 21.3538 13.7073 20.8114 13.7339C20.9532 13.2106 21.1056 12.6843 21.2694 12.1594C21.5176 12.1517 21.7655 12.1462 22.0121 12.1426C21.9037 12.4798 21.8004 12.817 21.7014 13.1533C21.8972 13.1481 22.0923 13.1445 22.2872 13.1416C22.4464 12.6209 22.6163 12.0996 22.7978 11.5779C22.1538 11.5743 21.5043 11.584 20.8506 11.6096C20.56 12.5212 20.3021 13.4313 20.0762 14.3384C21.0092 14.273 21.9331 14.2387 22.8467 14.2342C23.2392 12.8442 23.7114 11.4497 24.2651 10.0578C24.8153 10.0828 25.3606 10.118 25.9017 10.163C25.6913 10.6633 25.4923 11.1656 25.304 11.6669C25.0619 11.651 24.8188 11.6378 24.5752 11.6264C24.6946 11.2999 24.8182 10.9734 24.947 10.6478C24.7512 10.6361 24.5544 10.6258 24.3577 10.6171C24.158 11.129 23.97 11.6416 23.7923 12.1546C24.4266 12.1714 25.0561 12.2031 25.679 12.2481C25.9939 11.3902 26.3408 10.5332 26.7201 9.67887C25.7904 9.58179 24.8464 9.51383 23.8901 9.47758L23.8907 9.47726Z" fill="#9B6826"/>
<path d="M31.3222 5.5527C30.5174 6.83424 29.7937 8.13326 29.151 9.44199C28.6222 9.35461 28.0886 9.27759 27.5497 9.20963C27.7802 8.71804 28.0216 8.22743 28.274 7.73844C28.5203 7.77372 28.7649 7.81158 29.0086 7.85042C28.8436 8.16368 28.6831 8.47792 28.5274 8.79215C28.7209 8.82128 28.9138 8.85138 29.106 8.88309C29.3533 8.39766 29.6115 7.9132 29.8808 7.43133C29.2471 7.31579 28.6057 7.21223 27.9572 7.12421C27.5125 7.97145 27.1006 8.82322 26.7209 9.67823C27.651 9.77532 28.5672 9.90153 29.4675 10.0559C30.0947 8.75494 30.8021 7.46401 31.5902 6.18959C32.1274 6.30965 32.6588 6.44007 33.1837 6.57891C32.8898 7.03521 32.606 7.49411 32.3332 7.95495C32.0976 7.89766 31.8607 7.842 31.6225 7.78828C31.797 7.48731 31.9759 7.18796 32.1591 6.88991C31.9681 6.84395 31.7766 6.79994 31.584 6.75658C31.2983 7.22615 31.0235 7.69831 30.7601 8.1721C31.3817 8.29928 31.9957 8.43941 32.6015 8.59313C33.0607 7.80317 33.5516 7.01968 34.0746 6.24461C33.1756 5.987 32.2581 5.75561 31.3225 5.5527H31.3222Z" fill="#9B6826"/>
<path d="M39.3255 2.98606C38.3093 4.10708 37.3692 5.2595 36.5074 6.43586C36.0022 6.25755 35.4899 6.08829 34.9711 5.92745C35.2838 5.48344 35.6074 5.04299 35.9413 4.60546C36.1773 4.68313 36.4119 4.76339 36.6449 4.84461C36.4281 5.12358 36.2151 5.40513 36.0067 5.68733C36.1925 5.74914 36.3769 5.81257 36.5608 5.87697C36.8889 5.44267 37.2277 5.01128 37.5773 4.5841C36.9734 4.35918 36.3598 4.14559 35.7368 3.94527C35.1507 4.70157 34.5964 5.46856 34.0737 6.24428C34.9724 6.50188 35.8524 6.78602 36.7116 7.09605C37.5562 5.92486 38.4789 4.77665 39.4779 3.66048C39.9856 3.8731 40.486 4.09381 40.9785 4.32229C40.6089 4.72034 40.2494 5.12293 39.9002 5.52875C39.6785 5.43069 39.4549 5.33458 39.2297 5.23911C39.4539 4.97439 39.6821 4.71064 39.9151 4.4485C39.7352 4.37083 39.5543 4.29316 39.3721 4.21744C39.009 4.62941 38.6559 5.04623 38.3132 5.46694C38.9028 5.70092 39.4831 5.94622 40.0523 6.20285C40.6426 5.50545 41.2633 4.8197 41.9135 4.14818C41.0737 3.73686 40.2102 3.34948 39.3248 2.98573L39.3255 2.98606Z" fill="#9B6826"/>
<path d="M47.6526 1.85565C46.4581 2.78315 45.3316 3.75401 44.2775 4.76177C43.8109 4.49866 43.3361 4.24268 42.8533 3.99381C43.2387 3.61097 43.6342 3.23395 44.0394 2.86146C44.2581 2.97894 44.475 3.09803 44.6905 3.21906C44.4277 3.45628 44.1691 3.69641 43.9148 3.9375C44.0866 4.032 44.2575 4.1265 44.4274 4.22164C44.8264 3.85077 45.2351 3.48573 45.6539 3.12554C45.0986 2.799 44.5319 2.48218 43.9536 2.17603C43.2449 2.81842 42.5649 3.47699 41.9148 4.14851C42.7546 4.55983 43.5711 4.99316 44.3633 5.44785C45.3999 4.44268 46.5089 3.47278 47.6859 2.5469C48.1487 2.84431 48.6034 3.14787 49.049 3.45854C48.616 3.7867 48.1924 4.12067 47.7778 4.46015C47.5762 4.3252 47.3727 4.1909 47.1675 4.05854C47.4345 3.83621 47.7053 3.61647 47.9798 3.39932C47.8163 3.29059 47.6516 3.18314 47.4859 3.07635C47.0565 3.41971 46.6361 3.76825 46.2254 4.12294C46.7659 4.45562 47.2947 4.79899 47.8112 5.15011C48.5141 4.56598 49.2442 3.99835 50.0005 3.44851C49.2442 2.89868 48.4616 2.36729 47.6529 1.85532L47.6526 1.85565Z" fill="#9B6826"/>
<path d="M56.0459 2.17606C54.7093 2.88382 53.4336 3.64821 52.222 4.46018C51.8077 4.12038 51.3838 3.78672 50.9511 3.45857C51.3964 3.1479 51.8508 2.84434 52.3139 2.54693C52.5094 2.70033 52.7026 2.85469 52.8941 3.011C52.5948 3.19967 52.299 3.39126 52.0068 3.58543C52.1602 3.70711 52.3119 3.82977 52.4628 3.95339C52.9197 3.65695 53.3851 3.36666 53.8595 3.08317C53.3682 2.66667 52.8644 2.25729 52.3475 1.85567C51.5391 2.36764 50.7566 2.89903 50 3.44886C50.7563 3.9987 51.4867 4.566 52.1893 5.15047C53.3835 4.33753 54.6417 3.57249 55.9608 2.86214C56.3656 3.23463 56.7614 3.61229 57.1468 3.99449C56.664 4.24335 56.1893 4.49934 55.7226 4.76244C55.5472 4.59481 55.3695 4.42782 55.1902 4.26277C55.4912 4.08996 55.7957 3.91941 56.1038 3.75177C55.9611 3.61779 55.8174 3.48252 55.6721 3.34951C55.1902 3.61423 54.7165 3.88608 54.2514 4.16407C54.7265 4.5851 55.1886 5.0139 55.6368 5.44917C56.4291 4.99383 57.2459 4.5605 58.0857 4.14918C57.4355 3.47767 56.7553 2.8191 56.0465 2.17671L56.0459 2.17606Z" fill="#9B6826"/>
<path d="M64.2619 3.94559C62.8218 4.40967 61.4325 4.93943 60.0989 5.52907C59.7497 5.12228 59.3901 4.72067 59.0206 4.32261C59.5131 4.09413 60.0134 3.87342 60.5212 3.66081C60.6869 3.84624 60.8503 4.03232 61.0118 4.21873C60.684 4.35271 60.3597 4.49057 60.038 4.6307C60.1678 4.7773 60.2959 4.92455 60.4234 5.07212C60.9247 4.8595 61.4335 4.65465 61.9496 4.45789C61.539 3.96177 61.1134 3.47116 60.6736 2.9867C59.7882 3.35045 58.9251 3.73783 58.085 4.14915C58.7351 4.82066 59.3558 5.50642 59.9461 6.20382C61.2623 5.61062 62.6348 5.076 64.0574 4.60643C64.3914 5.04429 64.7147 5.48474 65.0279 5.92842C64.5088 6.08894 63.9969 6.25851 63.4917 6.43586C63.348 6.24072 63.2024 6.0459 63.0548 5.85172C63.3813 5.7336 63.7108 5.61871 64.0435 5.50739C63.9263 5.35043 63.8082 5.19315 63.6885 5.0362C63.1678 5.21257 62.6538 5.39703 62.1474 5.59024C62.5419 6.08797 62.9218 6.59023 63.2875 7.09669C64.147 6.78699 65.0266 6.50285 65.9257 6.24492C65.4024 5.4692 64.848 4.70222 64.2622 3.94592L64.2619 3.94559Z" fill="#9B6826"/>
<path d="M72.0421 7.12453C70.5434 7.33035 69.0825 7.60834 67.6664 7.95494C67.3936 7.49443 67.1101 7.03521 66.8159 6.5789C67.3408 6.43942 67.8719 6.30965 68.4088 6.18959C68.5398 6.40059 68.668 6.61224 68.7942 6.82518C68.4482 6.89929 68.1046 6.97793 67.7635 7.0598C67.8657 7.22647 67.9664 7.39443 68.0657 7.56206C68.5965 7.44006 69.1337 7.32712 69.6761 7.22485C69.3583 6.66434 69.0253 6.10674 68.677 5.55238C67.7418 5.75529 66.824 5.98668 65.9253 6.24428C66.4479 7.01935 66.9392 7.80284 67.3984 8.59183C68.7984 8.23779 70.2431 7.95203 71.7259 7.73844C71.9783 8.22743 72.2197 8.71804 72.4505 9.20962C71.9116 9.27758 71.3777 9.35428 70.8489 9.44069C70.7418 9.22354 70.6327 9.00574 70.521 8.78859C70.8634 8.72937 71.2078 8.67468 71.5544 8.62354C71.4667 8.44782 71.3777 8.27209 71.2874 8.09669C70.744 8.17953 70.2055 8.27144 69.6732 8.37371C69.9741 8.93228 70.2609 9.49279 70.532 10.0559C71.4324 9.90152 72.3482 9.77434 73.2786 9.67823C72.899 8.82322 72.487 7.97145 72.0424 7.1242L72.0421 7.12453Z" fill="#9B6826"/>
<path d="M79.1483 11.6096C77.6373 11.5513 76.1503 11.5727 74.695 11.6669C74.5063 11.1656 74.3076 10.6643 74.0976 10.163C74.6387 10.118 75.184 10.0828 75.7338 10.0578C75.8257 10.2883 75.9157 10.5193 76.0031 10.7507C75.649 10.763 75.2969 10.7808 74.9467 10.8028C75.0183 10.9847 75.0888 11.1672 75.1568 11.3491C75.7014 11.3216 76.2493 11.3041 76.8017 11.297C76.5856 10.6899 76.3552 10.0834 76.1089 9.47726C75.1532 9.51415 74.2089 9.58146 73.2788 9.67855C73.6584 10.5329 74.005 11.3899 74.3202 12.2478C75.7607 12.1436 77.2335 12.1128 78.7302 12.1594C78.8943 12.6856 79.0464 13.2106 79.1881 13.7348C78.6464 13.7073 78.1069 13.6908 77.5713 13.6843C77.5034 13.4513 77.4335 13.2183 77.3613 12.9847C77.7082 12.9863 78.0574 12.9918 78.4079 13.0015C78.3513 12.8135 78.2949 12.6254 78.2357 12.4365C77.6869 12.4232 77.1406 12.4206 76.5979 12.4287C76.7982 13.0316 76.9827 13.6332 77.1522 14.2345C78.0665 14.239 78.9904 14.2733 79.9234 14.3393C79.6975 13.4313 79.4399 12.5212 79.1487 11.6096H79.1483Z" fill="#9B6826"/>
<path d="M85.3693 17.2552C83.891 16.9374 82.4234 16.7008 80.9732 16.5419C80.8745 16.016 80.7651 15.4872 80.6451 14.9578C81.1852 15.0073 81.7289 15.0665 82.2752 15.1371C82.3253 15.3798 82.3739 15.6235 82.4198 15.8662C82.0693 15.8177 81.7198 15.7736 81.3706 15.7348C81.4095 15.9264 81.4473 16.1176 81.4836 16.3092C82.0237 16.3762 82.5674 16.4539 83.1117 16.5422C83.004 15.9076 82.8823 15.2694 82.7444 14.6296C81.7965 14.5008 80.8548 14.4047 79.9221 14.3384C80.148 15.2465 80.3415 16.1503 80.5037 17.0497C81.9402 17.1963 83.3955 17.4205 84.8625 17.7248C84.9331 18.271 84.9923 18.8147 85.0418 19.3548C84.5124 19.2348 83.9836 19.1254 83.4577 19.0267C83.4311 18.7856 83.402 18.5438 83.3713 18.3011C83.7137 18.3629 84.056 18.4283 84.3994 18.4989C84.3774 18.304 84.3535 18.1079 84.3279 17.9128C83.7887 17.805 83.2512 17.7079 82.7163 17.6215C82.8088 18.25 82.8865 18.8746 82.9502 19.4959C83.8496 19.6584 84.7531 19.8516 85.6615 20.0775C85.5952 19.1445 85.4991 18.2027 85.3693 17.2552Z" fill="#9B6826"/>
<path d="M90.5227 23.891C89.1221 23.3227 87.7163 22.8354 86.3157 22.4296C86.3095 21.894 86.2927 21.3548 86.2661 20.8121C86.7904 20.9542 87.3156 21.1069 87.8406 21.27C87.8483 21.5179 87.8538 21.7661 87.8574 22.0131C87.5202 21.9043 87.1839 21.8011 86.8467 21.7024C86.8519 21.8982 86.8555 22.0933 86.8584 22.2885C87.3791 22.4474 87.9004 22.6176 88.4221 22.7985C88.4266 22.1551 88.416 21.5056 88.3904 20.8516C87.4797 20.5613 86.5687 20.3027 85.6616 20.0775C85.727 21.0105 85.7613 21.9344 85.7658 22.8477C87.1558 23.2396 88.5503 23.7117 89.9428 24.2661C89.9172 24.8159 89.882 25.3612 89.837 25.903C89.3367 25.693 88.8344 25.4936 88.3331 25.3046C88.349 25.0629 88.3629 24.8201 88.3745 24.5755C88.7001 24.6956 89.0266 24.8192 89.3525 24.948C89.3642 24.7522 89.3745 24.5551 89.3833 24.3583C88.8713 24.159 88.3587 23.97 87.8457 23.7926C87.8289 24.4273 87.7972 25.0564 87.7522 25.6794C88.6101 25.9942 89.4671 26.3412 90.3214 26.7211C90.4185 25.7907 90.4865 24.8473 90.5227 23.8904V23.891Z" fill="#9B6826"/>
<path d="M94.4471 31.3224C93.1656 30.5178 91.8666 29.7942 90.5578 29.1512C90.6452 28.6224 90.7219 28.0884 90.7892 27.5496C91.2808 27.7803 91.7714 28.0217 92.2611 28.2742C92.2248 28.5201 92.1879 28.7651 92.1481 29.0088C91.8355 28.8437 91.5216 28.6835 91.2073 28.5276C91.1782 28.7211 91.1481 28.9143 91.1164 29.1065C91.6018 29.3538 92.0863 29.6117 92.5682 29.8813C92.6837 29.2473 92.786 28.6062 92.8753 27.958C92.028 27.5133 91.1756 27.101 90.3213 26.7217C90.2242 27.6518 90.098 28.568 89.9436 29.4683C91.2436 30.0955 92.5355 30.8029 93.8099 31.591C93.6898 32.1282 93.5594 32.6596 93.4206 33.1841C92.9643 32.8903 92.5054 32.6065 92.0439 32.3337C92.1022 32.0981 92.1578 31.8612 92.2115 31.623C92.5115 31.7974 92.8119 31.9764 93.1099 32.1596C93.1559 31.9683 93.1999 31.7767 93.2432 31.5845C92.7737 31.2987 92.3015 31.024 91.8277 30.7605C91.7005 31.3822 91.5604 31.9961 91.4067 32.6019C92.1967 33.0612 92.9801 33.5524 93.7552 34.0751C94.0128 33.1764 94.2442 32.2583 94.4471 31.323V31.3224Z" fill="#9B6826"/>
<path d="M97.0137 39.3265C95.8927 38.3103 94.7403 37.3705 93.5646 36.5084C93.7419 36.0032 93.9115 35.4909 94.072 34.9722C94.516 35.2851 94.9565 35.6084 95.394 35.9427C95.3163 36.1786 95.2367 36.4129 95.1548 36.6462C94.8759 36.4291 94.5943 36.2165 94.3128 36.0081C94.25 36.1935 94.1866 36.3783 94.1222 36.5618C94.5565 36.8899 94.9878 37.2291 95.415 37.5783C95.6399 36.9747 95.8535 36.3611 96.0539 35.7382C95.2976 35.1521 94.5306 34.5974 93.7548 34.0748C93.4972 34.9741 93.2131 35.8537 92.9031 36.7129C94.0743 37.5576 95.2225 38.4802 96.3386 39.4792C96.126 39.987 95.9053 40.4873 95.6768 40.9799C95.2797 40.6103 94.8762 40.2511 94.4704 39.9016C94.5684 39.6795 94.6655 39.4562 94.76 39.231C95.0247 39.455 95.2885 39.6834 95.5506 39.9164C95.6293 39.7365 95.706 39.5556 95.7817 39.3737C95.3697 39.01 94.9529 38.6572 94.5328 38.3145C94.2982 38.9045 94.0529 39.4847 93.7959 40.054C94.4934 40.6443 95.1791 41.265 95.8506 41.9151C96.261 41.0753 96.6493 40.2122 97.0131 39.3265H97.0137Z" fill="#9B6826"/>
<path d="M98.1444 47.6526C97.2169 46.4581 96.246 45.3316 95.2382 44.2776C95.5013 43.8112 95.7573 43.3365 96.0062 42.8536C96.3884 43.2394 96.7661 43.6345 97.1386 44.0397C97.0211 44.2585 96.902 44.4756 96.7809 44.6908C96.5437 44.4284 96.3036 44.1698 96.0625 43.9154C95.968 44.0873 95.8738 44.2581 95.7784 44.4274C96.1492 44.8264 96.5143 45.2355 96.8745 45.6543C97.201 45.0989 97.5178 44.5323 97.824 43.9539C97.1816 43.2449 96.524 42.5653 95.8515 41.9148C95.4402 42.7546 95.0068 43.5711 94.5515 44.3633C95.5577 45.3999 96.5266 46.5086 97.4534 47.6859C97.156 48.1487 96.8515 48.6031 96.5418 49.0487C96.2136 48.616 95.8797 48.1921 95.5402 47.7775C95.6751 47.5759 95.8094 47.3727 95.9418 47.1672C96.1641 47.4342 96.3839 47.705 96.602 47.9795C96.7098 47.8157 96.8175 47.6513 96.924 47.4853C96.5806 47.0562 96.2321 46.6358 95.8774 46.2251C95.5447 46.7656 95.2013 47.294 94.8502 47.8109C95.4344 48.5138 96.002 49.2439 96.5518 50.0002C97.1007 49.2439 97.633 48.461 98.145 47.6526H98.1444Z" fill="#9B6826"/>
<path fill-rule="evenodd" clip-rule="evenodd" d="M85.0726 76.9151C76.9749 87.4817 64.2919 94.3111 50.0001 94.3111C35.6109 94.3111 22.9149 87.4979 14.816 76.9342L11.8733 72.6961L22.1729 64.0136C27.3023 74.1789 37.8361 81.1513 49.9998 81.1513C62.2035 81.1513 72.7665 74.1326 77.8769 63.9123L88.6534 72.7996C87.3946 74.1808 86.1836 75.465 85.0723 76.9151H85.0726Z" fill="black"/>
<path fill-rule="evenodd" clip-rule="evenodd" d="M18.5826 63.9227C15.5302 69.1702 14.1962 70.9637 11.8733 72.6957C12.515 73.62 12.5396 73.7365 13.6687 74.231C15.4826 75.0248 17.5771 72.9705 18.4671 71.62C19.626 69.8608 21.2965 69.3055 20.5107 67.2971C20.3214 66.8129 18.0606 64.4576 18.5826 63.9227Z" fill="black" stroke="black" stroke-width="0.199938" stroke-miterlimit="22.9256"/>
<path d="M81.7005 65.5126C78.7759 70.7757 72.2458 75.9996 67.0643 79.0507C62.0592 81.9979 56.2263 83.6885 50.0001 83.6885C43.7995 83.6885 37.9892 82.0118 32.9974 79.0869C27.8288 76.0585 21.435 69.7786 18.5007 64.5508L18.5829 63.9224C21.4677 69.0618 28.211 75.6125 33.2896 78.5882C38.1928 81.4613 43.9034 83.1083 50.0001 83.1083C56.1224 83.1083 61.855 81.4471 66.7724 78.552C71.8649 75.5533 78.6726 69.7702 81.5474 64.5965L81.7008 65.5123L81.7005 65.5126Z" fill="#FEFEFE"/>
<path fill-rule="evenodd" clip-rule="evenodd" d="M24.2171 66.4586C23.7527 66.9599 23.2886 67.4615 22.8242 67.9628C22.2899 67.2712 21.3022 66.3016 21.2216 65.888C20.9983 64.7929 21.6368 64.134 22.7058 64.8547C23.2465 65.2715 23.7132 65.924 24.2171 66.4586V66.4586Z" stroke="#2B2A29" stroke-width="2.11662" stroke-miterlimit="22.9256"/>
<path fill-rule="evenodd" clip-rule="evenodd" d="M24.2171 66.4586C23.7527 66.9599 23.2886 67.4615 22.8242 67.9628C22.2899 67.2712 21.3022 66.3016 21.2216 65.888C20.9983 64.7929 21.6368 64.134 22.7058 64.8547C23.2465 65.2715 23.7132 65.924 24.2171 66.4586Z" fill="#FEFEFE"/>
<path fill-rule="evenodd" clip-rule="evenodd" d="M19.8091 63.0839C20.2524 62.8117 20.7466 62.8994 21.2401 63.0385C23.832 64.1609 24.8608 64.7152 25.9096 67.2152C26.0986 67.8175 25.1216 68.4171 24.4935 67.9492C24.1459 67.6903 24.4103 67.4861 24.5951 67.2553C25.1339 66.5832 24.6106 65.8621 24.0796 65.2489C22.9359 63.9285 20.5599 63.2143 20.2511 65.3165C19.0663 65.1634 19.189 63.836 19.8091 63.0839V63.0839Z" stroke="black" stroke-width="2.11662" stroke-miterlimit="22.9256"/>
<path fill-rule="evenodd" clip-rule="evenodd" d="M19.8091 63.0839C20.2524 62.8117 20.7466 62.8994 21.2401 63.0385C23.832 64.1609 24.8608 64.7152 25.9096 67.2152C26.0986 67.8175 25.1216 68.4171 24.4935 67.9492C24.1459 67.6903 24.4103 67.4861 24.5951 67.2553C25.1339 66.5832 24.6106 65.8621 24.0796 65.2489C22.9359 63.9285 20.5599 63.2143 20.2511 65.3165C19.0663 65.1634 19.189 63.836 19.8091 63.0839Z" fill="#FEFEFE"/>
<path fill-rule="evenodd" clip-rule="evenodd" d="M20.5946 67.91C20.9518 68.3951 22.3311 70.8466 23.8081 70.867C23.9431 70.8689 24.634 70.343 24.4395 69.9149C24.3353 69.6854 24.156 69.6715 23.8198 69.6094C22.6897 69.4 21.5104 67.1327 20.7046 66.5935C20.4645 66.9718 20.38 67.6191 20.5946 67.9103V67.91Z" stroke="black" stroke-width="2.11662" stroke-miterlimit="22.9256"/>
<path fill-rule="evenodd" clip-rule="evenodd" d="M20.5946 67.91C20.9518 68.3951 22.3311 70.8466 23.8081 70.867C23.9431 70.8689 24.634 70.343 24.4395 69.9149C24.3353 69.6854 24.156 69.6715 23.8198 69.6094C22.6897 69.4 21.5104 67.1327 20.7046 66.5935C20.4645 66.9718 20.38 67.6191 20.5946 67.9103V67.91Z" fill="#FEFEFE"/>
<path fill-rule="evenodd" clip-rule="evenodd" d="M81.796 64.0482C84.8485 69.2958 86.1824 71.0893 88.5054 72.8213C87.8636 73.7456 87.839 73.8621 86.7099 74.3566C84.896 75.1504 82.8015 73.0961 81.9116 71.7456C80.7527 69.9864 79.0822 69.431 79.8679 67.4226C80.0572 66.9385 82.3181 64.5832 81.796 64.0482Z" fill="black" stroke="black" stroke-width="0.199938" stroke-miterlimit="22.9256"/>
<path d="M69.2916 87.8302C63.5021 90.7894 56.9448 92.4586 50.0002 92.4586C43.0997 92.4586 36.5829 90.8111 30.8221 87.8885C22.9044 83.8717 18.1459 78.7513 13.3809 71.5394L13.8624 71.1398C18.2239 78.2242 23.5533 83.5519 31.0826 87.372C36.7638 90.2541 43.1919 91.8787 50.0002 91.8787C56.8542 91.8787 63.3218 90.2331 69.0289 87.316C76.9696 83.2574 81.7507 78.1115 86.4468 70.8061L86.8821 71.3385C81.8465 78.7342 77.5498 83.6092 69.2916 87.8302Z" fill="#FEFEFE"/>
<path d="M17.9976 75.608L22.6843 71.5741L25.0636 74.3242L24.2901 74.9931L22.6264 73.0702L21.5976 73.9394C21.7834 74.0999 21.9792 74.2993 22.1847 74.5365C22.6073 75.0252 22.8131 75.5213 22.8021 76.0245C22.7908 76.5281 22.5675 76.9679 22.1329 77.3439C21.6442 77.7666 21.13 77.9355 20.5898 77.8501C20.0497 77.7649 19.5293 77.4329 19.0293 76.8546C18.9365 76.7472 18.7365 76.5041 18.4261 76.13C18.3656 76.0572 18.2993 75.9808 18.2316 75.8986C18.164 75.8161 18.1128 75.7523 18.0782 75.708C18.0436 75.6637 18.0167 75.63 17.9973 75.6074L17.9976 75.608ZM21.3536 75.1384C21.2063 74.9682 21.03 74.7915 20.8248 74.6087L19.4866 75.7663C19.6588 76.0015 19.8012 76.1841 19.9135 76.3138C20.4138 76.8921 20.8973 76.9795 21.3633 76.5763C21.5827 76.3863 21.6953 76.1675 21.7008 75.92C21.706 75.6724 21.5902 75.4119 21.3539 75.1384H21.3536ZM25.8584 79.7759L22.8232 80.6099L22.0203 79.9769L24.4976 76.8352L25.3005 77.4682L23.7316 79.4581L26.7668 78.6242L27.5697 79.2572L25.0924 82.3989L24.2895 81.7659L25.8584 79.7759ZM27.7801 84.3283C27.4852 84.14 27.2319 83.9037 27.0192 83.6202C26.8099 83.3315 26.6937 83.0671 26.671 82.8277L27.4581 82.571C27.4846 82.7497 27.5645 82.938 27.6982 83.1364C27.8318 83.3345 27.981 83.4862 28.1461 83.5917C28.3658 83.7322 28.5597 83.8034 28.7273 83.805C28.8949 83.8066 29.0189 83.7451 29.0988 83.6202C29.1723 83.5053 29.1865 83.3843 29.1412 83.2568C29.0959 83.1296 28.9936 83.0147 28.8338 82.9125L28.2047 82.5102L28.5736 81.9335L29.1652 82.3118C29.3001 82.3979 29.4334 82.429 29.5652 82.404C29.6969 82.3791 29.8014 82.307 29.8781 82.1872C30.0347 81.9426 29.9153 81.694 29.5208 81.4416C29.2111 81.2435 28.8212 81.1769 28.3503 81.2419L28.3212 80.495C28.8836 80.3199 29.4868 80.4384 30.1309 80.85C30.5655 81.1277 30.8451 81.4248 30.9703 81.7406C31.0956 82.0565 31.0606 82.3665 30.8661 82.671C30.7606 82.8358 30.6098 82.9506 30.414 83.015C30.2179 83.0798 30.0017 83.082 29.7655 83.0225L29.7561 83.0374C29.9519 83.226 30.0671 83.4315 30.1008 83.6535C30.1347 83.8756 30.0875 84.0866 29.96 84.2862C29.759 84.6008 29.4613 84.7607 29.0678 84.7658C28.6739 84.7707 28.2448 84.6251 27.7804 84.328L27.7801 84.3283ZM34.3538 87.5833L33.4224 87.1613L34.0538 85.7684L32.4587 85.0454L31.8273 86.4383L30.8959 86.0163L32.5473 82.372L33.4787 82.794L32.8548 84.1707L34.4502 84.8937L35.0742 83.517L36.0056 83.939L34.3538 87.5833ZM39.4583 88.0228L39.5431 88.7959C39.0699 89.0062 38.5343 89.0263 37.936 88.8558C37.3201 88.6804 36.8712 88.3519 36.5894 87.871C36.3172 87.3991 36.268 86.8581 36.4418 86.248C36.6043 85.6781 36.9259 85.2519 37.4068 84.97C37.8877 84.6878 38.4363 84.6348 39.0518 84.8102C39.5592 84.9548 39.9414 85.2454 40.1994 85.6827C40.457 86.1199 40.512 86.5979 40.3641 87.1163C40.299 87.3444 40.2285 87.5153 40.1531 87.6296L37.3741 86.8377C37.3343 87.1283 37.3958 87.3833 37.5586 87.6021C37.7211 87.8211 37.9593 87.9752 38.2728 88.0645C38.7003 88.1862 39.0958 88.1726 39.4589 88.0234L39.4583 88.0228ZM38.7751 85.6186C38.2165 85.4594 37.8004 85.6432 37.5272 86.1691L39.4172 86.7076C39.4926 86.4639 39.4715 86.2409 39.3537 86.0377C39.2359 85.8348 39.0431 85.6949 38.7751 85.6183V85.6186ZM44.4938 88.7829L44.8365 89.602C44.4233 89.9985 43.8605 90.1337 43.1485 90.0075C42.5123 89.8949 42.0294 89.614 41.6997 89.1642C41.3748 88.7215 41.2676 88.1878 41.378 87.5632C41.4822 86.9736 41.7615 86.5176 42.2162 86.1946C42.6718 85.8661 43.1942 85.7539 43.7835 85.8581C44.4841 85.982 44.9809 86.2535 45.2737 86.6726L44.6598 87.3859C44.4369 87.0817 44.1327 86.8953 43.7476 86.827C43.4556 86.7755 43.1802 86.8351 42.9213 87.0059C42.6702 87.1661 42.5149 87.4156 42.455 87.7542C42.3951 88.0927 42.4576 88.3865 42.6421 88.636C42.8395 88.8816 43.09 89.0312 43.3932 89.0849C43.7841 89.1541 44.1511 89.0535 44.4938 88.7829ZM52.7688 87.6642L51.0989 90.3324L50.0795 90.4098L49.7763 86.4202L50.7957 86.3428L50.9879 88.8697L52.6575 86.2014L53.6769 86.1241L53.9801 90.1137L52.9607 90.191L52.7688 87.6642ZM64.7875 88.1829L63.7509 88.5312L62.0946 83.6005L59.4649 84.4836L61.1212 89.4143L60.0843 89.7625L58.1024 83.8629L62.8056 82.283L64.7875 88.1826V88.1829ZM68.0651 87.2797L67.1564 87.7483L64.6985 82.9785L65.6072 82.5102L65.7823 82.85C65.8331 82.6639 65.9383 82.4798 66.0978 82.2976C66.2574 82.1154 66.4451 81.9688 66.6612 81.8571C67.1512 81.6047 67.6282 81.5723 68.0917 81.76C68.5632 81.9503 68.9347 82.3089 69.2062 82.8361C69.4913 83.3895 69.5538 83.9374 69.3933 84.4801C69.2327 85.0228 68.8735 85.438 68.3149 85.726C67.9567 85.9108 67.6502 85.9953 67.3955 85.9797L68.0654 87.28L68.0651 87.2797ZM66.8163 82.8571C66.5001 83.0199 66.2952 83.2888 66.2017 83.6639L66.9428 85.1024C67.2295 85.128 67.515 85.0675 67.7994 84.9209C68.0997 84.7662 68.2907 84.5445 68.3719 84.2558C68.4531 83.9671 68.4137 83.6675 68.2535 83.3565C68.1014 83.0613 67.8962 82.8671 67.6379 82.7736C67.3797 82.6801 67.1056 82.7079 66.8156 82.8571H66.8163ZM70.0486 81.1448L69.4055 80.6859C69.6104 80.2274 69.9204 79.8504 70.336 79.5549C70.79 79.2319 71.1997 79.1076 71.5654 79.1821C71.9311 79.2565 72.2774 79.5232 72.6036 79.9821L74.0159 81.9672L73.2913 82.4827L73.0233 82.106C73.0295 82.5235 72.8078 82.8921 72.3586 83.2118C72.0495 83.4315 71.7376 83.5173 71.4227 83.4684C71.1078 83.4196 70.8421 83.2429 70.6259 82.939C70.3852 82.6008 70.3085 82.2626 70.3952 81.9248C70.4819 81.5866 70.7039 81.2901 71.0615 81.0361C71.356 80.8267 71.6521 80.7215 71.9499 80.7206C71.7534 80.4238 71.5599 80.2416 71.3696 80.1733C71.1793 80.105 70.9706 80.1516 70.7434 80.3131C70.4923 80.4918 70.2606 80.7694 70.0486 81.1458V81.1448ZM72.134 82.3125C72.4139 82.1131 72.5537 81.8646 72.5531 81.5672L72.3159 81.2338C72.1052 81.2238 71.8764 81.3063 71.6301 81.4817C71.4758 81.5918 71.3758 81.7173 71.3308 81.8584C71.2858 81.9995 71.3078 82.1332 71.3971 82.2587C71.4796 82.3746 71.5894 82.4367 71.7259 82.4448C71.8628 82.4529 71.9987 82.4089 72.134 82.3128V82.3125ZM75.4569 80.874L72.6929 77.9811C72.7314 77.9442 72.8903 77.7821 73.1693 77.4954C73.4482 77.2083 73.6586 76.997 73.8 76.862C74.6744 76.0268 75.3531 75.8617 75.8362 76.3675C75.9919 76.5306 76.0767 76.7219 76.0906 76.9426C76.1045 77.163 76.0443 77.3575 75.9107 77.5264L75.923 77.5394C76.4285 77.2449 76.8472 77.2711 77.1789 77.6183C77.7359 78.2012 77.5556 78.9306 76.6385 79.807C76.5058 79.9338 76.2961 80.1219 76.0094 80.3711C75.9408 80.4364 75.8615 80.5102 75.7718 80.5921C75.6819 80.674 75.6133 80.7351 75.5663 80.7762C75.5194 80.817 75.4828 80.85 75.4573 80.8743L75.4569 80.874ZM75.4858 78.4973L75.023 78.9397L75.6372 79.5827C75.9107 79.3542 76.0819 79.2073 76.1505 79.1416C76.3136 78.986 76.4123 78.8342 76.4469 78.686C76.4819 78.5381 76.4501 78.4125 76.3518 78.3096C76.1388 78.0866 75.8502 78.1494 75.4858 78.4973ZM74.4353 77.398C74.2638 77.5617 74.1136 77.7135 73.9848 77.853L74.5929 78.4895L75.0751 78.029C75.2081 77.9022 75.2864 77.7698 75.3107 77.6319C75.3346 77.4941 75.2977 77.3737 75.1993 77.2708C74.9987 77.0607 74.7443 77.1031 74.4356 77.398H74.4353ZM79.0349 76.6358C78.4747 76.6763 77.9637 76.4967 77.5022 76.097C77.0404 75.6973 76.7919 75.2193 76.756 74.663C76.7158 74.1028 76.9107 73.574 77.3414 73.0766C77.7683 72.5838 78.2615 72.3171 78.8216 72.2766C79.3812 72.2278 79.8919 72.4032 80.3533 72.8028C80.8103 73.1983 81.0595 73.6805 81.1006 74.2491C81.1326 74.81 80.9372 75.3345 80.5145 75.8232C80.0838 76.3206 79.5906 76.5915 79.0349 76.6358ZM77.8032 74.4996C77.8288 74.796 77.967 75.053 78.2181 75.2701C78.4689 75.4873 78.7433 75.5896 79.0407 75.5763C79.3381 75.563 79.5896 75.4381 79.7954 75.2006C80.0048 74.9585 80.0957 74.6902 80.0682 74.396C80.0407 74.1019 79.8993 73.8439 79.644 73.6229C79.3928 73.4058 79.1187 73.3054 78.8216 73.3229C78.5246 73.3401 78.2731 73.4676 78.0676 73.7051C77.866 73.9381 77.778 74.2028 77.8035 74.4996H77.8032Z" fill="#FEFEFE"/>
<path fill-rule="evenodd" clip-rule="evenodd" d="M80.5746 63.0839C80.1313 62.8117 79.6371 62.8994 79.1436 63.0385C76.5517 64.1609 75.5229 64.7152 74.474 67.2152C74.2851 67.8175 75.2621 68.4171 75.8902 67.9492C76.2378 67.6903 75.9734 67.4861 75.7886 67.2553C75.2498 66.5832 75.7731 65.8621 76.3041 65.2489C77.4478 63.9285 79.8238 63.2143 80.1326 65.3165C81.3174 65.1634 81.1947 63.836 80.5746 63.0839V63.0839Z" stroke="black" stroke-width="2.11662" stroke-miterlimit="22.9256"/>
<path fill-rule="evenodd" clip-rule="evenodd" d="M80.5746 63.0839C80.1313 62.8117 79.6371 62.8994 79.1436 63.0385C76.5517 64.1609 75.5229 64.7152 74.474 67.2152C74.2851 67.8175 75.2621 68.4171 75.8902 67.9492C76.2378 67.6903 75.9734 67.4861 75.7886 67.2553C75.2498 66.5832 75.7731 65.8621 76.3041 65.2489C77.4478 63.9285 79.8238 63.2143 80.1326 65.3165C81.3174 65.1634 81.1947 63.836 80.5746 63.0839Z" fill="#FEFEFE"/>
<path fill-rule="evenodd" clip-rule="evenodd" d="M79.7896 67.91C79.4323 68.3951 78.0531 70.8466 76.5761 70.867C76.4411 70.8689 75.7502 70.343 75.9447 69.9149C76.0489 69.6854 76.2282 69.6715 76.5644 69.6094C77.6945 69.4 78.8738 67.1327 79.6796 66.5935C79.9197 66.9718 80.0042 67.6191 79.7896 67.9103V67.91Z" stroke="black" stroke-width="2.11662" stroke-miterlimit="22.9256"/>
<path fill-rule="evenodd" clip-rule="evenodd" d="M79.7896 67.91C79.4323 68.3951 78.0531 70.8466 76.5761 70.867C76.4411 70.8689 75.7502 70.343 75.9447 69.9149C76.0489 69.6854 76.2282 69.6715 76.5644 69.6094C77.6945 69.4 78.8738 67.1327 79.6796 66.5935C79.9197 66.9718 80.0042 67.6191 79.7896 67.9103V67.91Z" fill="#FEFEFE"/>
<defs>
<linearGradient id="paint0_linear" x1="51.1277" y1="69.3641" x2="50.6164" y2="4.87018" gradientUnits="userSpaceOnUse">
<stop stop-color="#898989"/>
<stop offset="0.290196" stop-color="#D9DADA"/>
<stop offset="0.568627" stop-color="#F5F5F5"/>
<stop offset="0.760784" stop-color="#9D9E9E"/>
<stop offset="1" stop-color="#FEFEFE"/>
</linearGradient>
<radialGradient id="paint1_radial" cx="0" cy="0" r="1" gradientUnits="userSpaceOnUse" gradientTransform="translate(50.3205 46.5647) rotate(-92.5557) scale(9.97723 18.9785)">
<stop stop-color="#FEFEFE"/>
<stop offset="0.239216" stop-color="#9D9E9E"/>
<stop offset="0.611765" stop-color="#F5F5F5"/>
<stop offset="0.85098" stop-color="#D9DADA"/>
<stop offset="1" stop-color="#898989"/>
</radialGradient>
<radialGradient id="paint2_radial" cx="0" cy="0" r="1" gradientUnits="userSpaceOnUse" gradientTransform="translate(50.5022 48.1521) rotate(-178.494) scale(7.48446 8.12905)">
<stop stop-color="#A76E27"/>
<stop offset="0.658824" stop-color="#F4E9A7"/>
<stop offset="0.8" stop-color="#CFA048"/>
<stop offset="1" stop-color="#996625"/>
</radialGradient>
</defs>
</svg>
