<svg width="106" height="106" viewBox="0 0 106 106" fill="none" xmlns="http://www.w3.org/2000/svg">
<path d="M7.96668 79L53 1L98.0333 79H7.96668Z" stroke="#9B6826" stroke-opacity="0.25"/>
<path d="M61.8335 24.6667L97.1668 37.4259" stroke="#9B6826"/>
<path d="M79.0092 30.5555V63.4352H60.3611" stroke="#9B6826"/>
<path d="M54.8835 46.5L61.5 30.3209L68.1165 46.5H54.8835Z" stroke="#9B6826"/>
<path d="M89.8835 57.5L96.5 41.3209L103.117 57.5H89.8835Z" stroke="#9B6826"/>
<mask id="path-6-inside-1" fill="white">
<path d="M70 46C70 46.9193 69.7801 47.8295 69.353 48.6788C68.9258 49.5281 68.2997 50.2997 67.5104 50.9497C66.7211 51.5998 65.7841 52.1154 64.7528 52.4672C63.7215 52.8189 62.6162 53 61.5 53C60.3838 53 59.2785 52.8189 58.2472 52.4672C57.2159 52.1154 56.2789 51.5998 55.4896 50.9497C54.7003 50.2997 54.0742 49.5281 53.647 48.6788C53.2199 47.8295 53 46.9193 53 46L61.5 46H70Z"/>
</mask>
<path d="M70 46C70 46.9193 69.7801 47.8295 69.353 48.6788C68.9258 49.5281 68.2997 50.2997 67.5104 50.9497C66.7211 51.5998 65.7841 52.1154 64.7528 52.4672C63.7215 52.8189 62.6162 53 61.5 53C60.3838 53 59.2785 52.8189 58.2472 52.4672C57.2159 52.1154 56.2789 51.5998 55.4896 50.9497C54.7003 50.2997 54.0742 49.5281 53.647 48.6788C53.2199 47.8295 53 46.9193 53 46L61.5 46H70Z" fill="#1F1F1F" stroke="#9B6826" stroke-width="2" mask="url(#path-6-inside-1)"/>
<mask id="path-7-inside-2" fill="white">
<path d="M105 57C105 57.9193 104.78 58.8295 104.353 59.6788C103.926 60.5281 103.3 61.2997 102.51 61.9497C101.721 62.5998 100.784 63.1154 99.7528 63.4672C98.7215 63.8189 97.6162 64 96.5 64C95.3838 64 94.2785 63.8189 93.2472 63.4672C92.2159 63.1154 91.2789 62.5998 90.4896 61.9497C89.7003 61.2997 89.0742 60.5281 88.647 59.6788C88.2199 58.8295 88 57.9193 88 57L96.5 57H105Z"/>
</mask>
<path d="M105 57C105 57.9193 104.78 58.8295 104.353 59.6788C103.926 60.5281 103.3 61.2997 102.51 61.9497C101.721 62.5998 100.784 63.1154 99.7528 63.4672C98.7215 63.8189 97.6162 64 96.5 64C95.3838 64 94.2785 63.8189 93.2472 63.4672C92.2159 63.1154 91.2789 62.5998 90.4896 61.9497C89.7003 61.2997 89.0742 60.5281 88.647 59.6788C88.2199 58.8295 88 57.9193 88 57L96.5 57H105Z" fill="#1F1F1F" stroke="#9B6826" stroke-width="2" mask="url(#path-7-inside-2)"/>
<circle cx="79" cy="30" r="3.5" fill="#1F1F1F" stroke="#9B6826"/>
</svg>
