<svg width="106" height="106" viewBox="0 0 106 106" fill="none" xmlns="http://www.w3.org/2000/svg">
<path d="M7.96668 79L53 1L98.0333 79H7.96668Z" stroke="#9B6826" stroke-opacity="0.25"/>
<path d="M74.2935 53.4897L74.6496 53.8517L75.0061 53.4901L85.6336 42.7094L87.2974 44.3946L74.6667 57.1879L68.7026 51.1471L70.3493 49.4792L74.2935 53.4897ZM70.7065 48.4162L70.3507 48.0545L69.9942 48.4156L67.6442 50.7958L67.2974 51.1471L67.6442 51.4984L74.3109 58.2509L74.6667 58.6113L75.0225 58.2509L88.3558 44.7459L88.7026 44.3946L88.3558 44.0433L85.9891 41.6462L85.6331 41.2855L85.2773 41.6465L74.6504 52.4264L70.7065 48.4162ZM63.5167 35.9544V35.954C63.5167 34.3639 64.7854 33.0778 66.3333 33.0778H89.6667C91.2177 33.0778 92.4998 34.367 92.5 35.9536C92.5 35.9537 92.5 35.9539 92.5 35.954L92.4833 57.781V57.7814C92.4833 58.7755 91.9862 59.6529 91.235 60.1706C91.2344 60.171 91.2339 60.1714 91.2333 60.1718L77.9998 69.1131L64.7501 60.1718C64.7494 60.1713 64.7488 60.1709 64.7482 60.1705C63.9971 59.6528 63.5001 58.7756 63.5 57.7816C63.5 57.7815 63.5 57.7815 63.5 57.7814L63.5167 35.9544Z" fill="#1F1F1F" stroke="#9B6826"/>
<circle cx="92" cy="57" r="7.5" fill="#1F1F1F" stroke="#9B6826"/>
<path d="M94.016 58.524L94.472 59.22C94.008 59.82 93.316 60.12 92.396 60.12C91.532 60.12 90.832 59.864 90.296 59.352C89.768 58.84 89.504 58.156 89.504 57.3C89.504 56.508 89.764 55.84 90.284 55.296C90.804 54.752 91.456 54.48 92.24 54.48C93.184 54.48 93.892 54.716 94.364 55.188L93.92 55.944C93.504 55.568 92.988 55.38 92.372 55.38C91.868 55.38 91.432 55.564 91.064 55.932C90.704 56.292 90.524 56.748 90.524 57.3C90.524 57.884 90.708 58.348 91.076 58.692C91.452 59.044 91.916 59.22 92.468 59.22C93.092 59.22 93.608 58.988 94.016 58.524Z" fill="#9B6826"/>
</svg>
