<svg width="106" height="106" viewBox="0 0 106 106" fill="none" xmlns="http://www.w3.org/2000/svg">
<path d="M7.96668 79L53 1L98.0333 79H7.96668Z" stroke="#9B6826" stroke-opacity="0.25"/>
<path d="M69.6822 68.5467H56.9346V52.8882L74.2056 38.4659L90.6542 52.8882V68.5467H76.6729L73.3832 64.014L81.6075 59.0692L69.6822 49.1796L75.028 58.2451L66.8037 62.7778L69.6822 68.5467Z" fill="#1F1F1F"/>
<path d="M54.4673 51.652L74.2056 34.7574L93.1215 51.652L96 49.1796L90.6542 43.8228V32.697H84.0748V38.4659L74.2056 29.4005L52 48.3555L54.4673 51.652Z" fill="#1F1F1F"/>
<path d="M69.6822 68.5467H56.9346V52.8882L74.2056 38.4659L90.6542 52.8882V68.5467H76.6729L73.3832 64.014L81.6075 59.0692L69.6822 49.1796L75.028 58.2451L66.8037 62.7778L69.6822 68.5467Z" stroke="#9B6826"/>
<path d="M54.4673 51.652L74.2056 34.7574L93.1215 51.652L96 49.1796L90.6542 43.8228V32.697H84.0748V38.4659L74.2056 29.4005L52 48.3555L54.4673 51.652Z" stroke="#9B6826"/>
</svg>
