<svg width="106" height="106" viewBox="0 0 106 106" fill="none" xmlns="http://www.w3.org/2000/svg">
<path d="M7.96668 79L53 1L98.0333 79H7.96668Z" stroke="#9B6826" stroke-opacity="0.25"/>
<circle cx="75" cy="40" r="7.5" fill="#1F1F1F" stroke="#9B6826"/>
<mask id="path-3-inside-1" fill="white">
<path d="M91 66C91 61.7565 89.3143 57.6869 86.3137 54.6863C83.3131 51.6857 79.2435 50 75 50C70.7565 50 66.6869 51.6857 63.6863 54.6863C60.6857 57.6869 59 61.7565 59 66L75 66H91Z"/>
</mask>
<path d="M91 66C91 61.7565 89.3143 57.6869 86.3137 54.6863C83.3131 51.6857 79.2435 50 75 50C70.7565 50 66.6869 51.6857 63.6863 54.6863C60.6857 57.6869 59 61.7565 59 66L75 66H91Z" fill="#1F1F1F" stroke="#9B6826" stroke-width="2" mask="url(#path-3-inside-1)"/>
<circle cx="89" cy="61" r="10.5" fill="#1F1F1F" stroke="#9B6826"/>
<circle cx="89" cy="60" r="2.5" stroke="#9B6826"/>
<rect x="84.5" y="60.5" width="9" height="5" fill="#1F1F1F" stroke="#9B6826"/>
<mask id="path-7-inside-2" fill="white">
<path d="M89.7045 63.7097C89.8449 63.5703 89.9408 63.3925 89.9801 63.1987C90.0194 63.0048 90.0003 62.8037 89.9253 62.6207C89.8502 62.4377 89.7226 62.281 89.5586 62.1706C89.3945 62.0601 89.2014 62.0007 89.0036 62C88.8058 61.9993 88.6123 62.0573 88.4474 62.1665C88.2826 62.2758 88.1539 62.4315 88.0775 62.614C88.0012 62.7964 87.9806 62.9974 88.0185 63.1916C88.0564 63.3857 88.151 63.5642 88.2903 63.7046L89 63L89.7045 63.7097Z"/>
</mask>
<path d="M89.7045 63.7097C89.8449 63.5703 89.9408 63.3925 89.9801 63.1987C90.0194 63.0048 90.0003 62.8037 89.9253 62.6207C89.8502 62.4377 89.7226 62.281 89.5586 62.1706C89.3945 62.0601 89.2014 62.0007 89.0036 62C88.8058 61.9993 88.6123 62.0573 88.4474 62.1665C88.2826 62.2758 88.1539 62.4315 88.0775 62.614C88.0012 62.7964 87.9806 62.9974 88.0185 63.1916C88.0564 63.3857 88.151 63.5642 88.2903 63.7046L89 63L89.7045 63.7097Z" fill="#C4C4C4" stroke="#9B6826" stroke-width="2" mask="url(#path-7-inside-2)"/>
</svg>
