<svg width="106" height="106" viewBox="0 0 106 106" fill="none" xmlns="http://www.w3.org/2000/svg">
<path d="M7.96668 79L53 1L98.0333 79H7.96668Z" stroke="#9B6826" stroke-opacity="0.25"/>
<path d="M84.25 49.0188V49.5188H84.75H89.9062C91.2763 49.5188 92.5 50.7466 92.5 52.1376V56.8356H60.5V52.1376C60.5 50.7466 61.7237 49.5188 63.0938 49.5188H68.25H68.75V49.0188V45.9C68.75 44.509 69.9737 43.2812 71.3438 43.2812H81.6562C83.0263 43.2812 84.25 44.509 84.25 45.9V49.0188ZM80.625 49.5188H81.125V49.0188V46.9396V46.4396H80.625H72.375H71.875V46.9396V49.0188V49.5188H72.375H80.625ZM79.5938 64.0732C80.4435 64.0732 81.125 63.3803 81.125 62.5336V59.9148H92.5V68.7712C92.5 70.1622 91.2763 71.39 89.9062 71.39H63.0938C61.7237 71.39 60.5 70.1622 60.5 68.7712V59.9148H71.875V62.5336C71.875 63.3803 72.5565 64.0732 73.4062 64.0732H79.5938Z" fill="#1F1F1F" stroke="#9B6826"/>
</svg>
