<svg width="107" height="106" viewBox="0 0 107 106" fill="none" xmlns="http://www.w3.org/2000/svg">
<path d="M7.96668 79L53 1L98.0333 79H7.96668Z" stroke="#9B6826" stroke-opacity="0.25"/>
<mask id="path-2-inside-1" fill="white">
<path fill-rule="evenodd" clip-rule="evenodd" d="M78 52.4867C81.866 52.4867 85 49.3409 85 45.4604C85 41.58 81.866 38.4342 78 38.4342C74.134 38.4342 71 41.58 71 45.4604C71 49.3409 74.134 52.4867 78 52.4867ZM102 45.4605C102 47.1291 100.653 48.4755 99 48.4755C97.3467 48.4755 96 47.1291 96 45.4605C96 43.7918 97.3467 42.4455 99 42.4455C100.653 42.4455 102 43.7918 102 45.4605ZM103 45.4605C103 47.6779 101.209 49.4755 99 49.4755C96.7909 49.4755 95 47.6779 95 45.4605C95 43.2431 96.7909 41.4455 99 41.4455C101.209 41.4455 103 43.2431 103 45.4605ZM59 46.468C60.101 46.468 61 45.571 61 44.4567C61 43.3424 60.101 42.4455 59 42.4455C57.899 42.4455 57 43.3424 57 44.4567C57 45.571 57.899 46.468 59 46.468ZM59 47.468C60.6569 47.468 62 46.1198 62 44.4567C62 42.7937 60.6569 41.4455 59 41.4455C57.3431 41.4455 56 42.7937 56 44.4567C56 46.1198 57.3431 47.468 59 47.468ZM90.9343 63.169C91.6379 64.874 92 66.7013 92 68.5467H78L64 68.5467C64 66.7013 64.3621 64.874 65.0657 63.169C65.7693 61.4641 66.8005 59.915 68.1005 58.6101C69.4005 57.3052 70.9439 56.2701 72.6424 55.5639C74.341 54.8577 76.1615 54.4942 78 54.4942C79.8385 54.4942 81.659 54.8577 83.3576 55.5639C85.0561 56.2701 86.5995 57.3052 87.8995 58.6101C89.1995 59.915 90.2307 61.4641 90.9343 63.169ZM105.929 58.5129C105.846 57.9332 105.691 57.3649 105.467 56.8215C105.115 55.9683 104.599 55.1933 103.948 54.5407C103.298 53.8881 102.527 53.3706 101.678 53.0176C100.829 52.6646 99.9187 52.483 99 52.483C98.0813 52.483 97.1714 52.6646 96.3224 53.0176C95.4734 53.3706 94.7018 53.8881 94.0516 54.5407C93.4014 55.1933 92.8854 55.9683 92.5333 56.8215C92.3091 57.3649 92.1541 57.9332 92.0712 58.5129H99H105.929ZM106.938 58.5129C106.849 57.802 106.665 57.1047 106.391 56.44C105.989 55.4658 105.4 54.5805 104.657 53.8349C103.914 53.0892 103.032 52.4978 102.061 52.0942C101.091 51.6907 100.051 51.483 99 51.483C97.9494 51.483 96.9091 51.6907 95.9385 52.0942C94.9679 52.4978 94.086 53.0892 93.3431 53.8349C92.6003 54.5805 92.011 55.4658 91.609 56.44C91.3347 57.1047 91.1512 57.802 91.0623 58.5129C91.0209 58.844 91 59.1779 91 59.5129H92H99H106H107C107 59.1779 106.979 58.844 106.938 58.5129ZM63.6189 53.5747C63.7421 53.8734 63.8361 54.1826 63.8999 54.498H59H54.1001C54.1639 54.1826 54.2579 53.8734 54.3811 53.5747C54.6327 52.9651 55.0013 52.4114 55.4658 51.9452C55.9303 51.479 56.4814 51.1094 57.0878 50.8573C57.6942 50.6052 58.3439 50.4755 59 50.4755C59.6561 50.4755 60.3058 50.6052 60.9122 50.8573C61.5186 51.1094 62.0697 51.479 62.5342 51.9452C62.9987 52.4114 63.3673 52.9651 63.6189 53.5747ZM64.5433 53.1932C64.7168 53.6136 64.8418 54.0514 64.9167 54.498C64.972 54.8276 65 55.1621 65 55.498H64H59H54H53C53 55.1621 53.028 54.8276 53.0833 54.498C53.1582 54.0514 53.2832 53.6136 53.4567 53.1932C53.7583 52.4626 54.2002 51.7987 54.7574 51.2394C55.3145 50.6802 55.9759 50.2366 56.7039 49.9339C57.4319 49.6312 58.2121 49.4755 59 49.4755C59.7879 49.4755 60.5681 49.6312 61.2961 49.9339C62.0241 50.2366 62.6855 50.6802 63.2426 51.2394C63.7998 51.7987 64.2417 52.4626 64.5433 53.1932Z"/>
</mask>
<path fill-rule="evenodd" clip-rule="evenodd" d="M78 52.4867C81.866 52.4867 85 49.3409 85 45.4604C85 41.58 81.866 38.4342 78 38.4342C74.134 38.4342 71 41.58 71 45.4604C71 49.3409 74.134 52.4867 78 52.4867ZM102 45.4605C102 47.1291 100.653 48.4755 99 48.4755C97.3467 48.4755 96 47.1291 96 45.4605C96 43.7918 97.3467 42.4455 99 42.4455C100.653 42.4455 102 43.7918 102 45.4605ZM103 45.4605C103 47.6779 101.209 49.4755 99 49.4755C96.7909 49.4755 95 47.6779 95 45.4605C95 43.2431 96.7909 41.4455 99 41.4455C101.209 41.4455 103 43.2431 103 45.4605ZM59 46.468C60.101 46.468 61 45.571 61 44.4567C61 43.3424 60.101 42.4455 59 42.4455C57.899 42.4455 57 43.3424 57 44.4567C57 45.571 57.899 46.468 59 46.468ZM59 47.468C60.6569 47.468 62 46.1198 62 44.4567C62 42.7937 60.6569 41.4455 59 41.4455C57.3431 41.4455 56 42.7937 56 44.4567C56 46.1198 57.3431 47.468 59 47.468ZM90.9343 63.169C91.6379 64.874 92 66.7013 92 68.5467H78L64 68.5467C64 66.7013 64.3621 64.874 65.0657 63.169C65.7693 61.4641 66.8005 59.915 68.1005 58.6101C69.4005 57.3052 70.9439 56.2701 72.6424 55.5639C74.341 54.8577 76.1615 54.4942 78 54.4942C79.8385 54.4942 81.659 54.8577 83.3576 55.5639C85.0561 56.2701 86.5995 57.3052 87.8995 58.6101C89.1995 59.915 90.2307 61.4641 90.9343 63.169ZM105.929 58.5129C105.846 57.9332 105.691 57.3649 105.467 56.8215C105.115 55.9683 104.599 55.1933 103.948 54.5407C103.298 53.8881 102.527 53.3706 101.678 53.0176C100.829 52.6646 99.9187 52.483 99 52.483C98.0813 52.483 97.1714 52.6646 96.3224 53.0176C95.4734 53.3706 94.7018 53.8881 94.0516 54.5407C93.4014 55.1933 92.8854 55.9683 92.5333 56.8215C92.3091 57.3649 92.1541 57.9332 92.0712 58.5129H99H105.929ZM106.938 58.5129C106.849 57.802 106.665 57.1047 106.391 56.44C105.989 55.4658 105.4 54.5805 104.657 53.8349C103.914 53.0892 103.032 52.4978 102.061 52.0942C101.091 51.6907 100.051 51.483 99 51.483C97.9494 51.483 96.9091 51.6907 95.9385 52.0942C94.9679 52.4978 94.086 53.0892 93.3431 53.8349C92.6003 54.5805 92.011 55.4658 91.609 56.44C91.3347 57.1047 91.1512 57.802 91.0623 58.5129C91.0209 58.844 91 59.1779 91 59.5129H92H99H106H107C107 59.1779 106.979 58.844 106.938 58.5129ZM63.6189 53.5747C63.7421 53.8734 63.8361 54.1826 63.8999 54.498H59H54.1001C54.1639 54.1826 54.2579 53.8734 54.3811 53.5747C54.6327 52.9651 55.0013 52.4114 55.4658 51.9452C55.9303 51.479 56.4814 51.1094 57.0878 50.8573C57.6942 50.6052 58.3439 50.4755 59 50.4755C59.6561 50.4755 60.3058 50.6052 60.9122 50.8573C61.5186 51.1094 62.0697 51.479 62.5342 51.9452C62.9987 52.4114 63.3673 52.9651 63.6189 53.5747ZM64.5433 53.1932C64.7168 53.6136 64.8418 54.0514 64.9167 54.498C64.972 54.8276 65 55.1621 65 55.498H64H59H54H53C53 55.1621 53.028 54.8276 53.0833 54.498C53.1582 54.0514 53.2832 53.6136 53.4567 53.1932C53.7583 52.4626 54.2002 51.7987 54.7574 51.2394C55.3145 50.6802 55.9759 50.2366 56.7039 49.9339C57.4319 49.6312 58.2121 49.4755 59 49.4755C59.7879 49.4755 60.5681 49.6312 61.2961 49.9339C62.0241 50.2366 62.6855 50.6802 63.2426 51.2394C63.7998 51.7987 64.2417 52.4626 64.5433 53.1932Z" fill="#1F1F1F"/>
<path d="M92 68.5467V69.5467H93V68.5467H92ZM90.9343 63.169L91.8587 62.7876L91.8587 62.7876L90.9343 63.169ZM78 68.5467L78 67.5467L78 67.5467L78 68.5467ZM64 68.5467H63V69.5467L64 69.5467L64 68.5467ZM65.0657 63.169L64.1413 62.7876L64.1413 62.7876L65.0657 63.169ZM68.1005 58.6101L67.3921 57.9043L67.3921 57.9043L68.1005 58.6101ZM72.6424 55.5639L73.0263 56.4873L73.0263 56.4873L72.6424 55.5639ZM83.3576 55.5639L83.7415 54.6405L83.7415 54.6405L83.3576 55.5639ZM87.8995 58.6101L87.1911 59.3159L87.1911 59.3159L87.8995 58.6101ZM105.467 56.8215L104.542 57.2029L104.542 57.2029L105.467 56.8215ZM105.929 58.5129V59.5129H107.082L106.919 58.3713L105.929 58.5129ZM103.948 54.5407L103.24 55.2465L103.24 55.2465L103.948 54.5407ZM101.678 53.0176L101.294 53.941L101.294 53.941L101.678 53.0176ZM96.3224 53.0176L96.7063 53.941L96.7063 53.941L96.3224 53.0176ZM94.0516 54.5407L94.76 55.2465L94.76 55.2465L94.0516 54.5407ZM92.5333 56.8215L93.4577 57.2029L93.4577 57.2029L92.5333 56.8215ZM92.0712 58.5129L91.0813 58.3713L90.9179 59.5129H92.0712V58.5129ZM106.391 56.44L107.315 56.0585L107.315 56.0585L106.391 56.44ZM106.938 58.5129L105.945 58.637L105.945 58.637L106.938 58.5129ZM104.657 53.8349L103.948 54.5407L103.948 54.5407L104.657 53.8349ZM102.061 52.0942L101.678 53.0176L101.678 53.0176L102.061 52.0942ZM95.9385 52.0942L96.3224 53.0176L96.3224 53.0176L95.9385 52.0942ZM93.3431 53.8349L94.0516 54.5407L94.0516 54.5407L93.3431 53.8349ZM91.609 56.44L90.6846 56.0585L90.6846 56.0585L91.609 56.44ZM91.0623 58.5129L90.07 58.3889L90.07 58.3889L91.0623 58.5129ZM91 59.5129H90V60.5129H91V59.5129ZM107 59.5129V60.5129H108V59.5129H107ZM63.8999 54.498V55.498H65.1224L64.88 54.2997L63.8999 54.498ZM63.6189 53.5747L62.6945 53.9562L62.6945 53.9562L63.6189 53.5747ZM54.1001 54.498L53.12 54.2997L52.8776 55.498H54.1001V54.498ZM54.3811 53.5747L55.3055 53.9562L55.3055 53.9562L54.3811 53.5747ZM55.4658 51.9452L56.1742 52.651L56.1742 52.651L55.4658 51.9452ZM57.0878 50.8573L57.4717 51.7806L57.4717 51.7806L57.0878 50.8573ZM60.9122 50.8573L61.2961 49.9339L61.2961 49.9339L60.9122 50.8573ZM62.5342 51.9452L61.8258 52.651L61.8258 52.651L62.5342 51.9452ZM64.9167 54.498L63.9305 54.6634L63.9305 54.6634L64.9167 54.498ZM64.5433 53.1932L63.6189 53.5747L63.6189 53.5747L64.5433 53.1932ZM65 55.498V56.498H66V55.498H65ZM53 55.498H52V56.498H53V55.498ZM53.0833 54.498L52.0971 54.3325L52.0971 54.3325L53.0833 54.498ZM53.4567 53.1932L52.5323 52.8118L52.5323 52.8118L53.4567 53.1932ZM54.7574 51.2394L55.4658 51.9452L55.4658 51.9452L54.7574 51.2394ZM56.7039 49.9339L57.0878 50.8573L57.0878 50.8573L56.7039 49.9339ZM61.2961 49.9339L60.9122 50.8573L60.9122 50.8573L61.2961 49.9339ZM63.2426 51.2394L63.9511 50.5336L63.9511 50.5336L63.2426 51.2394ZM84 45.4604C84 48.7922 81.3102 51.4867 78 51.4867V53.4867C82.4218 53.4867 86 49.8897 86 45.4604H84ZM78 39.4342C81.3102 39.4342 84 42.1287 84 45.4604H86C86 41.0312 82.4218 37.4342 78 37.4342V39.4342ZM72 45.4604C72 42.1287 74.6898 39.4342 78 39.4342V37.4342C73.5782 37.4342 70 41.0312 70 45.4604H72ZM78 51.4867C74.6898 51.4867 72 48.7922 72 45.4604H70C70 49.8897 73.5782 53.4867 78 53.4867V51.4867ZM99 49.4755C101.209 49.4755 103 47.6782 103 45.4605H101C101 46.58 100.098 47.4755 99 47.4755V49.4755ZM95 45.4605C95 47.6782 96.7912 49.4755 99 49.4755V47.4755C97.9021 47.4755 97 46.58 97 45.4605H95ZM99 41.4455C96.7912 41.4455 95 43.2427 95 45.4605H97C97 44.3409 97.9021 43.4455 99 43.4455V41.4455ZM103 45.4605C103 43.2427 101.209 41.4455 99 41.4455V43.4455C100.098 43.4455 101 44.3409 101 45.4605H103ZM99 50.4755C101.765 50.4755 104 48.2267 104 45.4605H102C102 47.1291 100.653 48.4755 99 48.4755V50.4755ZM94 45.4605C94 48.2267 96.2351 50.4755 99 50.4755V48.4755C97.3467 48.4755 96 47.1291 96 45.4605H94ZM99 40.4455C96.2351 40.4455 94 42.6943 94 45.4605H96C96 43.7918 97.3467 42.4455 99 42.4455V40.4455ZM104 45.4605C104 42.6943 101.765 40.4455 99 40.4455V42.4455C100.653 42.4455 102 43.7918 102 45.4605H104ZM60 44.4567C60 45.0217 59.5458 45.468 59 45.468V47.468C60.6563 47.468 62 46.1203 62 44.4567H60ZM59 43.4455C59.5458 43.4455 60 43.8917 60 44.4567H62C62 42.7931 60.6563 41.4455 59 41.4455V43.4455ZM58 44.4567C58 43.8917 58.4542 43.4455 59 43.4455V41.4455C57.3437 41.4455 56 42.7931 56 44.4567H58ZM59 45.468C58.4542 45.468 58 45.0217 58 44.4567H56C56 46.1203 57.3437 47.468 59 47.468V45.468ZM61 44.4567C61 45.571 60.101 46.468 59 46.468V48.468C61.2127 48.468 63 46.6685 63 44.4567H61ZM59 42.4455C60.101 42.4455 61 43.3424 61 44.4567H63C63 42.2449 61.2127 40.4455 59 40.4455V42.4455ZM57 44.4567C57 43.3424 57.899 42.4455 59 42.4455V40.4455C56.7873 40.4455 55 42.2449 55 44.4567H57ZM59 46.468C57.899 46.468 57 45.571 57 44.4567H55C55 46.6685 56.7873 48.468 59 48.468V46.468ZM93 68.5467C93 66.5705 92.6122 64.6135 91.8587 62.7876L90.0099 63.5505C90.6635 65.1344 91 66.8321 91 68.5467H93ZM78 69.5467H92V67.5467H78V69.5467ZM64 69.5467L78 69.5467L78 67.5467L64 67.5467L64 69.5467ZM64.1413 62.7876C63.3878 64.6136 63 66.5705 63 68.5467H65C65 66.8321 65.3365 65.1344 65.9901 63.5505L64.1413 62.7876ZM67.3921 57.9043C65.9994 59.3022 64.8948 60.9616 64.1413 62.7876L65.9901 63.5505C66.6437 61.9666 67.6016 60.5277 68.8089 59.3159L67.3921 57.9043ZM72.2585 54.6405C70.4384 55.3973 68.7848 56.5064 67.3921 57.9043L68.8089 59.3159C70.0163 58.104 71.4494 57.1429 73.0263 56.4873L72.2585 54.6405ZM78 53.4942C76.0297 53.4942 74.0787 53.8837 72.2585 54.6405L73.0263 56.4873C74.6033 55.8316 76.2933 55.4942 78 55.4942V53.4942ZM83.7415 54.6405C81.9213 53.8837 79.9703 53.4942 78 53.4942V55.4942C79.7067 55.4942 81.3967 55.8316 82.9737 56.4873L83.7415 54.6405ZM88.6079 57.9043C87.2152 56.5064 85.5616 55.3973 83.7415 54.6405L82.9737 56.4873C84.5506 57.1429 85.9837 58.104 87.1911 59.3159L88.6079 57.9043ZM91.8587 62.7876C91.1052 60.9616 90.0006 59.3022 88.6079 57.9043L87.1911 59.3159C88.3984 60.5277 89.3563 61.9666 90.0099 63.5505L91.8587 62.7876ZM104.542 57.2029C104.735 57.6692 104.868 58.157 104.939 58.6546L106.919 58.3713C106.824 57.7094 106.647 57.0605 106.391 56.44L104.542 57.2029ZM103.24 55.2465C103.798 55.8061 104.24 56.4708 104.542 57.2029L106.391 56.44C105.989 55.4658 105.4 54.5805 104.657 53.8349L103.24 55.2465ZM101.294 53.941C102.021 54.2434 102.683 54.6869 103.24 55.2465L104.657 53.8349C103.914 53.0892 103.032 52.4978 102.061 52.0942L101.294 53.941ZM99 53.483C99.7869 53.483 100.566 53.6385 101.294 53.941L102.061 52.0942C101.091 51.6907 100.051 51.483 99 51.483V53.483ZM96.7063 53.941C97.4337 53.6385 98.2131 53.483 99 53.483V51.483C97.9494 51.483 96.9091 51.6907 95.9385 52.0942L96.7063 53.941ZM94.76 55.2465C95.3175 54.6869 95.9789 54.2434 96.7063 53.941L95.9385 52.0942C94.9679 52.4978 94.086 53.0892 93.3431 53.8349L94.76 55.2465ZM93.4577 57.2029C93.7599 56.4708 94.2025 55.8061 94.76 55.2465L93.3431 53.8349C92.6003 54.5805 92.011 55.4658 91.609 56.44L93.4577 57.2029ZM93.0611 58.6546C93.1323 58.157 93.2653 57.6692 93.4577 57.2029L91.609 56.44C91.3529 57.0605 91.176 57.7094 91.0813 58.3713L93.0611 58.6546ZM99 57.5129H92.0712V59.5129H99V57.5129ZM105.929 57.5129H99V59.5129H105.929V57.5129ZM105.467 56.8215C105.707 57.4036 105.868 58.0143 105.945 58.637L107.93 58.3889C107.83 57.5897 107.624 56.8059 107.315 56.0585L105.467 56.8215ZM103.948 54.5407C104.599 55.1933 105.115 55.9683 105.467 56.8215L107.315 56.0585C106.863 54.9632 106.201 53.9678 105.365 53.1291L103.948 54.5407ZM101.678 53.0176C102.527 53.3706 103.298 53.8881 103.948 54.5407L105.365 53.1291C104.53 52.2904 103.538 51.6249 102.445 51.1708L101.678 53.0176ZM99 52.483C99.9187 52.483 100.829 52.6646 101.678 53.0176L102.445 51.1708C101.353 50.7167 100.182 50.483 99 50.483V52.483ZM96.3224 53.0176C97.1714 52.6646 98.0813 52.483 99 52.483V50.483C97.8176 50.483 96.6468 50.7167 95.5546 51.1708L96.3224 53.0176ZM94.0516 54.5407C94.7018 53.8881 95.4734 53.3706 96.3224 53.0176L95.5546 51.1708C94.4624 51.6249 93.4703 52.2904 92.6347 53.1291L94.0516 54.5407ZM92.5333 56.8215C92.8854 55.9683 93.4014 55.1933 94.0516 54.5407L92.6347 53.1291C91.7992 53.9678 91.1366 54.9632 90.6846 56.0585L92.5333 56.8215ZM92.0545 58.637C92.1324 58.0143 92.2931 57.4036 92.5333 56.8215L90.6846 56.0585C90.3762 56.8059 90.1699 57.5897 90.07 58.3889L92.0545 58.637ZM92 59.5129C92 59.2195 92.0183 58.927 92.0545 58.637L90.07 58.3889C90.0235 58.761 90 59.1364 90 59.5129H92ZM92 58.5129H91V60.5129H92V58.5129ZM99 58.5129H92V60.5129H99V58.5129ZM106 58.5129H99V60.5129H106V58.5129ZM107 58.5129H106V60.5129H107V58.5129ZM105.945 58.637C105.982 58.927 106 59.2195 106 59.5129H108C108 59.1364 107.977 58.761 107.93 58.3889L105.945 58.637ZM64.88 54.2997C64.8036 53.9218 64.691 53.5512 64.5433 53.1932L62.6945 53.9562C62.7933 54.1955 62.8686 54.4434 62.9197 54.6962L64.88 54.2997ZM59 55.498H63.8999V53.498H59V55.498ZM54.1001 55.498H59V53.498H54.1001V55.498ZM53.4567 53.1932C53.309 53.5512 53.1964 53.9218 53.12 54.2997L55.0803 54.6962C55.1314 54.4434 55.2067 54.1955 55.3055 53.9562L53.4567 53.1932ZM54.7574 51.2394C54.2002 51.7987 53.7583 52.4626 53.4567 53.1932L55.3055 53.9562C55.5071 53.4676 55.8024 53.0242 56.1742 52.651L54.7574 51.2394ZM56.7039 49.9339C55.9759 50.2366 55.3145 50.6802 54.7574 51.2394L56.1742 52.651C56.546 52.2778 56.9869 51.9822 57.4717 51.7806L56.7039 49.9339ZM59 49.4755C58.2121 49.4755 57.4319 49.6312 56.7039 49.9339L57.4717 51.7806C57.9565 51.5791 58.4758 51.4755 59 51.4755V49.4755ZM61.2961 49.9339C60.5681 49.6312 59.7879 49.4755 59 49.4755V51.4755C59.5242 51.4755 60.0435 51.5791 60.5283 51.7806L61.2961 49.9339ZM63.2426 51.2394C62.6855 50.6802 62.0241 50.2366 61.2961 49.9339L60.5283 51.7806C61.0131 51.9822 61.454 52.2778 61.8258 52.651L63.2426 51.2394ZM64.5433 53.1932C64.2417 52.4626 63.7998 51.7987 63.2426 51.2394L61.8258 52.651C62.1976 53.0242 62.4929 53.4676 62.6945 53.9562L64.5433 53.1932ZM65.9029 54.3325C65.8156 53.812 65.6699 53.3018 65.4677 52.8118L63.6189 53.5747C63.7636 53.9254 63.868 54.2907 63.9305 54.6634L65.9029 54.3325ZM66 55.498C66 55.1065 65.9674 54.7167 65.9029 54.3325L63.9305 54.6634C63.9766 54.9385 64 55.2176 64 55.498H66ZM64 56.498H65V54.498H64V56.498ZM59 56.498H64V54.498H59V56.498ZM54 56.498H59V54.498H54V56.498ZM53 56.498H54V54.498H53V56.498ZM52.0971 54.3325C52.0326 54.7167 52 55.1065 52 55.498H54C54 55.2176 54.0234 54.9385 54.0695 54.6634L52.0971 54.3325ZM52.5323 52.8118C52.3301 53.3018 52.1844 53.812 52.0971 54.3325L54.0695 54.6634C54.132 54.2907 54.2364 53.9254 54.3811 53.5747L52.5323 52.8118ZM54.0489 50.5336C53.3991 51.1859 52.8838 51.96 52.5323 52.8118L54.3811 53.5747C54.6327 52.9651 55.0013 52.4114 55.4658 51.9452L54.0489 50.5336ZM56.32 49.0105C55.4704 49.3637 54.6988 49.8814 54.0489 50.5336L55.4658 51.9452C55.9303 51.479 56.4814 51.1094 57.0878 50.8573L56.32 49.0105ZM59 48.4755C58.0802 48.4755 57.1695 48.6573 56.32 49.0105L57.0878 50.8573C57.6942 50.6052 58.3439 50.4755 59 50.4755V48.4755ZM61.68 49.0105C60.8305 48.6573 59.9198 48.4755 59 48.4755V50.4755C59.6561 50.4755 60.3058 50.6052 60.9122 50.8573L61.68 49.0105ZM63.9511 50.5336C63.3012 49.8814 62.5296 49.3637 61.68 49.0105L60.9122 50.8573C61.5186 51.1094 62.0697 51.479 62.5342 51.9452L63.9511 50.5336ZM65.4677 52.8118C65.1162 51.96 64.6009 51.1859 63.9511 50.5336L62.5342 51.9452C62.9987 52.4114 63.3673 52.9651 63.6189 53.5747L65.4677 52.8118Z" fill="#9B6826" mask="url(#path-2-inside-1)"/>
</svg>
