<svg width="106" height="106" viewBox="0 0 106 106" fill="none" xmlns="http://www.w3.org/2000/svg">
<path d="M7.96668 79L53 1L98.0333 79H7.96668Z" stroke="#9B6826" stroke-opacity="0.25"/>
<path d="M100.354 59.9389L100.354 59.9388C100.591 59.0595 100.531 58.1745 100.237 57.3836C99.9384 56.5822 99.4066 55.8866 98.7083 55.3858L98.5295 55.2576L98.5033 55.0392L98.234 52.8006L98.234 52.8006L97.757 48.8307L97.757 48.8305C97.613 47.6285 97.2027 46.5112 96.5813 45.5399C95.9572 44.5646 95.122 43.7394 94.1361 43.1246L94.1359 43.1244C93.4754 42.712 92.7443 42.3922 91.9584 42.183L82.7575 39.7343L82.7575 39.7343C81.9717 39.5251 81.1767 39.439 80.3973 39.4677C79.6178 39.4965 78.852 39.6401 78.1237 39.8908L78.123 39.891C77.7596 40.0155 77.4052 40.1674 77.0626 40.3453L77.0624 40.3454C76.3779 40.7004 75.7411 41.1592 75.1766 41.7121L75.1759 41.7128C74.8938 41.9881 74.63 42.2886 74.3861 42.6123L71.9749 45.8134L71.9749 45.8134L70.6151 47.6184L70.4835 47.7932L70.2659 47.8151C69.8377 47.8582 69.4185 47.9645 69.0221 48.1305L69.0219 48.1305C67.8419 48.624 66.9008 49.6262 66.545 50.944L65.6136 54.3983L65.6136 54.3983C65.4045 55.1735 65.4339 55.9525 65.6489 56.6726C65.7208 56.9131 65.813 57.1472 65.9246 57.3723L66.0086 57.5419L65.9593 57.7245L64.9101 61.6153C64.8426 61.8661 64.8296 62.1186 64.8633 62.3607C64.9652 63.087 65.4928 63.7192 66.2532 63.9216L68.5713 64.5384C69.5881 64.8088 70.6289 64.2085 70.8992 63.2056L70.8993 63.2056L71.5203 60.9029L71.65 60.4217L72.1316 60.5499L90.6774 65.486L91.1622 65.615L91.0315 66.0994L90.4106 68.402C90.1405 69.4039 90.7383 70.4382 91.7535 70.7082L91.7536 70.7082L94.0718 71.325L94.0718 71.325C94.8325 71.5275 95.6093 71.2422 96.065 70.662L100.354 59.9389ZM100.354 59.9389L99.4222 63.3925M100.354 59.9389L99.4222 63.3925M97.498 65.9195L97.6547 65.8152C97.8647 65.6754 98.0625 65.5184 98.246 65.3458L97.498 65.9195ZM97.498 65.9195L97.4489 66.1012M97.498 65.9195L97.4489 66.1012M97.4489 66.1012L96.3997 69.9922L96.3996 69.9926M97.4489 66.1012L96.3996 69.9926M96.3996 69.9926C96.3322 70.2435 96.2164 70.4683 96.0654 70.6615L96.3996 69.9926ZM75.1992 55.7044C75.3229 55.2463 75.2798 54.7302 75.1556 54.2396C75.0295 53.7422 74.8099 53.2307 74.5354 52.7602C74.2609 52.2896 73.9234 51.8459 73.5518 51.4897C73.1851 51.1382 72.7568 50.8447 72.2974 50.7224L72.2973 50.7224C71.4932 50.5084 70.7136 50.5873 70.0696 50.9552C69.4252 51.3234 68.9643 51.954 68.7483 52.7536C68.5323 53.5534 68.614 54.3294 68.9876 54.9697C69.361 55.6094 69.9975 56.0652 70.8011 56.2792L70.8012 56.2792C70.9496 56.3187 71.1134 56.3657 71.2873 56.4156C71.8665 56.5818 72.5569 56.7799 73.1574 56.8381C73.5548 56.8766 73.9854 56.8642 74.3627 56.7006C74.77 56.5241 75.0678 56.1915 75.1992 55.7044ZM75.1992 55.7044L74.7187 55.5746L75.1992 55.7041C75.1992 55.7042 75.1992 55.7043 75.1992 55.7044ZM99.4222 63.3925C99.2131 64.1677 98.7956 64.8279 98.2461 65.3457L99.4222 63.3925ZM63.2614 50.0674L63.2613 50.0674L62.3299 53.5218L62.3298 53.522C62.1102 54.3372 62.0491 55.1724 62.1101 55.9948L59.6754 57.9858L59.6753 57.9858C59.6095 58.0396 59.5353 58.0413 59.4672 58.0007C59.4326 57.9801 59.4082 57.9522 59.3949 57.9244C59.3832 57.8999 59.3756 57.867 59.3853 57.8194L59.3854 57.8188L60.5434 52.1065C60.5434 52.1065 60.5434 52.1065 60.5434 52.1065C60.6825 51.4207 60.1938 50.7715 59.5009 50.7056C59.5008 50.7056 59.5007 50.7056 59.5006 50.7056L53.6619 50.1432L53.6618 50.1432C53.4894 50.1266 53.4462 49.9136 53.5789 49.826L53.5789 49.826L58.4651 46.6003L58.4655 46.6C59.047 46.2154 59.1686 45.4126 58.7235 44.8744L58.7232 44.874L54.995 40.3737L54.9949 40.3736C54.8971 40.2555 54.9948 40.0587 55.1705 40.0938L60.9212 41.244C61.6026 41.3804 62.2588 40.9021 62.327 40.2066L62.327 40.2064L62.8933 34.4061L62.8933 34.406C62.898 34.3572 62.9151 34.3273 62.9341 34.3066C62.9555 34.2833 62.9875 34.2634 63.0271 34.2536C63.1047 34.2343 63.1746 34.2577 63.2214 34.3272C63.2214 34.3273 63.2215 34.3274 63.2215 34.3275L66.4688 39.1799L66.469 39.1802C66.8564 39.7581 67.6592 39.8756 68.1971 39.4367L68.1975 39.4364L72.7275 35.7332L72.7276 35.7331C72.7934 35.6792 72.8674 35.6777 72.9353 35.7181C72.9699 35.7388 72.9943 35.7667 73.0077 35.7946C73.0195 35.8193 73.0271 35.8523 73.0175 35.9L72.1947 39.9508C72.0205 40.1459 71.8364 40.3555 71.6653 40.5823L71.6651 40.5825L69.2539 43.7836L69.2539 43.7837L68.5526 44.715C66.0085 45.4539 63.9614 47.4729 63.2614 50.0674ZM93.8356 53.7873L94.5487 53.9771L94.4607 53.2445L93.9837 49.2747C93.9341 48.8608 93.822 48.4648 93.6569 48.097L93.6568 48.0967C93.161 46.9937 92.1869 46.1436 90.9729 45.8205L81.772 43.3718L81.772 43.3718C80.9811 43.1614 80.1449 43.1911 79.3711 43.4572C78.5972 43.7234 77.9209 44.2139 77.4296 44.866L77.4296 44.8661L75.0183 48.0672L74.5716 48.6602L75.2891 48.8512L88.1889 52.2839L88.189 52.284L93.8356 53.7873ZM90.462 59.7624L90.462 59.7624C90.3307 60.2497 90.4211 60.687 90.6862 61.0437C90.9313 61.3737 91.2987 61.5986 91.6622 61.7626C92.2118 62.0106 92.9098 62.1821 93.4952 62.3258C93.6706 62.3689 93.836 62.4095 93.9842 62.449C94.7882 62.663 95.5679 62.584 96.2119 62.2161C96.8563 61.8479 97.3172 61.2174 97.5332 60.4177L97.5332 60.4176C97.7488 59.6182 97.6671 58.8423 97.2935 58.202C96.9202 57.5621 96.2837 57.1061 95.4796 56.8921C95.0202 56.7699 94.5018 56.8113 94.0078 56.9335C93.507 57.0573 92.9916 57.2737 92.5173 57.5447C92.0431 57.8157 91.5957 58.1493 91.2365 58.517C90.8824 58.8796 90.5855 59.3046 90.462 59.7624Z" fill="#1F1F1F" stroke="#9B6826"/>
</svg>
