<svg width="106" height="106" viewBox="0 0 106 106" fill="none" xmlns="http://www.w3.org/2000/svg">
<path d="M7.96668 79L53 1L98.0333 79H7.96668Z" stroke="#9B6826" stroke-opacity="0.25"/>
<circle cx="75" cy="40" r="7.5" fill="#1F1F1F" stroke="#9B6826"/>
<mask id="path-3-inside-1" fill="white">
<path d="M91 66C91 61.7565 89.3143 57.6869 86.3137 54.6863C83.3131 51.6857 79.2435 50 75 50C70.7565 50 66.6869 51.6857 63.6863 54.6863C60.6857 57.6869 59 61.7565 59 66L75 66H91Z"/>
</mask>
<path d="M91 66C91 61.7565 89.3143 57.6869 86.3137 54.6863C83.3131 51.6857 79.2435 50 75 50C70.7565 50 66.6869 51.6857 63.6863 54.6863C60.6857 57.6869 59 61.7565 59 66L75 66H91Z" fill="#1F1F1F" stroke="#9B6826" stroke-width="2" mask="url(#path-3-inside-1)"/>
<circle cx="89" cy="61" r="10.5" fill="#1F1F1F" stroke="#9B6826"/>
<path d="M93.5844 61.4613C93.6091 61.2686 93.6276 61.0759 93.6276 60.8711C93.6276 60.6663 93.6091 60.4736 93.5844 60.2809L94.8859 59.2872C95.0031 59.1968 95.034 59.0342 94.96 58.9017L93.7263 56.818C93.6708 56.7216 93.5659 56.6674 93.4549 56.6674C93.4179 56.6674 93.3809 56.6734 93.35 56.6855L91.8141 57.2877C91.4934 57.0468 91.1479 56.8481 90.7717 56.6975L90.5373 55.1016C90.5188 54.957 90.3892 54.8486 90.235 54.8486H87.7677C87.6135 54.8486 87.484 54.957 87.4655 55.1016L87.2311 56.6975C86.8548 56.8481 86.5094 57.0529 86.1886 57.2877L84.6527 56.6855C84.6157 56.6734 84.5787 56.6674 84.5417 56.6674C84.4368 56.6674 84.3319 56.7216 84.2764 56.818L83.0428 58.9017C82.9626 59.0342 82.9996 59.1968 83.1168 59.2872L84.4183 60.2809C84.3936 60.4736 84.3751 60.6724 84.3751 60.8711C84.3751 61.0698 84.3936 61.2686 84.4183 61.4613L83.1168 62.455C82.9996 62.5453 82.9687 62.7079 83.0428 62.8404L84.2764 64.9242C84.3319 65.0206 84.4368 65.0748 84.5478 65.0748C84.5848 65.0748 84.6219 65.0687 84.6527 65.0567L86.1886 64.4545C86.5094 64.6954 86.8548 64.8941 87.2311 65.0447L87.4655 66.6406C87.484 66.7852 87.6135 66.8936 87.7677 66.8936H90.235C90.3892 66.8936 90.5188 66.7852 90.5373 66.6406L90.7717 65.0447C91.1479 64.8941 91.4934 64.6893 91.8141 64.4545L93.35 65.0567C93.387 65.0687 93.424 65.0748 93.4611 65.0748C93.5659 65.0748 93.6708 65.0206 93.7263 64.9242L94.96 62.8404C95.034 62.7079 95.0031 62.5453 94.8859 62.455L93.5844 61.4613V61.4613ZM92.3631 60.4315C92.3878 60.6182 92.3939 60.7446 92.3939 60.8711C92.3939 60.9976 92.3816 61.1301 92.3631 61.3107L92.2767 61.9913L92.8257 62.4128L93.4919 62.9187L93.0601 63.6474L92.2767 63.3403L91.6352 63.0874L91.0801 63.4969C90.8148 63.6896 90.5619 63.8341 90.309 63.9365L89.6552 64.1955L89.5565 64.876L89.4331 65.6891H88.5696L88.4524 64.876L88.3537 64.1955L87.6998 63.9365C87.4346 63.8281 87.1879 63.6896 86.9411 63.5089L86.3798 63.0874L85.726 63.3463L84.9426 63.6535L84.5108 62.9248L85.177 62.4189L85.726 61.9973L85.6396 61.3168C85.6211 61.1301 85.6088 60.9915 85.6088 60.8711C85.6088 60.7506 85.6211 60.6121 85.6396 60.4315L85.726 59.7509L85.177 59.3293L84.5108 58.8235L84.9426 58.0947L85.726 58.4019L86.3675 58.6548L86.9226 58.2453C87.1879 58.0526 87.4408 57.908 87.6937 57.8057L88.3475 57.5467L88.4462 56.8662L88.5696 56.0531H89.427L89.5442 56.8662L89.6429 57.5467L90.2967 57.8057C90.5619 57.9141 90.8087 58.0526 91.0554 58.2333L91.6167 58.6548L92.2706 58.3959L93.0539 58.0887L93.4857 58.8174L92.8257 59.3293L92.2767 59.7509L92.3631 60.4315ZM89.0014 58.4621C87.6382 58.4621 86.534 59.5401 86.534 60.8711C86.534 62.2021 87.6382 63.2801 89.0014 63.2801C90.3646 63.2801 91.4687 62.2021 91.4687 60.8711C91.4687 59.5401 90.3646 58.4621 89.0014 58.4621ZM89.0014 62.0756C88.3228 62.0756 87.7677 61.5336 87.7677 60.8711C87.7677 60.2086 88.3228 59.6666 89.0014 59.6666C89.6799 59.6666 90.235 60.2086 90.235 60.8711C90.235 61.5336 89.6799 62.0756 89.0014 62.0756Z" fill="#9B6826"/>
</svg>
