<svg width="106" height="106" viewBox="0 0 106 106" fill="none" xmlns="http://www.w3.org/2000/svg">
<path d="M7.96668 79L53 1L98.0333 79H7.96668Z" stroke="#9B6826" stroke-opacity="0.25"/>
<rect x="56.5" y="27.5" width="31" height="41" fill="#1F1F1F" stroke="#9B6826"/>
<rect x="61.5" y="32.5" width="7" height="7" stroke="#9B6826"/>
<rect x="61.5" y="44.5" width="7" height="7" stroke="#9B6826"/>
<rect x="61.5" y="56.5" width="7" height="7" stroke="#9B6826"/>
<rect x="75.5" y="32.5" width="7" height="7" stroke="#9B6826"/>
<rect x="74.5" y="44.5" width="29" height="29" fill="#1F1F1F" stroke="#9B6826"/>
<path d="M96.8666 59.0861C96.7966 58.8028 96.4435 58.7068 96.2378 58.9132L93.9141 61.2457L91.7929 60.8909L91.4394 58.7617L93.7632 56.4293C93.97 56.2216 93.8704 55.8678 93.5863 55.7969C92.1057 55.4286 90.4754 55.8254 89.3182 56.9867C88.0794 58.23 87.7385 60.0324 88.2541 61.6039L81.5857 68.2974C80.8048 69.0812 80.8048 70.3522 81.5857 71.1361C82.3666 71.92 83.6329 71.92 84.4138 71.1361L91.0766 64.4483C92.6429 64.9724 94.435 64.6265 95.6819 63.3749C96.8403 62.2121 97.235 60.5732 96.8666 59.0861ZM83.0001 70.4692C82.586 70.4692 82.2501 70.132 82.2501 69.7164C82.2501 69.3005 82.586 68.9636 83.0001 68.9636C83.4141 68.9636 83.7501 69.3005 83.7501 69.7164C83.7501 70.132 83.4141 70.4692 83.0001 70.4692Z" stroke="#9B6826"/>
</svg>
